<svg width="211" height="111" viewBox="0 0 211 111" fill="none" xmlns="http://www.w3.org/2000/svg">
<path d="M60.4249 41.054C60.4615 41.0449 60.498 41.0357 60.5345 41.0266C60.5528 41.0175 60.4067 41.054 60.4249 41.054Z" fill="#858585"/>
<path d="M57.9316 42.5243C58.0686 42.6248 58.233 42.7252 58.3974 42.6796C58.4339 42.5791 58.3517 42.4787 58.2512 42.4421C58.1507 42.4056 58.0503 42.4147 57.9407 42.3965C57.822 42.3873 57.7033 42.3417 57.6028 42.2869L57.4658 42.3234C57.6393 42.3143 57.7946 42.4239 57.9316 42.5243Z" fill="#858585"/>
<path d="M57.5659 42.2595C57.5842 42.2687 57.5934 42.2778 57.6116 42.2869L57.6846 42.2687C57.639 42.2687 57.6024 42.2687 57.5659 42.2595Z" fill="#858585"/>
<path d="M71.3563 39.7297C71.3563 39.7571 71.3472 39.7845 71.3472 39.8119C71.3472 39.8211 71.3563 39.8302 71.3563 39.8302C71.3563 39.7937 71.3563 39.7571 71.3563 39.7297Z" fill="#858585"/>
<path d="M58.2514 42.0494C58.0688 41.9855 57.877 41.8941 57.6943 41.9398C57.9866 42.0403 58.288 42.1407 58.5802 42.2412C58.6898 42.2777 58.7902 42.3142 58.8998 42.3051C59.1829 42.296 59.3839 42.0494 59.5848 41.8485C60.0505 41.3736 60.6533 41.0722 61.2834 40.853C60.5893 40.9809 59.9227 41.264 59.3473 41.6749C59.3382 41.6932 59.3199 41.7115 59.3108 41.7206C59.256 41.5014 59.2103 41.2914 59.1829 41.0722C59.119 41.2001 59.0368 41.3188 58.909 41.3827C58.8816 41.3918 58.8542 41.401 58.8359 41.4101L58.845 41.2823C58.8268 41.3279 58.8176 41.3644 58.8176 41.4101C58.7446 41.4284 58.6715 41.4284 58.5893 41.4192C58.6441 41.4466 58.6989 41.4832 58.7355 41.538C58.845 41.6567 58.8816 41.8485 58.7811 41.9763C58.6715 42.1224 58.4432 42.1133 58.2514 42.0494Z" fill="#858585"/>
<path d="M58.5894 41.4101C58.5072 41.3645 58.4159 41.3279 58.3154 41.3005C58.4068 41.3553 58.4981 41.3919 58.5894 41.4101Z" fill="#858585"/>
<path d="M71.1191 45.3736C71.2196 45.4467 71.3383 45.465 71.4662 45.4467C71.3566 45.3919 71.2379 45.3554 71.1191 45.3736Z" fill="#858585"/>
<path d="M58.3701 56.5793C58.4157 56.2779 58.4249 55.9674 58.4066 55.666C58.3518 55.9674 58.3335 56.2688 58.3701 56.5793Z" fill="#858585"/>
<path d="M60.4335 69.8853C60.7531 70.3237 61.2007 70.8991 61.7121 71.1C61.6938 70.8899 61.2828 70.6616 61.1367 70.5155C60.8993 70.2872 60.6892 70.0315 60.4974 69.7666C60.1047 69.2278 59.776 68.6525 59.4655 68.0588C58.5979 66.415 57.8308 64.7163 57.3193 62.9264C57.1458 62.3328 57.0088 61.7391 56.8718 61.1364C56.5704 59.7756 56.2965 58.4058 56.0682 57.0359C55.7394 59.8304 55.9129 62.8076 57.3284 65.246C57.9129 66.2506 58.6892 67.1365 59.3194 68.1136C59.6938 68.6981 60.0225 69.3191 60.4335 69.8853Z" fill="#858585"/>
<path d="M84.0598 54.2048C84.005 54.7071 83.9685 55.2003 83.9502 55.7026C84.0507 55.2094 84.0689 54.7163 84.0598 54.2048Z" fill="#858585"/>
<path d="M65.3105 31.3735C65.6119 31.4192 65.9133 31.4649 66.2147 31.5105C66.2695 31.5105 66.3151 31.5197 66.3699 31.5197L65.3105 31.3735Z" fill="#858585"/>
<path d="M50.0319 38.6155C49.8492 38.716 49.7396 39.1909 49.6848 39.3735C49.6118 39.6292 49.5661 39.8941 49.5479 40.1589C49.4839 40.8165 49.5113 41.4923 49.3652 42.1407C49.2556 42.6612 49.0364 43.1818 49.1186 43.7115C49.0912 43.264 49.2374 42.8256 49.4474 42.4329C49.6483 42.0402 49.904 41.6658 50.1232 41.2822C50.2876 40.99 50.4337 40.6795 50.5707 40.3781C50.662 40.1772 50.7625 39.958 50.7534 39.7297C50.7442 39.4649 50.3606 38.4329 50.0319 38.6155Z" fill="#858585"/>
<path d="M51.4748 42.4238C51.3561 42.8622 51.1461 43.2732 50.8721 43.6202C50.7899 43.7206 50.6986 43.8211 50.6346 43.9398C50.4976 44.159 50.452 44.4147 50.4337 44.6704C50.4154 44.4056 50.3789 44.1316 50.2967 43.8759C50.2602 43.7663 50.2237 43.6476 50.1324 43.5837C50.041 43.5106 49.8858 43.5197 49.831 43.6111C49.8127 43.6476 49.8035 43.6932 49.7944 43.7298C49.6939 44.5243 49.6027 45.3188 49.5022 46.1042C49.4748 46.3234 49.4474 46.5609 49.5113 46.7709C49.5844 47.0266 49.7853 47.2367 50.0319 47.328C50.1323 47.3645 50.2511 47.3919 50.2967 47.4924C50.3241 47.5563 50.2967 47.6294 50.2784 47.7024C50.2237 47.8668 50.1689 48.0312 50.1141 48.1956C50.2145 48.1864 50.2693 48.0677 50.2967 47.9764C50.3698 47.7572 50.4976 47.5106 50.7168 47.465C50.8903 47.4285 51.0639 47.5198 51.2008 47.6294C51.347 47.7481 51.4839 47.8942 51.5844 48.0586C51.5661 47.812 51.4566 47.5654 51.2648 47.4011C51.1643 47.3189 51.0547 47.2549 50.9634 47.1545C50.8173 47.0083 50.7533 46.8074 50.7259 46.6065C50.6437 45.8759 51.146 45.2092 51.6848 44.707C51.9497 44.4604 52.2511 44.1773 52.2328 43.8211C52.2146 43.3097 51.5296 43.0631 51.5205 42.5517C51.5296 42.5699 51.5387 42.5791 51.5387 42.5973C51.6118 42.57 51.557 42.4238 51.4748 42.4238Z" fill="#858585"/>
<path d="M48.9268 45.4651C48.9359 45.5473 48.945 45.6386 48.945 45.7208C48.945 45.6934 48.945 45.6751 48.9541 45.6477C48.945 45.5838 48.9359 45.529 48.9268 45.4651Z" fill="#858585"/>
<path d="M48.9453 45.6111C48.9453 45.6202 48.9453 45.6385 48.9453 45.6476C48.9544 45.6842 48.9545 45.7207 48.9636 45.7572L48.9453 45.6111Z" fill="#858585"/>
<path d="M48.8538 46.6796C48.8812 47.0723 49.0913 47.4193 49.1369 47.812C49.1643 48.0312 49.137 48.2504 49.1644 48.4696C49.1826 48.6888 49.2648 48.9171 49.4383 49.0358C49.6666 48.8349 49.8675 48.5974 50.0319 48.3509C50.0502 48.3143 50.0776 48.2869 50.0867 48.2413C50.1232 48.0952 50.0045 47.9673 49.8858 47.876C49.6027 47.6568 49.2739 47.4559 49.1278 47.1271C49.0456 46.9536 49.0273 46.7618 49.0091 46.57C48.9817 46.2869 48.9634 46.0038 48.9451 45.7207C48.9269 46.0403 48.8264 46.36 48.8538 46.6796Z" fill="#858585"/>
<path d="M48.9452 45.6112C48.9452 45.5107 48.9361 45.4103 48.9087 45.3098L48.9452 45.6112Z" fill="#858585"/>
<path d="M49.8309 51.8303C49.9405 51.9216 50.0774 51.9764 50.2144 52.0129C50.0227 51.9124 49.84 51.7846 49.6665 51.6567C49.7304 51.7115 49.7761 51.7755 49.8309 51.8303Z" fill="#858585"/>
<path d="M49.2739 51.3005C49.3013 51.3279 49.3378 51.3553 49.3652 51.3919C49.4657 51.4832 49.5753 51.5654 49.6758 51.6567C49.6301 51.5928 49.5753 51.5288 49.5205 51.4832C49.4474 51.4101 49.347 51.3553 49.2739 51.3005Z" fill="#858585"/>
<path d="M49.2737 51.3007C49.2189 51.2459 49.1641 51.1819 49.1367 51.1089C49.1459 51.1911 49.2007 51.2459 49.2737 51.3007Z" fill="#858585"/>
<path d="M54.3244 63.6114C52.9728 61.5658 51.5938 59.4379 51.1555 57.0269C50.845 55.3556 51.0093 53.6296 51.2285 51.9492C51.2742 51.5748 51.2011 51.4652 51.0733 51.4926C50.9728 51.2186 50.8724 51.4652 50.6988 51.5839C50.6349 51.6296 50.5618 51.6661 50.4796 51.6752C50.3335 51.6844 50.2057 51.5839 50.0961 51.4834C49.7216 51.1181 49.4477 50.6433 49.3198 50.1318C49.4568 50.7163 49.7582 51.2643 50.1874 51.6935C50.224 51.7392 50.2696 51.7757 50.3244 51.7939C50.3792 51.8122 50.434 51.8031 50.4796 51.7848C50.5801 51.7574 50.6805 51.7209 50.7719 51.6661C50.5709 51.8213 50.3701 52.0223 50.297 52.004C50.3518 52.0223 50.4066 52.0405 50.4522 52.0679C50.3975 52.0588 50.3427 52.0405 50.2879 52.0314C50.2696 52.0223 50.2513 52.0223 50.2331 52.0131C50.3335 52.0679 50.434 52.1045 50.5436 52.141C50.5527 52.141 50.571 52.1501 50.5801 52.1501C50.8358 52.351 50.9819 52.6981 51.0185 53.036C51.0641 53.4835 50.9454 53.9218 50.9089 54.3693C50.8632 54.8807 50.8997 55.4013 50.9454 55.9127C51.0458 57.1365 51.1463 58.3785 51.6121 59.5201C51.8404 60.0772 52.1509 60.5977 52.4614 61.1091C52.9911 62.0041 53.5482 62.9082 54.3244 63.6114Z" fill="#858585"/>
<path d="M47.8857 61.7665C48.0958 62.2414 48.3058 62.7163 48.5159 63.1912C48.6346 63.4652 48.7716 63.7574 49.0273 63.9218C48.6528 63.2277 48.3058 62.5154 47.9862 61.7848C47.6939 61.1181 47.4747 60.4423 47.3104 59.73C47.0729 60.2414 47.6757 61.2734 47.8857 61.7665Z" fill="#858585"/>
<path d="M53.1281 70.7893C53.2833 71.2551 53.402 71.7848 53.7947 72.0862C53.4568 71.5017 53.3381 70.8167 53.0824 70.1866C52.5893 68.972 51.5847 68.0678 51.0459 66.8806C51.6578 68.2322 52.6623 69.3829 53.1281 70.7893Z" fill="#858585"/>
<path d="M71.2104 76.406C71.0003 76.5247 70.8177 76.68 70.7446 76.89C70.772 76.8626 70.8086 76.8261 70.836 76.7987C70.9456 76.6526 71.1008 76.5065 71.2104 76.406Z" fill="#858585"/>
<path d="M41.9952 59.3099C43.6665 58.6889 45.2007 57.7483 46.598 56.6432C46.4245 57.3556 46.4701 58.1227 46.7259 58.8168C46.7441 58.4058 46.7532 57.9948 46.7715 57.5747C46.7806 57.3373 46.7898 57.0816 46.8902 56.8624C46.9998 56.625 47.2008 56.4423 47.3926 56.2688C48.2693 55.4651 49.0364 54.5519 49.7031 53.5656C49.8766 53.3098 50.3971 52.7254 50.2784 52.3875C50.114 51.9217 49.7761 52.771 49.6666 52.9628C49.1551 53.803 48.525 54.561 47.8218 55.2368C46.388 56.6158 44.6893 57.6843 42.9359 58.625C42.5067 58.8533 42.0774 59.0816 41.6117 59.246C40.8354 59.52 40.0043 59.6113 39.2007 59.7574C36.2417 60.3054 33.5019 61.657 30.8535 63.0816C33.2097 61.8396 35.7577 60.9994 38.3422 60.3419C39.5751 60.0223 40.808 59.7483 41.9952 59.3099Z" fill="#858585"/>
<path d="M95.4574 34.4513C94.3249 33.1271 92.7268 32.3143 91.1468 31.6111C83.6308 28.2595 75.4571 26.5791 67.2653 25.8393C60.2332 25.2092 52.7994 25.337 46.5893 28.7161L47.9865 27.9763C46.2605 28.7343 44.4431 29.5563 43.3198 31.0631C42.1965 32.5791 42.0687 35.0175 43.5664 36.1682C42.3518 34.707 42.7353 32.3965 43.9499 30.9353C45.1646 29.4741 47.0002 28.6978 48.7993 28.1042C54.2971 26.2868 60.1967 25.6841 65.9411 26.3508C67.1192 26.4877 68.3338 26.6887 69.3384 27.3188C70.3429 27.9489 71.1101 29.1088 70.9457 30.2777C70.827 31.1179 70.1055 31.8394 69.311 32.0129C68.279 31.8394 67.2562 31.675 66.2242 31.5106C61.6214 31.2641 56.8177 31.0723 52.6076 32.9536C51.7217 33.3463 50.8084 33.9216 50.5527 34.8623C50.2331 36.0586 51.1555 37.2002 52.0048 38.1043C51.6121 37.6842 51.0368 37.3737 50.4706 37.4468C49.8952 37.529 49.3929 38.1226 49.5573 38.6705C49.6669 38.1408 50.3975 37.9765 50.8724 38.2322C51.3382 38.497 51.5939 39.0084 51.8222 39.5016C52.6532 38.6431 51.6121 37.0084 52.3427 36.0678C52.5345 35.8212 52.8085 35.6751 53.0825 35.5289C56.8907 33.5563 61.1465 32.4513 65.4387 32.2595C68.2881 32.1316 71.174 32.4148 73.8498 33.4011C75.0462 33.8394 76.206 34.433 77.1101 35.328C77.4389 35.6477 77.722 36.013 77.9869 36.3874C77.9412 36.4057 77.8955 36.4239 77.859 36.4605C77.6764 36.634 77.7129 36.9354 77.7586 37.1911C78.0051 38.5336 77.9868 39.9308 77.7129 41.2642C77.6398 41.5929 77.5485 41.94 77.3293 42.1957C77.0462 42.5153 76.5896 42.634 76.1695 42.6067C75.7494 42.5793 75.3384 42.4331 74.9366 42.287C74.7996 42.2413 74.6626 42.1774 74.553 42.0952V42.0861C74.4891 41.6112 74.4252 41.1272 74.4708 40.6432C74.5165 40.0769 74.6992 39.4925 74.4982 38.9628C74.5896 39.2002 74.5165 39.6112 74.48 39.8669C74.48 39.876 74.48 39.8852 74.48 39.8943C74.4343 40.2231 74.3612 40.5336 74.2425 40.8441C74.1238 41.1546 73.9594 41.4286 73.8042 41.7208V41.7299C73.585 41.9308 73.311 42.077 73.0188 42.0861C72.7905 42.0952 72.5622 42.0313 72.3338 42.0222C71.859 41.9948 71.4571 42.3144 71.7037 42.7984C71.7768 42.9537 71.9046 43.0359 71.9594 43.2094C71.9959 43.319 72.0051 43.4377 72.0233 43.5656C71.8772 43.5838 71.7311 43.5838 71.585 43.5473C71.3932 43.5108 71.2196 43.4194 71.0461 43.3281C70.7082 43.1546 70.352 42.972 70.0598 42.7254C70.0598 42.698 70.0598 42.6706 70.0689 42.6432C70.1146 42.4879 70.3064 42.4149 70.4708 42.4331C70.6352 42.4514 70.7722 42.5427 70.9092 42.634C70.69 42.4423 70.4434 42.214 70.4525 41.9217C70.4617 41.6934 70.6169 41.5108 70.7539 41.3281C71.0918 40.8715 71.3018 40.3326 71.384 39.7756C70.9822 38.9719 71.6763 37.8851 71.174 37.1363C71.4114 37.8395 71.3201 38.6523 70.9457 39.2915C70.8726 39.4194 70.7813 39.5472 70.6626 39.6477C70.2973 39.9765 69.7584 40.013 69.2653 40.0221C68.9091 40.0313 68.5438 40.0313 68.1968 40.0678C67.8954 39.9765 67.5758 39.9582 67.2653 40.0221C66.7356 40.0495 66.2059 40.1226 65.7493 39.8852C65.594 39.803 65.457 39.7025 65.3018 39.6386C65.2561 39.3463 65.2196 39.045 65.0095 38.8532C64.7995 38.6523 64.489 38.6249 64.2059 38.6066C63.8132 38.5792 63.4205 38.5518 63.0278 38.5335C62.626 38.5061 62.2241 38.4787 61.8223 38.5244C60.9456 38.6157 60.1054 39.0541 59.5209 39.7116C59.9866 39.1911 60.6716 38.908 61.3657 38.8349C62.0597 38.7527 62.7538 38.8623 63.4296 39.0176C63.6579 39.0724 63.8953 39.1363 64.0689 39.2915C64.2059 39.4194 64.2881 39.602 64.3611 39.7756C64.4707 40.0313 64.5803 40.287 64.699 40.5427C64.7264 40.6066 64.7538 40.6888 64.7264 40.7527C64.6899 40.8441 64.5712 40.8623 64.4707 40.8623C63.8223 40.8806 63.183 40.908 62.5346 40.9263C63.1922 40.9354 63.8406 41.0267 64.489 41.1454C64.6534 41.1728 64.8451 41.2185 64.9365 41.3555C65.1009 41.5929 64.8725 41.9308 64.5986 42.0039C64.3246 42.077 64.0324 41.9765 63.7584 41.8943C62.3702 41.5016 60.7538 41.7573 59.7035 42.7436C59.5392 42.8989 59.3657 43.0815 59.1465 43.1363C58.973 43.182 58.7903 43.1363 58.6076 43.0907C58.1875 42.9811 57.7949 42.9354 57.3748 42.8258C57.3839 42.835 57.393 42.8441 57.4021 42.8532C57.74 43.1911 58.0962 43.1546 58.5346 43.3464C58.6441 43.392 58.7811 43.5199 58.7081 43.6112C58.6715 43.6569 58.6076 43.666 58.5528 43.6752C58.2971 43.7117 58.0597 43.8669 57.9227 44.0861C58.3793 43.6752 59.0643 43.6386 59.6579 43.7939C60.2515 43.9491 60.7903 44.2596 61.3565 44.4788C62.2789 44.8441 63.2835 44.972 64.2607 44.8624C64.1328 45.0998 63.868 45.2185 63.6214 45.3007C62.8816 45.5291 62.0597 45.5017 61.3382 45.2186C62.3337 45.6934 63.5301 45.5108 64.5621 45.1272C64.7812 45.045 65.0187 44.9537 65.2379 45.0176C65.11 45.3281 64.8269 45.5473 64.5255 45.7026C63.7675 46.0953 62.8725 46.1318 62.014 46.1501C61.5574 46.1592 61.1008 46.1683 60.6625 46.0587C59.8953 45.8578 59.2195 45.2825 58.425 45.2916C59.9227 45.6113 61.11 46.9355 62.6351 47.0451C63.9776 47.1455 65.183 46.2688 66.2516 45.4469C66.763 45.0542 67.2744 44.6523 67.7858 44.2596C68.0141 44.0861 68.2425 43.9126 68.4434 43.7117C68.5986 43.5564 68.7447 43.3921 68.9274 43.2825C68.9913 43.2459 69.0553 43.2185 69.1283 43.1911C68.9457 43.3099 68.7539 43.4286 68.7173 43.6295C69.0187 43.392 69.3658 43.1363 69.7585 43.1637C70.0416 43.182 70.2881 43.3464 70.5438 43.4834C70.9548 43.6934 71.4023 43.8304 71.8681 43.8669C71.932 43.8761 71.9959 43.8761 72.0507 43.8761C72.0507 43.9491 72.0598 44.0222 72.069 44.0953C72.1055 44.424 72.1329 44.7711 71.9868 45.0633C71.8955 45.246 71.7037 45.3829 71.5119 45.4195C71.6489 45.4925 71.7585 45.6113 71.8315 45.7482C71.9594 45.9948 71.9685 46.2779 71.9685 46.5519C71.9685 47.1729 71.9046 47.7939 71.7767 48.4058C71.5849 48.3784 71.3932 48.351 71.2014 48.3236C71.7128 48.5337 72.206 48.7711 72.6991 49.0268C72.553 48.9903 72.4069 48.9537 72.2516 48.9355C72.7539 49.4195 73.2653 50.004 73.2745 50.7072C73.2745 50.972 73.2014 51.2278 73.1192 51.4835C73.101 51.4652 73.0918 51.4561 73.0736 51.4378C72.8361 52.141 72.1238 52.6524 71.3749 52.6433C71.1374 52.6433 70.8818 52.5976 70.6809 52.7072C70.5621 52.7711 70.4708 52.8899 70.4068 53.0086C70.2699 53.2826 70.2334 53.6022 70.0964 53.8762C69.9594 54.1502 69.6215 54.3785 69.3475 54.2415C69.2562 54.1958 69.1831 54.1136 69.1192 54.0314C68.9091 53.7849 68.6991 53.5474 68.5164 53.2734C68.3611 53.036 68.2242 52.7894 68.0141 52.5885C67.7219 52.3054 67.2927 52.1593 66.8908 52.2049C66.6351 52.2323 66.3977 52.3328 66.142 52.3785C65.8954 52.4241 65.6032 52.4059 65.4205 52.2415C65.3566 52.1867 65.2744 52.1045 65.2013 52.1501C65.2013 52.141 65.2287 52.2049 65.2287 52.1958C65.384 52.625 65.5392 53.0451 65.6945 53.4743C65.7949 53.7483 65.8863 54.0223 66.0507 54.2597C66.279 54.6068 66.6169 54.8625 66.9639 55.0999C67.3292 55.3465 67.7128 55.5748 68.1055 55.7758C68.4982 55.9767 68.9091 56.1593 69.2653 56.415C69.5027 56.5885 69.7311 56.8169 69.8041 57.1091C69.8772 57.4013 69.7493 57.7575 69.4662 57.8488C69.174 57.9493 68.8543 57.7393 68.6626 57.4927C68.4708 57.2461 68.3429 56.9447 68.1055 56.7438C67.8224 56.5155 67.4479 56.4516 67.0826 56.4059C66.4434 56.3146 65.7858 56.2324 65.1739 56.415C65.731 56.4516 66.2881 56.4972 66.8452 56.5977C67.0552 56.6342 67.2744 56.689 67.4571 56.8169C67.6945 56.9904 67.8224 57.2826 67.9411 57.5566C67.9959 57.6844 68.0506 57.8306 68.005 57.9584C67.9411 58.1411 67.7219 58.205 67.5301 58.2324C67.1009 58.2781 66.6625 58.2141 66.2333 58.1411C65.8132 58.068 65.3931 57.9767 64.973 57.8854C64.5164 57.7484 64.0506 57.6023 63.594 57.4561C63.3474 57.3739 63.1009 57.2918 62.8543 57.2187C62.7082 57.173 62.562 57.1274 62.4159 57.0726C62.4615 57.0086 62.5438 56.9721 62.6168 56.9447C63.0826 56.7895 63.5575 56.6342 64.0232 56.479C63.2287 56.5703 62.4342 56.6525 61.6396 56.7073C61.594 56.6799 61.5574 56.6525 61.5118 56.6342C61.4204 56.5794 61.3748 56.5886 61.3474 56.6342C61.3291 56.6342 61.3109 56.6342 61.2926 56.6433C61.2195 56.6616 61.1739 56.7164 61.1191 56.7712C60.9912 56.899 60.8451 57.0178 60.6807 57.1C60.4981 57.2004 60.2606 57.2644 60.078 57.1456C59.8588 57.0086 59.8497 56.6981 59.8679 56.4333C59.9136 55.794 59.9775 55.1091 60.3702 54.5977C60.6259 54.2598 61.0004 54.0314 61.3657 53.794C62.3611 53.1456 63.3018 52.3967 64.1602 51.5748C64.3794 51.3647 64.6077 51.1456 64.9091 51.109C64.8086 50.6159 64.7264 50.0679 64.9821 49.6387C65.1465 49.3556 65.4387 49.1729 65.7219 48.9994C66.1785 48.7163 66.6352 48.4332 67.0826 48.141C65.5392 48.5611 63.9593 49.0725 62.562 49.8396C62.1602 50.0588 61.7766 50.3054 61.4022 50.5611C60.215 51.3647 59.0734 52.3237 58.4158 53.5931C58.3154 53.7849 58.2241 53.9858 58.2058 54.205C58.1875 54.4698 58.2697 54.7255 58.3337 54.9904C58.3885 55.2095 58.4158 55.4287 58.4341 55.657C58.5163 55.1821 58.7081 54.7164 58.9912 54.3237C59.0642 54.2232 59.1647 54.1228 59.2834 54.1502C59.393 54.1776 59.4478 54.3054 59.4661 54.415C59.6122 55.173 59.32 55.9401 59.1282 56.689C58.909 57.5201 58.8451 58.4425 58.7812 59.3009C58.7172 60.205 58.772 61.1274 59.1191 61.9676C59.4752 62.8169 60.1145 63.5567 60.2789 64.4608C60.352 64.8352 60.3337 65.2279 60.3246 65.6115C60.288 67.2371 60.3976 68.9448 61.2469 70.333C60.5346 68.4791 60.2697 66.4608 60.4798 64.4882C60.5163 64.1229 60.5711 63.7576 60.5072 63.4014C60.4524 63.1092 60.3246 62.8443 60.215 62.5704C59.9045 61.7667 59.6214 60.5429 59.9867 59.721C60.2789 59.0543 60.5437 58.4151 60.9547 57.8306C61.3565 57.7575 61.7858 57.8671 62.1511 58.0589C62.562 58.2689 62.9182 58.5794 63.2743 58.8808C63.8314 59.3466 64.3976 59.7849 65.0369 60.132C66.1602 60.7439 67.4662 61.0544 68.4616 61.858C68.5347 61.9128 68.6077 61.9767 68.6991 62.0041C68.8634 62.0498 69.0279 61.9493 69.1831 61.8671C69.3384 61.7941 69.4936 61.7302 69.658 61.6845C69.8771 61.6754 70.0963 61.6754 70.3064 61.7028C70.7448 61.7576 71.2288 61.9219 71.4297 62.3146C71.6123 62.6617 71.521 63.1 71.2927 63.4197C71.0644 63.7302 70.7174 63.9402 70.352 64.0955C69.9137 64.2781 69.4571 64.3877 68.9822 64.4243C68.8634 64.4334 68.7447 64.4334 68.6351 64.3877C68.3977 64.2781 68.3521 63.9676 68.3429 63.7028C68.3247 63.2736 68.3338 62.8443 68.352 62.406C68.2972 62.8626 68.2516 63.3192 68.1968 63.7758C68.1785 63.9402 68.1603 64.1138 68.0507 64.2416C67.9046 64.4151 67.6489 64.4425 67.4205 64.4425C66.7356 64.4425 66.0507 64.2964 65.4205 64.0133C65.3109 63.9676 65.1831 63.9037 65.0643 63.9311C64.8726 63.9768 64.7812 64.2233 64.836 64.4151C64.8908 64.6069 65.0461 64.753 65.1922 64.89C65.9685 65.5932 66.7356 66.3056 67.5118 67.0088C67.6854 67.164 67.8772 67.3558 67.868 67.5932C67.8589 67.8124 67.6763 67.9951 67.4753 68.0773C67.2744 68.1595 67.0461 68.1777 66.8269 68.2143C65.7401 68.3969 64.8726 69.1823 63.9776 69.8216C63.8588 69.9038 63.731 69.9951 63.5849 70.0042C63.32 70.0134 63.1191 69.7759 62.973 69.5567C63.0187 70.5796 63.7949 71.4654 64.7356 71.8764C65.2379 72.0956 65.7767 72.2052 66.3155 72.3056C66.3246 72.3056 66.3246 72.3056 66.3338 72.3056C66.3429 72.3513 66.3429 72.3878 66.3429 72.4335C65.7219 72.4426 65.1009 72.397 64.489 72.2965C64.1145 72.1869 63.7675 72.0408 63.4479 71.8216C63.5483 71.9403 63.658 72.0499 63.7767 72.1412C62.763 71.8947 61.7949 71.4837 60.909 70.9357C60.352 70.5887 59.8223 70.1869 59.3017 69.7759C58.7994 69.3832 58.2971 68.9997 57.7948 68.607C58.6533 69.5659 59.667 70.3878 60.7629 71.0545C62.2789 71.9768 63.9776 72.6435 65.3109 73.8125C65.4114 73.8947 65.5118 73.9952 65.5392 74.123C65.5758 74.3239 65.4205 74.4974 65.2744 74.6435C63.3291 76.5522 61.4935 78.5705 59.7857 80.6893C59.6487 80.8628 59.4844 81.0454 59.2652 81.0637C58.973 81.0911 58.7537 80.7989 58.5985 80.5523C57.6304 78.9815 56.6624 77.4016 55.6852 75.8308C55.7491 76.1322 55.8222 76.3239 55.877 76.6253C55.877 76.4883 55.877 76.3513 55.8679 76.2235C56.6533 77.7851 57.5574 79.2829 58.562 80.7076C58.6898 80.8811 58.8177 81.0637 58.9912 81.1916C59.4021 81.5021 60.0415 81.4382 60.3885 81.0546C60.5072 80.9267 60.5894 80.7715 60.7172 80.6619C60.8451 80.5523 61.046 80.4884 61.1922 80.5797C61.3291 80.671 61.3657 80.8719 61.5118 80.9541C61.6853 81.0454 61.8953 80.9085 62.0323 80.7623C62.4433 80.3331 62.7355 79.7943 62.8908 79.2281C62.9639 78.9632 63.0095 78.6801 63.1922 78.4792C63.3748 78.2783 63.7584 78.2418 63.8863 78.4792C63.8863 78.0226 63.9685 77.566 64.1146 77.1367C64.1876 76.9084 64.2881 76.6801 64.4798 76.534C64.7721 76.3057 65.2013 76.3422 65.5301 76.5157C65.8589 76.6892 66.0963 76.9906 66.3338 77.2737C66.7995 77.8399 67.2653 78.4153 67.7219 78.9815C67.3657 78.2235 66.8908 77.5203 66.3246 76.9084C66.5347 76.7166 66.8726 76.8262 67.1192 76.9632C67.5758 77.2007 68.0142 77.4564 68.4525 77.7303C68.6534 77.8582 68.8543 77.9861 68.9913 78.1779C69.1557 78.4153 69.2105 78.7166 69.2105 79.0089C69.2287 79.9678 68.8543 80.945 68.8178 81.8765V81.8857C68.8087 82.0318 68.8178 82.1779 68.8361 82.3149C68.8452 82.4336 68.8635 82.5523 68.8726 82.671L68.9365 83.6574V83.6756C68.9548 84.187 69.0644 84.6985 69.174 85.219C69.3018 85.8309 69.4388 86.4519 69.5941 87.0638C69.7219 87.5752 69.8498 88.0866 70.0141 88.598C70.1511 89.0364 70.3064 89.4657 70.4616 89.904V89.9131L70.4708 89.9405C70.489 90.0044 70.5164 90.0593 70.5347 90.1232C70.7174 90.6255 70.9 91.1278 71.0827 91.63C71.5211 92.8355 71.9594 94.0502 72.4617 95.2283C72.1968 94.4977 71.932 93.7671 71.6763 93.0365L73.6032 97.9589C73.7402 98.9452 73.5211 99.484 73.2288 99.7763C53.6578 96.6803 42.2421 84.4793 36.1782 75.0363C33.8676 71.1458 32.2421 67.8581 31.1188 65.3466C31 65.0544 30.8995 64.7896 30.8082 64.5521C30.8813 64.753 30.9543 64.9448 31.0274 65.1457C29.5479 61.8032 29 59.9037 29 59.9037C29.9041 64.0498 32.9453 70.0499 34.6074 73.1367C34.9088 73.712 35.2192 74.2783 35.5389 74.8353C35.6485 75.0363 35.7124 75.1367 35.7124 75.1367C46.1052 93.073 61.7949 98.5708 72.4526 100.132C74.5074 100.434 76.3704 100.589 77.9777 100.653C79.1832 100.726 80.6262 100.763 82.1513 100.653C83.3659 100.598 84.0508 100.507 84.0508 100.507C84.0417 100.489 84.0326 100.47 84.0235 100.452C85.7495 100.205 87.4756 99.7397 88.9916 98.9543C88.6263 99.137 87.1924 99.7215 83.8134 100.069C83.2198 98.9818 82.6444 97.8767 82.3339 96.6803C82.0782 95.7214 81.9961 94.7351 81.8043 93.7671C81.6764 93.1186 81.512 92.4794 81.3111 91.8492C80.4526 89.1278 79.0371 86.5798 77.1832 84.3971C76.7723 83.9131 76.133 83.4382 75.8681 82.872C75.6216 82.3331 75.512 81.6208 75.3476 81.0181C75.5941 81.4199 76.0234 81.7395 76.4343 82.0135C76.5805 82.114 76.8087 82.2053 76.9183 82.0592C76.9366 82.0318 76.9458 82.0044 76.9549 81.977C76.964 81.9861 76.9823 81.9952 76.9914 81.9952C77.0005 81.3834 77.0645 80.7715 77.2014 80.1779C77.3841 79.3925 77.6763 78.6253 77.8772 77.8399C78.206 76.4974 78.2426 75.0819 77.9686 73.7303C77.9777 75.4472 77.9594 77.2281 77.2106 78.7623C77.0736 79.0363 76.9184 79.3011 76.7814 79.5842C76.6353 79.8765 76.4891 80.2418 76.4252 80.6071C76.133 79.9313 75.8407 79.2555 75.5485 78.5888C75.0736 77.4929 74.5987 76.4061 74.0233 75.365C73.5485 74.4974 72.9914 73.6207 72.9274 72.6435C72.9731 72.6161 73.0188 72.5796 73.0644 72.5522C74.6535 71.4654 75.8407 69.9038 76.9549 68.3421C76.9732 68.3695 77.0462 68.3695 77.0645 68.3969C78.0599 67.2827 78.8362 65.9677 79.6307 64.6982C79.8956 64.269 80.1513 63.8398 80.4344 63.4197C80.8728 62.7804 81.3659 62.1777 81.786 61.5292C82.8819 59.8671 83.4938 57.8945 83.5577 55.9127C83.6947 54.9812 83.7221 54.0406 83.5486 53.1182C83.4481 52.6068 83.2929 52.1045 83.2929 51.5839C83.2746 50.552 83.85 49.6113 84.197 48.6341C84.5532 47.6387 84.6993 46.5702 84.8271 45.5199C84.8819 45.1272 84.9276 44.7254 84.9824 44.3327C85.0372 44.2505 85.0828 44.1592 85.1285 44.0679C85.2289 44.5245 85.2837 44.9994 85.302 45.4651C85.3568 46.5793 85.2016 47.6935 84.8271 48.7437C84.5806 49.4286 84.2518 50.0953 84.0965 50.8077C83.8408 51.9127 84.0143 53.0634 84.0326 54.1958C84.1879 52.6524 84.471 51.1273 84.8728 49.6296C85.0646 48.9172 85.2837 48.214 85.4116 47.4834C85.5303 46.8259 85.576 46.1592 85.576 45.4925C88.8181 45.8304 91.7861 43.6204 94.3341 41.5199C95.1286 40.8715 95.9414 40.1865 96.3797 39.2641C97.1469 37.7116 96.5807 35.7664 95.4574 34.4513ZM64.0963 43.9035C64.078 44.0039 63.9502 44.0405 63.8497 44.0496C63.3657 44.1044 62.8817 44.1227 62.3977 44.0953C62.6899 44.3053 63.1008 44.2322 63.4661 44.2688C63.5757 44.2779 63.7127 44.3236 63.7218 44.4423C63.731 44.5153 63.6762 44.5884 63.6032 44.6158C63.5392 44.6432 63.457 44.6523 63.3839 44.6523C62.9821 44.6523 60.5164 44.6158 60.7447 43.8122C60.836 43.5016 61.3657 43.6752 61.5848 43.7117C62.1328 43.8122 62.6716 43.8487 63.2195 43.7482C63.4387 43.7117 63.6579 43.6478 63.8771 43.6934C63.9958 43.7117 64.1146 43.7939 64.0963 43.9035ZM64.7629 43.4103C64.352 43.4377 63.941 43.4742 63.5209 43.5016C63.2378 43.5199 62.7355 43.6478 62.489 43.5199C62.5529 43.3647 62.8451 43.2642 62.9639 43.0907C63.0187 43.0176 63.1739 42.4514 63.2013 42.4423C63.4022 42.3692 63.6214 42.4514 63.8223 42.5245C64.3429 42.7254 64.8817 42.9446 65.2379 43.3738C65.0826 43.3829 64.9182 43.4012 64.7629 43.4103ZM67.8772 60.269C67.5575 60.2598 67.2379 60.2142 66.9365 60.1228C66.5986 60.0224 66.2242 59.8032 66.2059 59.4562C66.0324 59.6205 65.7584 59.6388 65.5301 59.5475C65.3018 59.4562 65.1282 59.2918 64.9821 59.1C64.7812 59.1913 64.5346 59.1731 64.3611 59.0452C64.1785 58.9173 64.078 58.6982 64.1054 58.479C63.941 58.6708 63.6488 58.753 63.4022 58.6708C63.1556 58.5886 62.9821 58.342 62.973 58.0863C62.9639 57.931 63.0369 57.7575 63.1739 57.6844C63.2561 57.6388 63.3565 57.6388 63.457 57.6571C63.7949 57.7118 64.078 57.9858 64.1419 58.3146C64.1237 58.0954 64.4068 57.9493 64.6169 58.0315C64.8178 58.1137 64.9365 58.3237 64.9913 58.5429C65.0461 58.753 65.0461 58.9813 65.11 59.1913C65.0643 58.9082 65.0369 58.5794 65.247 58.3785C65.4936 58.1502 65.9319 58.2963 66.1146 58.5886C66.2972 58.8808 66.2881 59.237 66.2881 59.5749C66.279 59.2735 66.352 58.963 66.5073 58.6982C66.5438 58.6342 66.5895 58.5703 66.6534 58.5338C66.7264 58.4972 66.7995 58.5064 66.8817 58.5155C67.2287 58.5703 67.5666 58.6982 67.8589 58.8991C67.9502 58.963 68.0416 59.0361 68.1055 59.1274C68.1785 59.2461 68.2059 59.3922 68.2242 59.5383C68.2516 59.721 68.279 59.9037 68.3064 60.0954C68.2333 60.2324 68.0324 60.269 67.8772 60.269ZM70.1329 60.4151C69.795 60.4242 69.4662 60.4333 69.1283 60.4425C68.9639 60.4425 68.7904 60.4516 68.6351 60.3968C68.489 60.3511 68.3612 60.2416 68.3155 60.1046C68.3246 59.9037 68.3338 59.7027 68.3429 59.4927C68.3521 59.3922 68.3612 59.2735 68.4342 59.2096C68.5256 59.1365 68.6534 59.1639 68.763 59.1913C69.1192 59.3009 69.4571 59.4562 69.7676 59.6571C69.9046 59.7484 70.0415 59.8489 70.1146 59.995C70.1968 60.1228 70.2059 60.2872 70.1329 60.4151ZM69.2105 84.8628C69.1283 84.5523 69.0553 84.2327 69.0096 83.9039L69.5393 86.0866C69.4297 85.6756 69.3201 85.2647 69.2105 84.8628ZM75.8042 80.3331C75.9594 80.671 76.1147 81.018 76.1786 81.3834C75.795 81.2555 75.4571 80.9724 75.2562 80.6254C75.037 79.8948 74.8179 79.155 74.5896 78.4244C74.3886 77.7669 73.9046 76.8354 73.9046 76.1504C74.5348 77.5477 75.1649 78.945 75.8042 80.3331ZM73.2014 75.9495C72.7722 76.187 72.2516 76.1504 71.7767 76.2235C71.5941 76.2509 71.4023 76.3057 71.2288 76.397C71.1192 76.5249 70.9822 76.6618 70.8361 76.7988C70.7722 76.8902 70.7174 76.9815 70.7082 77.0637C70.7174 76.9998 70.7265 76.945 70.7447 76.8902C70.5438 77.0911 70.3612 77.3011 70.2425 77.5294L70.553 77.7851C70.4982 77.8765 70.4434 77.9678 70.3886 78.0591C70.5987 77.8856 70.7813 77.6847 70.9183 77.4472C70.9731 77.9678 71.3658 78.4153 71.8315 78.6619C72.2973 78.9085 72.8361 78.9815 73.3567 79.018C73.7677 79.0454 74.279 79.1276 74.4069 79.5203C74.5074 79.84 74.2699 80.1596 74.0599 80.4153C73.2927 81.3194 72.5256 82.2601 72.1512 83.3743C71.9868 83.8765 71.8955 84.4245 71.5941 84.8628C71.5119 84.9907 71.4023 85.1003 71.2744 85.1916L69.3201 82.5523C69.2561 82.1779 69.2105 81.7943 69.3475 81.4473C69.7767 81.3834 70.1603 81.7852 70.2425 82.2053C70.3247 82.6345 70.1877 83.0637 70.0507 83.4747C70.69 82.2327 71.0188 80.7258 70.5621 79.3651C70.3795 78.8171 69.9685 78.2692 70.1785 77.6664C70.1968 77.6208 70.2242 77.566 70.2425 77.5203L70.2333 77.5112C70.1968 77.5568 70.1512 77.6025 70.1055 77.6482C70.0507 77.7121 69.9868 77.776 69.9137 77.8125C69.7585 77.8765 69.585 77.7669 69.4754 77.639C69.3749 77.5112 69.3109 77.3468 69.2013 77.2189C68.8908 76.8354 68.3064 76.8354 67.8954 76.5797C66.5255 75.7395 67.5027 72.9814 69.037 74.9723C69.3292 75.3468 69.6854 75.6573 70.0507 75.9678C70.1694 76.0682 70.2881 76.1687 70.4343 76.1961C70.626 76.2235 70.8087 76.123 70.9913 76.0317C71.6763 75.7121 72.4982 75.6755 73.2014 75.9495ZM79.6764 46.2779C79.7038 46.3145 79.7312 46.3692 79.7129 46.4149C79.7038 46.4514 79.6764 46.4788 79.6581 46.4971C79.4663 46.6798 79.1924 46.7254 78.9366 46.762C78.6535 46.8076 78.3613 46.8533 78.0782 46.8989C77.8042 46.9446 77.5303 46.9903 77.2472 46.9811C76.8636 46.972 76.4891 46.8533 76.1238 46.7437C76.0508 46.7254 75.9777 46.698 75.9412 46.6432C75.8407 46.5062 76.0142 46.3145 76.1786 46.3145C76.343 46.3145 76.4891 46.424 76.6444 46.4971C77.2471 46.7893 77.7585 46.488 78.1695 46.0587C78.5348 45.6752 79.375 45.8396 79.6764 46.2779ZM76.3339 45.3921L76.9092 45.4012C76.5987 45.5017 76.2517 45.5017 75.9412 45.4012C75.8864 45.319 75.996 45.2186 76.0782 45.1729C76.4161 45.0085 76.8088 44.9354 77.1832 44.972C77.4481 44.9994 77.7037 45.0724 77.9595 45.1455C78.1147 45.1912 78.2791 45.2368 78.4344 45.2825C78.6535 45.3464 78.8818 45.4195 79.0371 45.5838C78.1604 45.3555 77.238 45.2916 76.3339 45.3921ZM75.8681 44.7528C75.9503 44.5884 76.1238 44.4879 76.2973 44.4149C77.0371 44.1044 77.9229 44.15 78.6261 44.5336C78.6992 44.5793 78.7814 44.6249 78.8179 44.698C78.8544 44.7711 78.8362 44.8898 78.7631 44.9172C78.7083 44.9446 78.6444 44.9172 78.5805 44.8989C77.7951 44.6249 76.9549 44.5428 76.133 44.6523L77.4572 44.6706C77.0097 44.6432 76.5531 44.7254 76.1421 44.8898C76.0873 44.908 76.0325 44.9354 75.9777 44.9354C75.9229 44.9354 75.859 44.8989 75.8498 44.8441C75.8407 44.8167 75.8499 44.7802 75.8681 44.7528ZM75.2288 47.6661C75.1832 47.4195 75.3475 47.1181 75.5941 47.0999C75.7768 47.0907 75.932 47.2094 76.0782 47.3282C76.69 47.8487 77.3567 48.3327 78.1147 48.5976C78.8727 48.8624 79.7403 48.899 80.4618 48.5337C79.9777 49.0542 79.3933 49.52 78.7175 49.7392C78.0325 49.9583 77.238 49.9035 76.6718 49.4652C76.4709 49.3191 76.3065 49.1273 76.1512 48.9446C75.8407 48.5885 75.5393 48.2414 75.2288 47.8853L75.649 48.278C75.4572 48.1227 75.2745 47.9218 75.2288 47.6661ZM78.4892 60.5703C78.4252 61.0817 78.1147 61.5201 77.8134 61.9402C77.585 62.269 77.3476 62.5886 77.1193 62.9174C77.0097 63.0726 76.8727 63.237 76.6809 63.2462C76.5804 62.9083 76.5987 62.543 76.7357 62.2142L76.7266 62.3329C76.9184 61.5658 77.2563 60.826 77.7311 60.1868C77.8225 60.068 77.9321 59.9311 78.0873 59.9219C78.2334 59.9037 78.3796 60.0132 78.4435 60.1411C78.5074 60.269 78.5074 60.4242 78.4892 60.5703ZM82.1056 53.4926C81.8682 53.7849 81.6033 54.0588 81.2654 54.205C81.0462 54.3054 80.8179 54.3511 80.5805 54.3876C80.1056 54.4698 79.6033 54.5429 79.1375 54.4241C78.6078 54.2963 78.1604 53.9493 77.7768 53.5566C76.9457 52.7072 76.3704 51.6661 75.6124 50.762C75.238 50.3145 74.8179 49.9035 74.3247 49.593C74.0234 49.4012 73.0005 48.9172 73.8315 48.6524C74.4343 48.4606 75.4389 49.0634 75.9777 49.3191C76.3704 49.5017 76.754 49.7118 77.101 49.9675C77.3202 50.1318 77.5303 50.3054 77.7586 50.4515C78.3613 50.8351 79.1284 50.9629 79.8225 50.8077C80.2334 50.7163 80.6262 50.5245 81.0371 50.4972C81.4755 50.4698 81.9138 50.6159 82.2426 50.9081C82.5623 51.2004 82.754 51.6387 82.7358 52.0771C82.7358 52.6159 82.4435 53.0908 82.1056 53.4926ZM85.6034 45.4651C85.6034 44.9081 85.5577 44.3601 85.5029 43.803C85.5303 43.8121 85.5577 43.8213 85.576 43.8304C86.3705 44.0405 87.2016 43.8669 87.9961 43.666C89.4847 43.2916 90.955 42.8441 92.398 42.3235C90.6537 44.1957 88.1605 45.3464 85.6034 45.4651Z" fill="#858585"/>
<path d="M61.5666 23.8209C61.5483 23.8209 61.5301 23.8209 61.5027 23.8118C61.3565 23.8118 61.2104 23.8118 61.0552 23.8118C61.2378 23.8209 61.4022 23.8209 61.5666 23.8209Z" fill="#858585"/>
<path d="M65.6488 23.9306C70.1329 24.1406 74.6352 24.5424 78.964 25.7479C80.1878 26.0858 81.3933 26.4877 82.6079 26.8895C83.7404 27.2639 84.8637 27.7206 86.0235 28.0128C86.955 28.2502 87.8135 28.7799 88.7541 29.0539C88.2701 28.8804 88.0418 28.3324 87.8957 27.8393C87.2655 25.7297 86.9733 23.5287 86.7358 21.3369C86.6719 20.7068 86.6079 20.0675 86.4436 19.4556C86.334 19.0538 86.1878 18.6702 86.0417 18.2866C85.4481 16.7341 84.818 15.1359 83.6673 13.9396C83.3477 13.6108 82.9824 13.3003 82.544 13.1633C82.2061 13.0628 81.8499 13.0628 81.5029 13.0628C81.3111 13.0628 81.1193 13.0628 80.9275 13.0628C81.0097 13.0446 81.0919 13.0263 81.165 13.0081C80.5074 12.9807 79.8408 12.9807 79.1832 13.0172C78.7084 13.0446 78.2334 13.0902 77.7677 13.0628L77.6489 13.0446C77.6855 13.0537 77.7129 13.0537 77.7494 13.0628C77.6764 13.0628 77.6033 13.0628 77.5303 13.0537C77.4937 13.0537 77.4481 13.0446 77.4115 13.0354C77.7129 13.0994 78.0143 13.145 78.3156 13.1816C78.7357 13.2912 79.1741 13.2729 79.6216 13.2272C80.0143 13.209 80.407 13.1724 80.7905 13.0902C81.0554 13.072 81.3111 13.072 81.5668 13.0994C82.8088 13.2546 83.8134 14.2227 84.4162 15.3095C85.0189 16.3962 85.3111 17.6382 85.713 18.8163C85.8865 19.3278 86.0874 19.83 86.2427 20.3415C87.0189 22.999 86.4984 25.9945 87.7039 28.4877C87.2381 28.305 86.9093 27.9945 86.6902 27.6018C86.1879 23.6383 85.1377 19.7387 83.576 16.0583C83.3111 15.419 82.9915 14.7524 82.407 14.3871C81.6855 13.9396 80.754 14.0674 79.9047 14.0674C79.0828 14.0674 78.2517 13.9304 77.4755 13.6565C77.0188 13.5012 76.5348 13.2912 76.0782 13.4555C75.7403 13.5743 75.512 13.8756 75.3019 14.1679C74.617 15.0903 73.932 16.0218 73.2471 16.9442C72.9001 17.4099 72.5439 17.9031 72.4526 18.4693C72.3887 18.8894 72.4251 19.4008 72.069 19.6291C71.8133 19.7935 71.4115 19.7387 71.2379 19.9944C71.0553 20.2593 71.2927 20.6155 71.5393 20.8346C72.0873 21.3004 72.7631 21.62 73.2288 22.168C73.6946 22.7159 73.8407 23.6566 73.2745 24.0949C72.8909 24.3963 72.3612 24.3506 71.8772 24.2959C68.1329 23.8758 64.3246 23.5927 60.562 23.7205C60.8725 23.7388 61.1921 23.7753 61.5026 23.8118C62.8908 23.821 64.2698 23.8666 65.6488 23.9306ZM86.6628 27.5562C86.5441 27.3279 86.4618 27.0721 86.4071 26.7982L86.6628 27.5562Z" fill="#858585"/>
<path d="M60.5709 23.7294C58.2604 23.565 55.9315 23.7568 53.6758 24.2956C55.3288 23.9668 57.0457 23.8572 58.7626 23.8298C59.3562 23.7842 59.959 23.7476 60.5709 23.7294Z" fill="#858585"/>
<path d="M51.9042 24.9167C54.8631 24.1039 57.9591 23.8391 61.0732 23.8208C60.3061 23.8117 59.539 23.8117 58.7627 23.8208C56.4796 23.9761 54.2147 24.3048 51.9955 24.8711C52.0594 24.8345 52.1142 24.8071 52.1782 24.7615C51.9407 24.8254 51.6941 24.8802 51.4567 24.9441C52.1873 24.6884 52.927 24.4692 53.6759 24.2957C52.3151 24.5697 50.9909 24.9806 49.7397 25.6199C50.1872 25.4464 50.6439 25.2912 51.1005 25.1542C51.3745 25.1176 51.6485 25.0446 51.9042 24.9167Z" fill="#858585"/>
<path d="M77.4021 13.0354C76.9546 12.9441 76.5071 12.8254 76.0596 12.6975C76.5071 12.8528 76.9455 12.9806 77.4021 13.0354Z" fill="#858585"/>
<path d="M71.6576 10.9441C71.1919 10.7614 70.7353 10.5696 70.2512 10.4235C68.4156 9.85731 66.4064 9.85732 64.5799 10.4327C62.7443 11.008 61.1005 12.1496 59.9224 13.6656C61.4749 11.903 63.6941 10.7888 66.0046 10.3231C66.6439 10.1952 67.2923 10.113 67.9407 10.1404C68.5344 10.1678 69.128 10.2774 69.7033 10.4327C71.8769 10.9897 73.9317 12.0491 76.0687 12.6975C75.8038 12.6062 75.539 12.4966 75.2833 12.3962C74.0687 11.903 72.8631 11.4281 71.6576 10.9441Z" fill="#858585"/>
<path d="M89.0098 98.9632C89.0828 98.9267 89.1103 98.9084 89.1103 98.9084C89.0737 98.9267 89.0463 98.945 89.0098 98.9632Z" fill="#858585"/>
<path d="M114.17 43.2823C113.832 43.2823 113.467 43.2732 113.083 43.2641C112.69 43.2549 112.38 43.2367 112.142 43.2275V43.602C112.69 43.6568 113.101 43.7572 113.357 43.9216C113.613 44.086 113.777 44.3508 113.859 44.7161C113.932 45.0906 113.969 45.6111 113.969 46.3052V52.1866L106.699 43.2275C106.471 43.2367 106.225 43.2549 105.951 43.2641C105.677 43.2732 105.384 43.2823 105.083 43.2823C104.791 43.2823 104.498 43.2732 104.197 43.2641C103.896 43.2549 103.649 43.2367 103.448 43.2275V43.602C103.832 43.6111 104.133 43.6659 104.343 43.739C104.553 43.8212 104.69 43.9673 104.754 44.1865C104.827 44.4056 104.855 44.7436 104.855 45.2093V53.666C104.855 54.2688 104.818 54.7437 104.754 55.0816C104.681 55.4286 104.553 55.6752 104.352 55.8213C104.151 55.9674 103.85 56.077 103.448 56.1409V56.5154C103.649 56.488 103.896 56.4788 104.197 56.4697C104.498 56.4606 104.791 56.4606 105.083 56.4606C105.421 56.4606 105.786 56.4606 106.17 56.4697C106.553 56.4788 106.873 56.488 107.11 56.5154V56.1409C106.562 56.077 106.152 55.9674 105.896 55.8122C105.64 55.6569 105.476 55.3921 105.393 55.0268C105.32 54.6615 105.284 54.1318 105.284 53.4377V46.223L113.439 56.561C113.613 56.5519 113.777 56.5428 113.942 56.5428C114.097 56.5428 114.252 56.5519 114.398 56.561V46.0769C114.398 45.465 114.435 44.9901 114.499 44.6522C114.572 44.3143 114.7 44.0677 114.9 43.9125C115.101 43.7572 115.403 43.6568 115.805 43.602V43.2275C115.604 43.2367 115.357 43.2549 115.065 43.2641C114.763 43.2823 114.471 43.2823 114.17 43.2823Z" fill="#858585"/>
<path d="M119.704 43.2824C119.138 43.2824 118.609 43.2733 118.097 43.2642C117.586 43.255 117.184 43.2368 116.864 43.2276V43.6021C117.266 43.6112 117.567 43.666 117.768 43.7391C117.969 43.8213 118.106 43.9674 118.17 44.1866C118.243 44.4057 118.271 44.7436 118.271 45.2094V55.5017C118.271 56.5703 118.179 57.3922 117.988 57.9858C117.796 58.5703 117.531 58.9904 117.184 59.237C116.837 59.4835 116.408 59.6297 115.905 59.6753V60.0498C117.348 60.0498 118.481 59.7575 119.312 59.1639C120.143 58.5703 120.691 57.8488 120.937 56.9812C121.065 56.5429 121.147 56.0406 121.193 55.4744C121.239 54.9081 121.257 54.3328 121.257 53.7392C121.257 53.1456 121.257 52.5885 121.257 52.0771V45.2003C121.257 44.7345 121.293 44.3966 121.357 44.1774C121.43 43.9582 121.567 43.8121 121.768 43.7299C121.978 43.6477 122.271 43.6021 122.663 43.5929V43.2185C122.316 43.2276 121.869 43.2459 121.339 43.255C120.819 43.2824 120.271 43.2824 119.704 43.2824Z" fill="#858585"/>
<path d="M134.125 53.675C134.125 53.0266 134.143 52.497 134.179 52.0951H133.75C133.586 53.0997 133.348 53.8942 133.047 54.4787C132.736 55.0723 132.371 55.4833 131.942 55.7299C131.513 55.9764 131.01 56.0952 130.444 56.0952H129.522C129.156 56.0952 128.882 56.0678 128.691 56.0038C128.499 55.9399 128.38 55.8121 128.316 55.6203C128.252 55.4285 128.225 55.1454 128.225 54.7618V50.0312H128.819C129.321 50.0312 129.723 50.1499 130.042 50.3782C130.353 50.6065 130.599 50.917 130.764 51.2915C130.937 51.6659 131.047 52.0769 131.111 52.5152H131.54C131.494 51.8029 131.458 51.2549 131.449 50.8805C131.44 50.5061 131.43 50.159 131.43 49.8485C131.43 49.538 131.43 49.191 131.421 48.8165C131.412 48.4421 131.44 47.8942 131.485 47.1818H131.056C131.01 47.4284 130.928 47.7024 130.828 47.9855C130.727 48.2777 130.59 48.5426 130.426 48.8074C130.252 49.0631 130.042 49.2732 129.777 49.4284C129.513 49.5837 129.193 49.6659 128.819 49.6659H128.216V45.0083C128.216 44.6156 128.243 44.3325 128.307 44.1407C128.371 43.9489 128.499 43.8302 128.682 43.7663C128.873 43.7023 129.147 43.6749 129.513 43.6749H130.28C130.846 43.6749 131.339 43.7845 131.759 44.0037C132.179 44.2229 132.517 44.5973 132.782 45.127C133.047 45.6567 133.239 46.3873 133.367 47.3005H133.796C133.787 47.1544 133.768 46.9626 133.759 46.7343C133.75 46.506 133.741 46.2686 133.741 46.022C133.741 45.748 133.75 45.3553 133.768 44.8348C133.787 44.3233 133.823 43.7937 133.869 43.2366C133.294 43.264 132.636 43.2731 131.905 43.2822C131.175 43.2914 130.517 43.2914 129.942 43.2914C129.631 43.2914 129.23 43.2914 128.736 43.2914C128.252 43.2914 127.723 43.2914 127.156 43.2822C126.59 43.2731 126.024 43.2731 125.449 43.264C124.873 43.2548 124.325 43.2457 123.814 43.2366V43.611C124.198 43.6201 124.499 43.6749 124.709 43.748C124.919 43.8302 125.056 43.9763 125.12 44.1955C125.193 44.4147 125.22 44.7526 125.22 45.2183V54.5426C125.22 54.9901 125.184 55.328 125.12 55.5563C125.047 55.7847 124.919 55.9308 124.718 56.0038C124.517 56.0769 124.216 56.1317 123.814 56.15V56.5244C124.325 56.5153 124.873 56.5061 125.449 56.497C126.024 56.4879 126.599 56.4879 127.156 56.4787C127.723 56.4696 128.243 56.4696 128.736 56.4696C129.22 56.4696 129.622 56.4696 129.942 56.4696C130.572 56.4696 131.284 56.4696 132.088 56.4787C132.892 56.4879 133.613 56.497 134.252 56.5244C134.189 55.9582 134.152 55.4194 134.143 54.8897C134.125 54.3691 134.125 53.9673 134.125 53.675Z" fill="#858585"/>
<path d="M146.48 43.2823C146.143 43.2823 145.777 43.2732 145.394 43.2641C145.001 43.2549 144.69 43.2367 144.453 43.2275V43.602C145.001 43.6568 145.412 43.7572 145.668 43.9216C145.923 44.086 146.088 44.3508 146.17 44.7161C146.243 45.0906 146.279 45.6111 146.279 46.3052V52.1866L139.01 43.2275C138.782 43.2367 138.535 43.2549 138.261 43.2641C137.987 43.2732 137.695 43.2823 137.394 43.2823C137.101 43.2823 136.809 43.2732 136.508 43.2641C136.206 43.2549 135.96 43.2367 135.759 43.2275V43.602C136.142 43.6111 136.444 43.6659 136.654 43.739C136.864 43.8212 137.001 43.9673 137.065 44.1865C137.138 44.4056 137.165 44.7436 137.165 45.2093V53.666C137.165 54.2688 137.129 54.7437 137.065 55.0816C136.992 55.4286 136.864 55.6752 136.663 55.8213C136.462 55.9674 136.161 56.077 135.759 56.1409V56.5154C135.96 56.488 136.206 56.4788 136.508 56.4697C136.809 56.4606 137.101 56.4606 137.394 56.4606C137.731 56.4606 138.097 56.4606 138.48 56.4697C138.864 56.4788 139.183 56.488 139.421 56.5154V56.1409C138.873 56.077 138.462 55.9674 138.206 55.8122C137.951 55.6569 137.786 55.3921 137.704 55.0268C137.631 54.6615 137.594 54.1318 137.594 53.4377V46.223L145.75 56.561C145.923 56.5519 146.088 56.5428 146.252 56.5428C146.407 56.5428 146.563 56.5519 146.709 56.561V46.0769C146.709 45.465 146.745 44.9901 146.809 44.6522C146.882 44.3143 147.01 44.0677 147.211 43.9125C147.412 43.7572 147.713 43.6568 148.115 43.602V43.2275C147.914 43.2367 147.668 43.2549 147.375 43.2641C147.083 43.2823 146.782 43.2823 146.48 43.2823Z" fill="#858585"/>
<path d="M159.394 50.8806C159.057 50.8806 158.682 50.8806 158.289 50.8715C157.888 50.8623 157.504 50.8623 157.13 50.8532C156.764 50.8441 156.445 50.8349 156.18 50.8258V51.2002C156.709 51.2094 157.102 51.2733 157.385 51.3738C157.659 51.4742 157.842 51.666 157.942 51.9491C158.034 52.2322 158.079 52.6614 158.079 53.2368V55.0816C158.079 55.319 158.052 55.5108 157.988 55.6569C157.924 55.803 157.805 55.94 157.632 56.0587C157.495 56.1592 157.312 56.2505 157.084 56.3236C156.856 56.3966 156.6 56.4332 156.299 56.4332C155.13 56.4332 154.244 55.9126 153.623 54.8715C153.002 53.8304 152.691 52.1865 152.691 49.9308C152.691 49.0998 152.764 48.3052 152.919 47.5381C153.066 46.7709 153.303 46.0769 153.614 45.465C153.924 44.8531 154.326 44.3691 154.819 44.0129C155.303 43.6568 155.897 43.4741 156.582 43.4741C157.029 43.4741 157.477 43.5563 157.924 43.7207C158.372 43.8851 158.746 44.1134 159.038 44.3965C159.522 44.7983 159.86 45.2732 160.043 45.8303C160.225 46.3874 160.362 47.0449 160.445 47.7938H160.874C160.874 46.6431 160.883 45.7207 160.892 45.0266C160.901 44.3326 160.92 43.739 160.947 43.2549H160.518C160.445 44.0038 160.289 44.3782 160.052 44.3782C159.952 44.3782 159.824 44.3234 159.678 44.2047C159.248 43.8668 158.773 43.5746 158.235 43.3371C157.696 43.0997 157.002 42.981 156.152 42.981C154.828 42.981 153.65 43.2732 152.627 43.8668C151.604 44.4604 150.801 45.2732 150.225 46.3326C149.641 47.3828 149.349 48.6248 149.349 50.0495C149.349 51.4651 149.604 52.6797 150.107 53.6843C150.618 54.6889 151.367 55.4651 152.371 56.0039C153.376 56.5428 154.6 56.8076 156.052 56.8076C156.618 56.8076 157.157 56.7163 157.668 56.5336C158.18 56.351 158.673 56.1318 159.13 55.867C159.431 55.6934 159.65 55.5838 159.796 55.5382C159.942 55.4925 160.052 55.4742 160.143 55.4742C160.335 55.4742 160.463 55.6021 160.545 55.8487C160.627 56.0953 160.673 56.3327 160.682 56.5427H161.057V52.8258C161.057 52.3601 161.075 52.0222 161.12 51.7938C161.166 51.5655 161.248 51.4194 161.367 51.3464C161.486 51.2733 161.668 51.2276 161.906 51.2185V50.8441C161.632 50.8532 161.276 50.8715 160.837 50.8806C160.399 50.8715 159.915 50.8806 159.394 50.8806Z" fill="#858585"/>
<path d="M174.28 55.8851C174.061 55.7207 173.86 55.4102 173.687 54.9536L169.12 43.1909C168.919 43.2001 168.7 43.2092 168.472 43.2092C168.244 43.2092 168.025 43.2001 167.824 43.1909L163.54 54.1865C163.276 54.8714 163.011 55.3646 162.737 55.6568C162.463 55.9491 162.189 56.1134 161.933 56.1682V56.5427C162.125 56.5153 162.335 56.5061 162.581 56.497C162.828 56.4879 163.084 56.4879 163.358 56.4879C163.741 56.4879 164.125 56.4879 164.499 56.497C164.874 56.5061 165.266 56.5153 165.687 56.5427V56.1682C165.312 56.1591 164.992 56.1043 164.719 56.0039C164.445 55.9125 164.253 55.7481 164.134 55.5016C164.015 55.2641 163.988 54.9262 164.043 54.4878C164.098 54.0495 164.262 53.4833 164.545 52.7983L165.038 51.5015H169.13L170.253 54.5792C170.499 55.2185 170.545 55.6385 170.372 55.8303C170.198 56.0221 169.796 56.1317 169.157 56.1591V56.5335C169.458 56.5061 169.86 56.497 170.381 56.4879C170.892 56.4787 171.44 56.4787 172.015 56.4787C172.527 56.4787 173.038 56.4787 173.55 56.4879C174.061 56.497 174.499 56.5061 174.874 56.5335V56.1591C174.7 56.1408 174.499 56.0495 174.28 55.8851ZM165.184 51.118L167.13 46.0403L168.983 51.118H165.184Z" fill="#858585"/>
<path d="M127.695 71.4563L123.129 59.6936C122.928 59.7027 122.709 59.7119 122.48 59.7119C122.252 59.7119 122.033 59.7027 121.832 59.6936L117.549 70.6892C117.284 71.3741 117.019 71.8672 116.745 72.1595C116.562 72.3513 116.38 72.4883 116.206 72.5705C115.978 72.4609 115.777 72.3513 115.622 72.2143C115.421 72.0408 115.229 71.8033 115.056 71.5202L110.681 64.6982L113.028 61.9037C113.53 61.3192 114.005 60.89 114.462 60.6251C114.919 60.3603 115.348 60.1867 115.75 60.0954V59.7393C115.521 59.7484 115.266 59.7667 114.973 59.7758C114.681 59.7849 114.352 59.7941 113.987 59.7941C113.622 59.7941 113.293 59.7941 112.982 59.7849C112.672 59.7758 112.38 59.7758 112.097 59.7667C111.813 59.7575 111.521 59.7484 111.202 59.7393V60.0954C111.704 60.1046 112.078 60.2233 112.316 60.4516C112.562 60.6799 112.645 60.9904 112.562 61.4014C112.48 61.8123 112.206 62.2964 111.722 62.8534L110.617 64.1868C110.106 64.7713 109.631 65.2097 109.202 65.5019C108.8 65.7667 108.343 65.9129 107.841 65.9402V61.721C107.841 61.2553 107.868 60.9174 107.932 60.6982C107.996 60.479 108.133 60.3329 108.334 60.2507C108.544 60.1685 108.845 60.1228 109.247 60.1137V59.7393C108.909 59.7484 108.48 59.7667 107.969 59.7758C107.457 59.7849 106.937 59.7941 106.407 59.7941C105.804 59.7941 105.238 59.7849 104.708 59.7758C104.179 59.7667 103.749 59.7484 103.439 59.7393V60.1137C103.823 60.1228 104.124 60.1776 104.334 60.2507C104.544 60.3329 104.681 60.479 104.745 60.6982C104.818 60.9174 104.845 61.2553 104.845 61.721V71.0453C104.845 71.4928 104.809 71.8307 104.745 72.059C104.672 72.2874 104.544 72.4335 104.343 72.5065C104.142 72.5796 103.841 72.6344 103.439 72.6526V73.0271C103.749 72.9997 104.179 72.9906 104.708 72.9814C105.238 72.9723 105.804 72.9723 106.407 72.9723C106.937 72.9723 107.457 72.9723 107.969 72.9814C108.48 72.9906 108.909 72.9997 109.247 73.0271V72.6526C108.845 72.6252 108.544 72.5796 108.343 72.5065C108.142 72.4335 108.005 72.2782 107.941 72.059C107.868 71.8307 107.841 71.4928 107.841 71.0453V66.3603C108.014 66.3786 108.16 66.406 108.27 66.4517C108.407 66.5065 108.544 66.6069 108.681 66.753C108.818 66.8992 108.973 67.1092 109.147 67.4014L111.868 71.8125C112.069 72.1138 112.115 72.3239 112.005 72.4426C111.896 72.5613 111.585 72.6344 111.074 72.6618V73.0362C111.649 73.0088 112.124 72.9997 112.498 72.9905C112.873 72.9814 113.192 72.9814 113.457 72.9814C113.896 72.9814 114.38 72.9814 114.919 72.9905C115.275 72.9905 115.603 73.0088 115.914 73.0179V73.0362C115.96 73.0271 116.005 73.0271 116.06 73.0179C116.17 73.0271 116.288 73.0271 116.389 73.0362V72.9997C116.444 72.9997 116.508 72.9905 116.572 72.9905C116.818 72.9814 117.074 72.9814 117.348 72.9814C117.731 72.9814 118.115 72.9814 118.489 72.9905C118.864 72.9997 119.256 73.0088 119.677 73.0362V72.6618C119.302 72.6527 118.982 72.5979 118.709 72.4974C118.435 72.4061 118.243 72.2417 118.124 71.9951C118.005 71.7577 117.978 71.4198 118.033 70.9814C118.088 70.543 118.252 69.9768 118.535 69.2919L119.028 67.9951H123.12L124.243 71.0727C124.489 71.712 124.535 72.1321 124.362 72.3239C124.188 72.5157 123.786 72.6252 123.147 72.6526V73.0271C123.448 72.9997 123.85 72.9906 124.371 72.9814C124.882 72.9723 125.43 72.9723 126.005 72.9723C126.517 72.9723 127.028 72.9723 127.54 72.9814C128.051 72.9906 128.489 72.9997 128.864 73.0271V72.6526C128.69 72.6435 128.489 72.5522 128.27 72.3787C128.069 72.2234 127.868 71.9129 127.695 71.4563ZM119.183 67.6298L121.129 62.5521L122.983 67.6298H119.183Z" fill="#858585"/>
<path d="M141.138 72.2965C141.028 72.3696 140.9 72.4061 140.736 72.4152C140.498 72.4152 140.316 72.3147 140.188 72.1138C140.06 71.9129 139.941 71.5659 139.832 71.0636L139.403 69.1275C139.238 68.3512 138.882 67.7668 138.343 67.3832C137.804 66.9996 136.964 66.753 135.823 66.6526C136.316 66.5978 136.763 66.5156 137.147 66.3969C137.877 66.1777 138.444 65.8855 138.864 65.511C139.284 65.1457 139.585 64.7439 139.759 64.3055C139.932 63.8763 140.024 63.4471 140.024 63.0178C140.024 62.3329 139.832 61.7393 139.448 61.2553C139.065 60.7712 138.489 60.3968 137.722 60.1411C136.955 59.8854 135.987 59.7575 134.818 59.7575C134.581 59.7575 134.179 59.7667 133.613 59.7758C133.046 59.7849 132.471 59.7941 131.868 59.7941C131.339 59.7941 130.809 59.7849 130.279 59.7758C129.749 59.7667 129.32 59.7484 129.01 59.7393V60.1137C129.393 60.1228 129.695 60.1776 129.905 60.2507C130.115 60.3329 130.252 60.479 130.316 60.6982C130.389 60.9174 130.416 61.2553 130.416 61.721V71.0453C130.416 71.4928 130.38 71.8307 130.316 72.059C130.243 72.2874 130.115 72.4335 129.914 72.5065C129.713 72.5796 129.412 72.6344 129.01 72.6526V73.0271C129.32 72.9997 129.749 72.9906 130.279 72.9814C130.809 72.9723 131.375 72.9723 131.978 72.9723C132.508 72.9723 133.028 72.9723 133.539 72.9814C134.051 72.9906 134.48 72.9997 134.818 73.0271V72.6526C134.416 72.6253 134.115 72.5796 133.914 72.5065C133.713 72.4335 133.576 72.2782 133.512 72.059C133.439 71.8307 133.412 71.4928 133.412 71.0453V66.7256H134.407H134.635C135.019 66.7256 135.329 66.8444 135.549 67.0727C135.768 67.301 135.941 67.6206 136.069 68.0133C136.197 68.406 136.297 68.8718 136.389 69.3923L136.727 71.2737C136.864 72.0499 137.156 72.5796 137.594 72.8718C138.033 73.1641 138.59 73.3011 139.266 73.3011C139.814 73.3011 140.288 73.2189 140.672 73.0453C141.056 72.8718 141.421 72.5979 141.759 72.2052L141.494 71.9769C141.357 72.123 141.247 72.2234 141.138 72.2965ZM133.622 60.4333C133.768 60.2233 134.078 60.1137 134.571 60.1137C135.421 60.1137 136.024 60.3877 136.38 60.9356C136.727 61.4836 136.909 62.2507 136.909 63.237C136.909 63.8124 136.836 64.3329 136.69 64.8078C136.544 65.2736 136.279 65.6571 135.905 65.9311C135.521 66.2142 134.964 66.3512 134.224 66.3512H133.421V61.7302C133.402 61.0726 133.476 60.6434 133.622 60.4333Z" fill="#858585"/>
<path d="M152.288 59.7941C151.95 59.7941 151.585 59.7849 151.202 59.7758C150.809 59.7667 150.498 59.7484 150.261 59.7393V60.1137C150.791 60.1685 151.174 60.269 151.439 60.4333C151.695 60.5977 151.868 60.8626 151.96 61.2279C152.051 61.6023 152.087 62.1229 152.087 62.8169V67.7759C152.087 68.7257 151.987 69.575 151.777 70.3056C151.567 71.0362 151.22 71.6115 150.727 72.0225C150.234 72.4335 149.549 72.6435 148.672 72.6435C148.17 72.6435 147.75 72.5613 147.412 72.3969C147.074 72.2326 146.809 71.9951 146.617 71.6755C146.425 71.3558 146.288 70.954 146.206 70.47C146.124 69.986 146.087 69.438 146.087 68.8079V61.721C146.087 61.2553 146.124 60.9174 146.197 60.6982C146.27 60.479 146.416 60.3329 146.635 60.2507C146.855 60.1685 147.174 60.1228 147.603 60.1137V59.7393C147.256 59.7484 146.809 59.7667 146.279 59.7758C145.749 59.7849 145.192 59.7941 144.617 59.7941C144.042 59.7941 143.485 59.7849 142.955 59.7758C142.425 59.7667 141.996 59.7484 141.686 59.7393V60.1137C142.087 60.1228 142.389 60.1776 142.59 60.2507C142.791 60.3329 142.928 60.479 142.991 60.6982C143.065 60.9174 143.092 61.2553 143.092 61.721V67.6206C143.092 68.4243 143.128 69.1184 143.202 69.6937C143.275 70.2782 143.421 70.7805 143.631 71.2097C143.841 71.639 144.151 72.0134 144.553 72.3604C145.028 72.7257 145.567 72.9723 146.17 73.1002C146.772 73.228 147.357 73.3011 147.932 73.3011C148.9 73.3011 149.695 73.1458 150.316 72.8353C150.946 72.5248 151.421 72.0956 151.74 71.5568C152.033 71.0727 152.224 70.4883 152.343 69.8124C152.453 69.1366 152.517 68.3878 152.517 67.575V62.5977C152.517 61.9859 152.544 61.511 152.608 61.1731C152.672 60.8352 152.809 60.5886 153.01 60.4333C153.22 60.2781 153.521 60.1776 153.923 60.1228V59.7484C153.722 59.7575 153.476 59.7758 153.183 59.7849C152.891 59.7849 152.59 59.7941 152.288 59.7941Z" fill="#858585"/>
<path d="M168.106 59.7939C167.878 59.7939 167.659 59.7939 167.431 59.7939C167.202 59.7939 166.983 59.7939 166.773 59.7939L163.312 68.8808L159.522 59.7391C159.12 59.7482 158.663 59.7665 158.143 59.7756C157.622 59.7848 157.092 59.7939 156.554 59.7939C156.261 59.7939 155.969 59.7848 155.668 59.7756C155.366 59.7665 155.12 59.7482 154.919 59.7391V60.1135C155.303 60.1227 155.604 60.1775 155.814 60.2505C156.024 60.3327 156.161 60.4788 156.225 60.698C156.298 60.9172 156.325 61.2551 156.325 61.7209V70.1776C156.325 70.7803 156.289 71.2552 156.225 71.5931C156.152 71.9402 156.024 72.1867 155.823 72.3329C155.622 72.479 155.321 72.5886 154.919 72.6525V73.0269C155.12 72.9995 155.366 72.9904 155.668 72.9813C155.969 72.9722 156.261 72.9721 156.554 72.9721C156.892 72.9721 157.257 72.9722 157.64 72.9813C158.024 72.9904 158.344 72.9995 158.581 73.0269V72.6525C158.033 72.5886 157.622 72.479 157.366 72.3237C157.111 72.1685 156.946 71.9036 156.864 71.5383C156.791 71.173 156.755 70.6434 156.755 69.9493V60.9537L161.823 73.0543H162.124L166.654 61.2186V71.0361C166.654 71.4835 166.618 71.8214 166.545 72.0497C166.472 72.2781 166.325 72.4242 166.106 72.4973C165.887 72.5703 165.567 72.6251 165.138 72.6434V73.0178C165.467 72.9904 165.887 72.9813 166.417 72.9721C166.946 72.963 167.504 72.963 168.106 72.963C168.654 72.963 169.202 72.963 169.732 72.9721C170.262 72.9813 170.709 72.9904 171.056 73.0178V72.6434C170.654 72.616 170.353 72.5703 170.152 72.4973C169.951 72.4242 169.814 72.2689 169.75 72.0497C169.677 71.8214 169.65 71.4835 169.65 71.0361V61.7117C169.65 61.246 169.686 60.9081 169.75 60.6889C169.823 60.4697 169.951 60.3236 170.152 60.2414C170.353 60.1592 170.654 60.1135 171.056 60.1044V59.73C170.709 59.7391 170.262 59.7574 169.732 59.7665C169.202 59.7848 168.663 59.7939 168.106 59.7939Z" fill="#858585"/>
<path d="M182.636 71.4015C182.627 70.8718 182.618 70.47 182.618 70.1777C182.618 69.5293 182.636 68.9996 182.673 68.5978H182.243C182.079 69.6024 181.842 70.3969 181.54 70.9814C181.23 71.575 180.864 71.986 180.435 72.2326C180.006 72.4791 179.504 72.5979 178.937 72.5979H178.015C177.65 72.5979 177.376 72.5705 177.184 72.5065C176.992 72.4426 176.874 72.3148 176.81 72.123C176.746 71.9312 176.718 71.6481 176.718 71.2645V66.5339H177.321C177.823 66.5339 178.225 66.6526 178.545 66.8809C178.855 67.1092 179.102 67.4197 179.266 67.7941C179.44 68.1686 179.549 68.5796 179.613 69.0179H180.043C179.997 68.3056 179.96 67.7576 179.951 67.3832C179.942 67.0088 179.933 66.6617 179.933 66.3512C179.933 66.0407 179.933 65.6937 179.924 65.3192C179.915 64.9448 179.942 64.3969 179.988 63.6845H179.558C179.513 63.9311 179.431 64.2051 179.33 64.4882C179.23 64.7804 179.093 65.0453 178.928 65.3101C178.755 65.5658 178.545 65.7759 178.28 65.9311C178.015 66.0864 177.695 66.1686 177.321 66.1686H176.718V61.511C176.718 61.1183 176.746 60.8352 176.81 60.6434C176.874 60.4516 177.001 60.3329 177.184 60.2689C177.376 60.205 177.65 60.1776 178.015 60.1776H178.782C179.348 60.1776 179.842 60.2872 180.262 60.5064C180.682 60.7256 181.02 61.1 181.285 61.6297C181.549 62.1594 181.741 62.89 181.869 63.8032H182.298C182.289 63.6571 182.271 63.4653 182.262 63.237C182.253 63.0087 182.243 62.7713 182.243 62.5247C182.243 62.2507 182.253 61.858 182.271 61.3374C182.289 60.826 182.326 60.2963 182.371 59.7393C181.796 59.7667 181.138 59.7758 180.408 59.7849C179.677 59.7941 179.02 59.7941 178.444 59.7941C178.134 59.7941 177.732 59.7941 177.239 59.7941C176.746 59.7941 176.225 59.7941 175.659 59.7849C175.093 59.7758 174.526 59.7758 173.951 59.7667C173.376 59.7575 172.828 59.7484 172.316 59.7393V60.1137C172.7 60.1228 173.001 60.1776 173.211 60.2507C173.421 60.3329 173.558 60.479 173.622 60.6982C173.695 60.9174 173.723 61.2553 173.723 61.721V71.0453C173.723 71.4928 173.686 71.8307 173.622 72.059C173.549 72.2874 173.421 72.4335 173.221 72.5065C173.02 72.5796 172.718 72.6344 172.316 72.6526V73.0271C172.828 73.018 173.376 73.0088 173.951 72.9997C174.526 72.9906 175.102 72.9906 175.659 72.9814C176.225 72.9723 176.746 72.9723 177.239 72.9723C177.732 72.9723 178.125 72.9723 178.444 72.9723C179.074 72.9723 179.787 72.9723 180.59 72.9814C181.394 72.9906 182.116 72.9997 182.755 73.0271C182.682 72.47 182.645 71.9312 182.636 71.4015Z" fill="#858585"/>
<path d="M115.028 76.9265C114.48 76.9356 113.859 76.9539 113.165 76.9631C112.48 76.9722 111.786 76.9813 111.11 76.9813C110.425 76.9813 109.804 76.9813 109.238 76.9813C108.69 76.9813 108.069 76.9813 107.375 76.9813C106.69 76.9813 105.996 76.9722 105.32 76.9631C104.635 76.9539 104.005 76.9356 103.43 76.9265C103.475 77.5658 103.512 78.1777 103.53 78.7713C103.548 79.3558 103.558 79.8124 103.558 80.1229C103.558 80.3969 103.558 80.6617 103.548 80.9083C103.539 81.1549 103.53 81.3741 103.503 81.5476H103.932C104.16 80.4791 104.416 79.648 104.717 79.0362C105.019 78.4243 105.384 77.995 105.804 77.7393C106.233 77.4836 106.727 77.3557 107.311 77.3557H107.722V88.0865C107.722 88.5888 107.667 88.9632 107.576 89.2098C107.475 89.4564 107.284 89.6299 106.991 89.712C106.699 89.7942 106.279 89.8399 105.713 89.8491V90.2235C106.087 90.2144 106.58 90.1961 107.201 90.187C107.813 90.1778 108.471 90.1687 109.156 90.1687C109.859 90.1687 110.535 90.1778 111.174 90.187C111.822 90.1961 112.334 90.2144 112.727 90.2235V89.8491C112.179 89.8399 111.759 89.7942 111.466 89.712C111.174 89.6299 110.982 89.4655 110.873 89.2098C110.763 88.9632 110.717 88.5796 110.717 88.0865V77.3557H111.147C111.722 77.3557 112.224 77.4836 112.654 77.7393C113.083 77.995 113.448 78.4334 113.749 79.0453C114.06 79.6571 114.307 80.4882 114.507 81.5476H114.937C114.928 81.3741 114.909 81.164 114.9 80.9083C114.891 80.6617 114.882 80.3969 114.882 80.1229C114.882 79.8124 114.891 79.3558 114.909 78.7713C114.946 78.1777 114.982 77.5658 115.028 76.9265Z" fill="#858585"/>
<path d="M128.289 89.4928C128.179 89.5658 128.051 89.6024 127.887 89.6115C127.649 89.6115 127.467 89.5111 127.339 89.3101C127.211 89.1092 127.092 88.7622 126.983 88.2599L126.553 86.3238C126.389 85.5475 126.033 84.963 125.494 84.5795C124.955 84.1959 124.115 83.9493 122.973 83.8489C123.467 83.7941 123.914 83.7119 124.298 83.5932C125.028 83.374 125.595 83.0817 126.015 82.7073C126.435 82.342 126.736 81.9402 126.91 81.5018C127.083 81.0726 127.174 80.6433 127.174 80.2141C127.174 79.5292 126.983 78.9356 126.599 78.4515C126.216 77.9675 125.64 77.5931 124.873 77.3374C124.106 77.0817 123.138 76.9538 121.969 76.9538C121.731 76.9538 121.33 76.963 120.763 76.9721C120.197 76.9812 119.622 76.9903 119.019 76.9903C118.489 76.9903 117.96 76.9812 117.43 76.9721C116.9 76.963 116.471 76.9447 116.161 76.9355V77.31C116.544 77.3191 116.846 77.3739 117.056 77.447C117.266 77.5292 117.403 77.6753 117.467 77.8945C117.54 78.1137 117.567 78.4516 117.567 78.9173V88.2416C117.567 88.6891 117.531 89.027 117.467 89.2553C117.394 89.4836 117.266 89.6298 117.065 89.7028C116.864 89.7759 116.562 89.8307 116.161 89.849V90.2234C116.471 90.196 116.9 90.1868 117.43 90.1777C117.96 90.1686 118.526 90.1686 119.129 90.1686C119.658 90.1686 120.179 90.1686 120.69 90.1777C121.202 90.1868 121.631 90.196 121.969 90.2234V89.849C121.567 89.8216 121.266 89.7759 121.065 89.7028C120.864 89.6298 120.727 89.4745 120.663 89.2553C120.59 89.027 120.563 88.6891 120.563 88.2416V83.9219H121.558H121.786C122.17 83.9219 122.48 84.0407 122.7 84.269C122.919 84.4973 123.092 84.8169 123.22 85.2096C123.348 85.6023 123.448 86.0681 123.54 86.5886L123.878 88.4699C124.015 89.2462 124.307 89.7759 124.745 90.0681C125.184 90.3604 125.741 90.4974 126.416 90.4974C126.964 90.4974 127.439 90.4152 127.823 90.2416C128.206 90.0681 128.572 89.7941 128.91 89.4014L128.636 89.1823C128.508 89.3193 128.389 89.4197 128.289 89.4928ZM120.773 77.6205C120.919 77.4104 121.229 77.3008 121.722 77.3008C122.572 77.3008 123.174 77.5748 123.531 78.1228C123.878 78.6707 124.06 79.4379 124.06 80.4242C124.06 80.9995 123.987 81.5201 123.841 81.995C123.695 82.4607 123.43 82.8443 123.056 83.1183C122.672 83.4014 122.115 83.5384 121.375 83.5384H120.572V78.9173C120.553 78.2689 120.626 77.8397 120.773 77.6205Z" fill="#858585"/>
<path d="M139.439 76.9813C139.101 76.9813 138.736 76.9722 138.353 76.9631C137.96 76.9539 137.649 76.9356 137.412 76.9265V77.301C137.942 77.3557 138.325 77.4562 138.59 77.6206C138.846 77.785 139.019 78.0498 139.111 78.4151C139.202 78.7896 139.238 79.3101 139.238 80.0042V84.9632C139.238 85.9129 139.138 86.7623 138.928 87.4929C138.718 88.2235 138.371 88.7988 137.878 89.2098C137.384 89.6207 136.699 89.8308 135.823 89.8308C135.32 89.8308 134.9 89.7486 134.562 89.5842C134.225 89.4198 133.96 89.1824 133.768 88.8627C133.576 88.5431 133.439 88.1413 133.357 87.6572C133.275 87.1732 133.238 86.6253 133.238 85.9951V78.9083C133.238 78.4425 133.275 78.1046 133.348 77.8854C133.421 77.6663 133.567 77.5202 133.786 77.438C134.005 77.3558 134.325 77.3101 134.754 77.301V76.9265C134.407 76.9356 133.96 76.9539 133.43 76.9631C132.9 76.9722 132.343 76.9813 131.768 76.9813C131.193 76.9813 130.635 76.9722 130.106 76.9631C129.576 76.9539 129.147 76.9356 128.836 76.9265V77.301C129.238 77.3101 129.54 77.3649 129.741 77.438C129.941 77.5202 130.078 77.6663 130.142 77.8854C130.215 78.1046 130.243 78.4425 130.243 78.9083V84.8079C130.243 85.6116 130.279 86.3056 130.352 86.881C130.425 87.4655 130.572 87.9678 130.782 88.397C130.992 88.8262 131.302 89.2006 131.704 89.5477C132.179 89.913 132.718 90.1595 133.32 90.2874C133.923 90.4153 134.508 90.4883 135.083 90.4883C136.051 90.4883 136.846 90.3331 137.467 90.0226C138.097 89.7121 138.572 89.2828 138.891 88.744C139.184 88.26 139.375 87.6755 139.494 86.9997C139.604 86.3239 139.668 85.575 139.668 84.7622V79.785C139.668 79.1731 139.695 78.6982 139.759 78.3603C139.823 78.0224 139.96 77.7758 140.161 77.6206C140.371 77.4653 140.672 77.3649 141.074 77.3101V76.9357C140.873 76.9448 140.626 76.9631 140.334 76.9722C140.033 76.9813 139.741 76.9813 139.439 76.9813Z" fill="#858585"/>
<path d="M150.033 83.7668C149.558 83.3832 149.019 82.9905 148.417 82.5978C147.732 82.1229 147.138 81.712 146.663 81.3741C146.179 81.0362 145.814 80.6891 145.567 80.3329C145.321 79.9768 145.193 79.5475 145.193 79.0453C145.193 78.4425 145.385 77.9767 145.777 77.6388C146.161 77.3009 146.663 77.1274 147.266 77.1274C147.933 77.1274 148.49 77.3284 148.946 77.7211C149.403 78.1138 149.759 78.616 150.006 79.237C150.252 79.8489 150.407 80.4791 150.453 81.1366H150.882C150.882 80.2599 150.882 79.5567 150.891 79.0179C150.901 78.479 150.91 78.0407 150.928 77.7119C150.946 77.3831 150.965 77.0909 150.974 76.8535H150.544C150.508 77.1274 150.462 77.3375 150.407 77.4745C150.353 77.6114 150.261 77.6845 150.133 77.6845C150.042 77.6845 149.951 77.6662 149.859 77.6206C149.768 77.5749 149.64 77.511 149.494 77.4197C149.202 77.2461 148.864 77.0818 148.462 76.9174C148.06 76.7621 147.494 76.6799 146.754 76.6799C146.024 76.6799 145.339 76.7986 144.7 77.0452C144.051 77.2918 143.531 77.6662 143.138 78.1685C142.745 78.68 142.544 79.3284 142.544 80.1138C142.544 80.7987 142.7 81.4014 143.001 81.8946C143.311 82.3969 143.722 82.8444 144.234 83.228C144.745 83.6207 145.302 84.0042 145.887 84.3969C146.435 84.744 146.919 85.091 147.339 85.4289C147.759 85.7668 148.088 86.1321 148.334 86.5157C148.581 86.9084 148.7 87.365 148.7 87.8855C148.7 88.3513 148.59 88.7349 148.38 89.0545C148.17 89.365 147.887 89.6025 147.54 89.7577C147.193 89.913 146.8 89.9952 146.362 89.9952C145.558 89.9952 144.919 89.776 144.435 89.3376C143.951 88.8993 143.595 88.3239 143.366 87.6024C143.138 86.881 142.992 86.1047 142.946 85.2828H142.517C142.517 86.2691 142.517 87.091 142.508 87.7394C142.499 88.3878 142.499 88.9084 142.489 89.3102C142.48 89.7121 142.471 90.0591 142.444 90.3605H142.873C142.91 90.0865 142.955 89.8764 143.01 89.7394C143.065 89.6024 143.156 89.5294 143.284 89.5294C143.43 89.5294 143.649 89.6207 143.923 89.7943C144.234 89.9586 144.627 90.1139 145.092 90.26C145.558 90.4061 146.179 90.4883 146.955 90.4883C147.796 90.4883 148.563 90.3513 149.266 90.0865C149.969 89.8216 150.535 89.4107 150.965 88.8719C151.394 88.333 151.613 87.6481 151.613 86.8262C151.613 86.1504 151.467 85.5659 151.184 85.0819C150.891 84.5978 150.508 84.1595 150.033 83.7668Z" fill="#858585"/>
<path d="M164.316 80.1229C164.316 79.8124 164.325 79.3558 164.344 78.7713C164.362 78.1868 164.398 77.5658 164.444 76.9265C163.896 76.9356 163.275 76.9539 162.581 76.9631C161.896 76.9722 161.202 76.9813 160.526 76.9813C159.841 76.9813 159.22 76.9813 158.654 76.9813C158.106 76.9813 157.485 76.9813 156.791 76.9813C156.106 76.9813 155.412 76.9722 154.736 76.9631C154.051 76.9539 153.421 76.9356 152.846 76.9265C152.891 77.5658 152.928 78.1777 152.946 78.7713C152.964 79.3558 152.974 79.8124 152.974 80.1229C152.974 80.3969 152.974 80.6617 152.964 80.9083C152.955 81.1549 152.946 81.3741 152.919 81.5476H153.348C153.576 80.4791 153.832 79.648 154.133 79.0362C154.435 78.4243 154.8 77.995 155.22 77.7393C155.649 77.4836 156.143 77.3557 156.727 77.3557H157.138V88.0865C157.138 88.5888 157.083 88.9632 156.992 89.2098C156.891 89.4564 156.7 89.6299 156.407 89.712C156.115 89.7942 155.695 89.8399 155.129 89.8491V90.2235C155.503 90.2144 155.996 90.1961 156.617 90.187C157.229 90.1778 157.887 90.1687 158.572 90.1687C159.275 90.1687 159.951 90.1778 160.59 90.187C161.238 90.1961 161.75 90.2144 162.143 90.2235V89.8491C161.595 89.8399 161.175 89.7942 160.882 89.712C160.59 89.6299 160.398 89.4655 160.289 89.2098C160.179 88.9632 160.133 88.5796 160.133 88.0865V77.3557H160.563C161.138 77.3557 161.64 77.4836 162.07 77.7393C162.499 77.995 162.864 78.4334 163.165 79.0453C163.476 79.6571 163.723 80.4882 163.923 81.5476H164.353C164.344 81.3741 164.325 81.164 164.316 80.9083C164.316 80.6617 164.316 80.3969 164.316 80.1229Z" fill="#858585"/>
<path d="M111.685 39.3553C111.567 39.6932 111.457 39.9215 111.348 40.0494C111.238 40.1681 111.138 40.232 111.028 40.232C110.927 40.232 110.873 40.2047 110.845 40.1499C110.818 40.0951 110.818 40.022 110.836 39.9398C110.854 39.8576 110.873 39.7754 110.9 39.7024L111.731 37.2183C111.804 36.99 111.841 36.78 111.85 36.5882C111.859 36.3964 111.804 36.232 111.704 36.1133C111.603 35.9946 111.421 35.9306 111.165 35.9306C110.946 35.9306 110.736 35.9854 110.526 36.1042C110.325 36.2137 110.124 36.4055 109.932 36.6521C109.74 36.9078 109.539 37.2366 109.348 37.6567C109.274 37.8028 109.211 37.9581 109.137 38.1316L110.389 33.6658C110.279 33.7023 110.16 33.7297 110.023 33.748C109.886 33.7662 109.749 33.7754 109.612 33.7845L109.421 34.4877C109.284 34.5516 109.156 34.6064 109.028 34.6338C108.827 34.6795 108.571 34.6977 108.27 34.6977C107.886 34.6977 107.521 34.6703 107.183 34.6155C106.845 34.5608 106.498 34.506 106.16 34.4512C105.822 34.3964 105.448 34.369 105.046 34.369C104.982 34.369 104.882 34.369 104.754 34.3781C104.617 34.3872 104.48 34.3964 104.325 34.4329C104.179 34.4603 104.032 34.506 103.905 34.5699C103.731 34.6521 103.612 34.7617 103.548 34.8804C103.484 34.9991 103.457 35.1178 103.457 35.2366C103.457 35.3644 103.484 35.4649 103.548 35.5471C103.612 35.6293 103.704 35.6658 103.831 35.6658C103.978 35.6658 104.087 35.611 104.151 35.5014C104.215 35.3918 104.252 35.2822 104.252 35.1726C104.252 35.0904 104.233 34.9991 104.206 34.9078C104.179 34.8165 104.142 34.7343 104.096 34.6795C104.188 34.6156 104.325 34.579 104.507 34.5608C104.69 34.5425 104.873 34.5334 105.046 34.5334C105.293 34.5334 105.548 34.5516 105.804 34.5882C105.914 34.6064 106.032 34.6247 106.142 34.6429L104.863 39.4649C104.8 39.6658 104.736 39.8302 104.653 39.9489C104.58 40.0677 104.471 40.1499 104.334 40.1955C104.197 40.2412 104.014 40.2777 103.777 40.2869L103.74 40.4604C103.877 40.4512 104.06 40.4421 104.279 40.4421C104.507 40.4421 104.736 40.4421 104.982 40.4421C105.229 40.4421 105.466 40.4421 105.685 40.4421C105.914 40.4421 106.096 40.4512 106.252 40.4604L106.288 40.2869C106.051 40.2777 105.877 40.2595 105.768 40.2138C105.658 40.1681 105.594 40.0859 105.585 39.9672C105.576 39.8485 105.594 39.6841 105.649 39.4649L106.9 34.7617C107.055 34.7891 107.211 34.8073 107.375 34.8347C107.649 34.8713 107.923 34.8895 108.206 34.8895C108.526 34.8895 108.8 34.8621 109.028 34.8165C109.137 34.7891 109.247 34.7617 109.357 34.716L107.749 40.4604C107.85 40.4604 107.941 40.4604 108.014 40.4604C108.087 40.4604 108.16 40.4604 108.233 40.4604C108.306 40.4604 108.389 40.4604 108.489 40.4604L108.608 40.0494C108.754 39.5471 108.909 39.0814 109.074 38.6521C109.265 38.159 109.475 37.7297 109.685 37.3736C109.895 37.0174 110.106 36.7343 110.306 36.5334C110.507 36.3325 110.708 36.232 110.882 36.232C111.01 36.232 111.092 36.2685 111.128 36.3507C111.165 36.4238 111.174 36.5243 111.147 36.6338C111.128 36.7434 111.101 36.853 111.064 36.9535L110.252 39.3919C110.179 39.6202 110.133 39.8211 110.124 40.0037C110.106 40.1864 110.151 40.3234 110.242 40.433C110.334 40.5334 110.489 40.5882 110.717 40.5882C110.836 40.5882 110.955 40.5608 111.083 40.5152C111.211 40.4695 111.329 40.3782 111.448 40.2594C111.567 40.1316 111.667 39.9489 111.749 39.7115L111.959 39.0905H111.795L111.685 39.3553Z" fill="#858585"/>
<path d="M115.75 36.0676C115.631 35.9763 115.476 35.9307 115.302 35.9307C114.982 35.9307 114.672 36.0037 114.389 36.159C114.106 36.3142 113.85 36.5151 113.613 36.7709C113.375 37.0266 113.183 37.3097 113.01 37.611C112.845 37.9124 112.708 38.2229 112.626 38.5243C112.535 38.8257 112.489 39.0996 112.489 39.3462C112.489 39.6111 112.535 39.8302 112.626 40.0038C112.718 40.1864 112.845 40.3143 113.019 40.4056C113.192 40.4969 113.384 40.5426 113.613 40.5426C113.859 40.5426 114.087 40.4878 114.307 40.3782C114.526 40.2686 114.727 40.1225 114.9 39.949C115.074 39.7755 115.22 39.5928 115.329 39.401L115.193 39.3371C114.973 39.6567 114.754 39.8759 114.526 40.0038C114.297 40.1316 114.078 40.1956 113.877 40.1956C113.704 40.1956 113.558 40.1316 113.448 40.0038C113.339 39.8759 113.284 39.6659 113.284 39.3736C113.284 39.0997 113.32 38.8257 113.384 38.5426C113.494 38.506 113.613 38.4604 113.74 38.4147C113.987 38.3234 114.234 38.2138 114.489 38.0951C114.745 37.9672 114.982 37.8302 115.202 37.6658C115.421 37.5015 115.594 37.3279 115.731 37.127C115.868 36.9352 115.932 36.7161 115.932 36.4969C115.932 36.296 115.868 36.159 115.75 36.0676ZM115.065 37.2366C114.946 37.4649 114.782 37.6658 114.581 37.8302C114.425 37.949 114.224 38.0585 113.96 38.1681C113.795 38.2321 113.613 38.3051 113.421 38.3782C113.503 38.0859 113.594 37.8028 113.722 37.538C113.859 37.264 114.005 37.0083 114.161 36.7891C114.316 36.5699 114.48 36.3964 114.645 36.2777C114.809 36.1498 114.964 36.0859 115.101 36.0859C115.147 36.0859 115.183 36.1042 115.202 36.1498C115.22 36.1955 115.238 36.296 115.238 36.4695C115.247 36.7435 115.183 36.9992 115.065 37.2366Z" fill="#858585"/>
</svg>
