<svg width="211" height="111" viewBox="0 0 211 111" fill="none" xmlns="http://www.w3.org/2000/svg">
<path d="M207.29 65.2607C206.934 65.2607 206.615 65.2881 206.295 65.2516C206.167 65.2333 206.021 65.1055 205.939 64.9867C205.117 63.9182 204.304 62.8406 203.482 61.7721C203.409 61.6716 203.318 61.5712 203.172 61.3885V65.2425H201.829V59.078C202.213 59.078 202.596 59.0597 202.962 59.0871C203.062 59.0962 203.181 59.2241 203.254 59.3246C204.048 60.3657 204.834 61.3977 205.637 62.4388C205.72 62.5392 205.802 62.6397 205.948 62.8223V59.0963H207.29V65.2607Z" fill="#858585"/>
<path d="M196.633 60.238C195.583 60.238 194.797 61.0782 194.806 62.1832C194.815 63.27 195.628 64.1102 196.678 64.1102C197.71 64.1011 198.505 63.27 198.514 62.2015C198.523 61.0965 197.692 60.238 196.633 60.238ZM196.706 65.3705C194.879 65.4253 193.409 64.0554 193.363 62.2563C193.318 60.4389 194.724 58.996 196.605 58.9503C198.45 58.9047 199.911 60.2745 199.948 62.1102C199.994 63.9184 198.587 65.3157 196.706 65.3705Z" fill="#858585"/>
<path d="M150.641 62.1739C150.65 63.2607 151.463 64.1009 152.504 64.1009C153.545 64.1009 154.358 63.2516 154.34 62.1557C154.331 61.0689 153.518 60.2287 152.468 60.2287C151.418 60.2287 150.632 61.0597 150.641 62.1739ZM155.774 62.1739C155.774 63.9913 154.34 65.3794 152.477 65.3794C150.605 65.3703 149.189 63.9913 149.198 62.1648C149.198 60.3565 150.65 58.9593 152.495 58.9593C154.367 58.9501 155.774 60.3383 155.774 62.1739Z" fill="#858585"/>
<path d="M174.55 59.0964V60.2745H171.29V61.5074H174.13V62.7312H171.29V64.028H174.578V65.2244H169.902V59.0964H174.55Z" fill="#858585"/>
<path d="M181.847 59.9457C181.564 60.2745 181.29 60.5941 181.025 60.8955C179.6 60.0462 178.76 60.0371 178.075 60.859C177.454 61.6079 177.482 62.8225 178.139 63.5348C178.852 64.3111 179.765 64.2654 181.043 63.3887C181.308 63.6718 181.582 63.9549 181.856 64.238C181.363 65.0874 179.911 65.5622 178.66 65.2883C177.326 64.996 176.34 63.891 176.212 62.5576C176.066 61.0599 176.797 59.7631 178.094 59.2151C179.39 58.6763 181.007 58.9777 181.847 59.9457Z" fill="#858585"/>
<path d="M147.043 63.3978C147.335 63.6809 147.609 63.9458 147.892 64.2197C147.244 65.1787 145.764 65.617 144.458 65.2426C143.134 64.8682 142.248 63.7083 142.203 62.2745C142.157 60.8773 142.961 59.6443 144.221 59.1695C145.518 58.6854 147.098 59.0233 147.846 59.9549C147.582 60.2654 147.308 60.5759 147.006 60.9229C146.422 60.4389 145.782 60.0462 145.015 60.3019C144.641 60.4206 144.257 60.6763 144.011 60.9868C143.399 61.7448 143.527 62.9412 144.212 63.617C144.933 64.3202 145.883 64.2563 147.043 63.3978Z" fill="#858585"/>
<path d="M185.089 60.3384H183.226V59.0964H188.304V60.311H186.459V65.2426H185.08V60.3384H185.089Z" fill="#858585"/>
<path d="M158.988 64.0097H162.057V65.2426H157.655V59.0964H158.988V64.0097Z" fill="#858585"/>
<path d="M163.783 65.2335V59.0964H165.125V64.0006H168.194V65.2335H163.783Z" fill="#858585"/>
<path d="M191.427 59.0964H190.112V65.2426H191.427V59.0964Z" fill="#858585"/>
<path d="M172.678 51.4434C172.687 50.3383 171.893 49.489 170.842 49.4799C169.783 49.4616 168.97 50.2927 168.961 51.3977C168.952 52.4845 169.765 53.3521 170.806 53.3612C171.865 53.3704 172.669 52.5484 172.678 51.4434ZM167.509 51.3612C167.546 49.5347 169.025 48.1465 170.87 48.1831C172.778 48.2196 174.167 49.6443 174.121 51.4982C174.084 53.2882 172.596 54.6672 170.751 54.6306C168.87 54.5941 167.472 53.1968 167.509 51.3612Z" fill="#858585"/>
<path d="M158.459 51.2791C159.052 51.2791 159.609 51.3247 160.148 51.2699C160.614 51.2243 160.861 50.8681 160.851 50.4206C160.842 49.9914 160.614 49.6626 160.148 49.6078C159.591 49.553 159.025 49.5987 158.45 49.5987V51.2791H158.459ZM160.961 52.3476C161.445 53.0508 161.911 53.7448 162.441 54.512C161.874 54.512 161.381 54.5211 160.879 54.5028C160.806 54.5028 160.724 54.3659 160.669 54.2745C160.377 53.8362 160.066 53.4069 159.792 52.9594C159.609 52.6489 159.39 52.4846 159.016 52.5394C158.842 52.5668 158.669 52.5394 158.45 52.5394V54.4937H157.089V48.2927C157.527 48.2927 157.975 48.2927 158.413 48.2927C158.979 48.2927 159.546 48.2836 160.121 48.311C161.253 48.3475 161.993 48.9046 162.194 49.8452C162.377 50.6854 162.176 51.7814 161.043 52.2654L160.961 52.3476Z" fill="#858585"/>
<path d="M149.536 48.3291H150.97V48.7766C150.97 49.7903 150.952 50.8131 150.97 51.8268C150.988 52.9775 151.673 53.5529 152.678 53.3155C153.28 53.1693 153.618 52.7127 153.627 51.973C153.637 50.9227 153.627 49.8542 153.627 48.804V48.3382H155.025C155.025 49.0414 155.034 49.7264 155.025 50.4113C155.016 51.1419 155.043 51.8817 154.933 52.594C154.76 53.7812 153.929 54.5027 152.723 54.6031C152.431 54.6214 152.13 54.6214 151.838 54.6031C150.714 54.5118 149.847 53.8634 149.719 52.7584C149.545 51.2972 149.591 49.8177 149.536 48.3291Z" fill="#858585"/>
<path d="M147.883 49.1877C147.591 49.5164 147.317 49.8361 147.025 50.174C146.458 49.7082 145.856 49.3338 145.125 49.5256C144.741 49.626 144.34 49.8635 144.075 50.1557C143.426 50.8863 143.499 52.0918 144.148 52.8041C144.86 53.5895 145.783 53.5439 147.052 52.6763C147.335 52.9594 147.618 53.2425 147.901 53.5165C146.833 54.8864 144.586 55.0507 143.235 53.8544C141.874 52.6489 141.819 50.4023 143.107 49.1237C144.385 47.8635 146.732 47.8817 147.883 49.1877Z" fill="#858585"/>
<path d="M165.555 48.3108H164.23V54.4935H165.555V48.3108Z" fill="#858585"/>
<path d="M73.4899 38.667H51.5171V42.4022H73.4899V38.667Z" fill="#858585"/>
<path d="M62.3296 36.6851C56.43 36.6851 51.6445 31.8905 51.6445 26H55.3797C55.3797 29.8357 58.5031 32.9499 62.3296 32.9499C66.1561 32.9499 69.2794 29.8265 69.2794 26H73.0147C73.0147 31.8905 68.2201 36.6851 62.3296 36.6851Z" fill="#858585"/>
<path d="M11.087 61.7172C8.84953 64.1556 6.63033 66.5757 4.41112 68.9867C4.15541 68.9319 4.06411 68.8041 4.06411 68.5666C4.06411 67.9182 4.01844 67.2607 4.00018 66.6123C3.99104 65.6168 4.33807 64.7675 5.02301 64.0369C10.2651 58.3839 15.5071 52.7308 20.7401 47.0687C21.352 46.4111 21.8451 45.6714 22.046 44.7764C22.2561 43.8175 21.8908 43.0138 21.0232 42.5298C20.4752 42.2102 19.8634 42.0823 19.2424 42.0092C18.804 41.9544 18.3565 41.9088 17.9181 41.8631C17.151 41.7901 16.5939 41.3974 16.5117 40.7672C16.4661 40.4476 16.5939 40.0914 16.6396 39.7627C16.6487 39.717 16.6852 39.6531 16.7218 39.6439C17.0962 39.5526 17.3976 39.3152 17.8177 39.3243C19.6899 39.3426 21.5529 39.306 23.4251 39.306C26.1739 39.306 28.9228 39.3152 31.6717 39.3152C32.5758 39.3152 33.4891 39.2969 34.4023 39.306C34.6124 39.306 34.8133 39.3973 35.0325 39.4339C35.206 39.4704 35.3887 39.4978 35.5713 39.58C35.48 39.5983 35.3887 39.6165 35.3247 39.6257C35.343 40.0549 35.3704 40.4841 35.3704 40.9133C35.3704 41.6074 35.1421 41.8357 34.4389 41.8449C33.4343 41.854 32.448 41.9727 31.4799 42.2558C29.4434 42.8586 27.7447 44.0001 26.3018 45.5253C22.9045 49.0778 19.5163 52.6578 16.119 56.2286C15.6259 56.7491 15.6168 57.0779 16.0734 57.7263C18.5848 61.3611 21.0962 64.9867 23.6168 68.6214C26.0552 72.1466 28.5027 75.6717 30.9594 79.1878C31.964 80.6216 33.2973 81.5896 35.0599 81.8727C35.5804 81.9549 36.1193 81.9549 36.6581 81.9732C37.6718 82.0097 38.3293 82.9321 38.0006 83.8728C37.8544 84.302 37.6261 84.4664 37.1604 84.4664C36.1649 84.4755 35.1695 84.4846 34.1649 84.4846C30.174 84.5029 26.174 84.5211 22.183 84.5394C20.7766 84.5485 19.3702 84.5577 17.9729 84.576C17.6624 84.576 17.5163 84.4846 17.5072 84.165C17.4889 83.754 17.4067 83.3431 17.3885 82.923C17.3793 82.4024 17.5528 82.1924 18.0643 82.1284C18.6031 82.0645 19.151 82.0828 19.6898 82.0371C20.6214 81.9641 21.5712 81.9275 22.4935 81.7814C23.8726 81.5622 24.2378 80.7403 23.4798 79.5531C22.7127 78.3658 21.8816 77.2243 21.078 76.0644C17.8177 71.3794 14.5665 66.7036 11.3062 62.0277C11.2423 61.9364 11.1692 61.8451 11.087 61.7172Z" fill="#858585"/>
<path d="M55.2429 69.8728C55.4255 69.4253 55.5991 69.0509 55.7361 68.6673C56.6402 66.1285 57.5443 63.5896 58.4302 61.0416C58.558 60.6672 58.6402 60.2836 58.7041 59.8909C58.7772 59.4069 58.5671 59.0325 58.1288 58.8225C57.7452 58.6398 57.3434 58.5028 56.9416 58.3658C56.5763 58.238 56.4484 57.9366 56.3662 57.5987C56.2931 57.3156 56.4849 57.1329 56.6767 56.9777C56.7863 56.8955 56.9416 56.8316 57.0785 56.8316C59.0329 56.8133 60.9873 56.8133 62.9508 56.8042C63.3526 56.8042 63.654 57.1877 63.5809 57.5896C63.5078 58.0188 63.3526 58.3202 62.8686 58.4571C61.9096 58.7311 61.243 59.4069 60.8411 60.2836C60.421 61.2243 60.074 62.2106 59.727 63.1878C58.3206 67.1513 56.9324 71.124 55.526 75.0875C55.3068 75.6994 55.0329 75.8911 54.4301 75.8546C53.9644 75.8363 53.7269 75.5532 53.5625 75.1514C53.1607 74.1468 52.7497 73.1331 52.3388 72.1285C51.2155 69.3614 50.083 66.6034 48.9597 63.8453C48.9232 63.7449 48.8775 63.6535 48.8045 63.4892C48.6218 63.9001 48.4483 64.2472 48.3113 64.6033C47.115 67.955 45.9277 71.2975 44.7405 74.6491C44.6674 74.8592 44.5944 75.0783 44.5213 75.2975C44.3843 75.6719 44.1012 75.8546 43.7085 75.882C43.2975 75.9094 42.9414 75.7998 42.7314 75.4162C42.6218 75.2062 42.5304 74.987 42.4482 74.7678C40.4026 69.8271 38.3569 64.8773 36.2929 59.9366C36.1285 59.5439 35.9093 59.1421 35.608 58.8407C35.3614 58.5941 34.9778 58.4663 34.6217 58.3475C34.4299 58.2836 34.302 58.2106 34.2472 58.0279C34.2107 57.9275 34.1742 57.8179 34.1559 57.7174C34.028 57.1969 34.3111 56.8133 34.8591 56.8133C37.1514 56.8133 39.4436 56.8224 41.7359 56.8316C42.1103 56.8316 42.2747 57.1238 42.4208 57.4069C42.5487 57.6626 42.3752 57.8361 42.2199 58.0005C41.9825 58.2562 41.7359 58.4297 41.3523 58.3841C41.0784 58.3567 40.7861 58.4297 40.5121 58.5119C40.1377 58.6307 39.9642 58.8864 40.0007 59.2791C40.0372 59.5622 40.1012 59.8453 40.2108 60.1101C41.4893 63.27 42.7861 66.4207 44.0829 69.5714C44.1195 69.6536 44.2199 69.7084 44.293 69.7723C44.3569 69.7084 44.4391 69.6536 44.4665 69.5714C45.4711 66.7221 46.4757 63.8727 47.4802 61.0234C47.6172 60.6398 47.5533 60.2837 47.3798 59.9366C46.8775 58.9412 46.083 58.3567 44.9414 58.3475C44.6309 58.3475 44.5213 58.2197 44.4665 57.9366C44.2747 56.9685 44.4117 56.795 45.4072 56.795C47.7634 56.795 50.1378 56.795 52.494 56.7859C52.558 56.7859 52.6127 56.7859 52.6675 56.7859C53.3616 56.8042 53.7178 57.3704 53.3981 57.9914C53.3068 58.1466 53.0785 58.2836 52.8867 58.3201C52.5671 58.4023 52.22 58.3932 51.8913 58.448C51.0693 58.5759 50.8228 58.9412 51.0968 59.7357C51.389 60.5942 51.7451 61.4344 52.083 62.2745C52.978 64.4846 53.8822 66.6855 54.7863 68.8865C54.9141 69.197 55.0694 69.4892 55.252 69.8545" fill="#858585"/>
<path d="M114.093 72.3569C113.965 72.4482 113.883 72.5213 113.782 72.5852C112.924 73.2427 112.084 73.9368 111.189 74.5487C109.956 75.3889 108.586 75.7999 107.07 75.6811C104.02 75.4437 101.837 73.2976 101.664 70.2382C101.563 68.4208 101.609 66.6034 101.6 64.786C101.59 63.2974 101.654 61.7997 101.6 60.3111C101.545 58.9229 100.969 58.3841 99.5813 58.238C99.3165 58.2106 99.0425 58.1924 98.7868 58.1284C98.3941 58.0371 98.2388 57.7814 98.2206 57.2974C98.2114 56.8316 98.3758 56.5485 98.7503 56.448C98.9603 56.3841 99.1795 56.375 99.3987 56.3567C100.979 56.2654 102.559 56.1741 104.138 56.0919C104.257 56.0827 104.376 56.0827 104.495 56.0919C104.933 56.1193 105.161 56.311 105.234 56.7494C105.271 56.9321 105.271 57.1238 105.271 57.3156C105.253 60.1376 105.225 62.9504 105.216 65.7723C105.216 67.0692 105.198 68.366 105.28 69.6537C105.399 71.3615 106.568 72.6948 108.157 73.051C109.198 73.2793 110.184 73.0601 111.097 72.5487C112.933 71.5259 113.91 69.9642 113.974 67.8637C114.047 65.3249 114.129 62.786 114.184 60.2472C114.203 59.2335 113.773 58.6855 112.787 58.4298C112.403 58.3293 111.992 58.2837 111.6 58.2106C111.052 58.1102 110.842 57.8362 110.86 57.2791C110.887 56.6946 111.143 56.4024 111.691 56.3567C112.257 56.3111 112.814 56.2928 113.381 56.2654C114.458 56.2015 115.536 56.1284 116.604 56.0645C116.732 56.0553 116.86 56.0553 116.988 56.0645C117.372 56.101 117.627 56.3019 117.664 56.6946C117.709 57.2608 117.709 57.8362 117.7 58.4115C117.691 60.2654 117.664 62.1285 117.664 63.9824C117.655 66.1285 117.655 68.2747 117.664 70.4208C117.664 70.8774 117.709 71.3249 117.773 71.7724C117.929 72.8409 118.486 73.325 119.563 73.3706C119.856 73.3889 120.157 73.398 120.449 73.4345C120.878 73.4893 121.015 73.6355 120.988 74.0556C120.97 74.4483 120.906 74.841 120.842 75.2245C120.833 75.2976 120.696 75.4072 120.614 75.4072C118.824 75.4072 117.034 75.398 115.244 75.3798C114.869 75.3798 114.449 74.9688 114.34 74.43C114.221 73.8364 114.184 73.2427 114.111 72.64C114.102 72.5669 114.093 72.4847 114.084 72.3569" fill="#858585"/>
<path d="M89.9009 53.7448C90.6954 53.7448 91.4534 53.7448 92.2023 53.7448C93.1064 53.7448 94.0014 53.7265 94.9055 53.7174C95.0516 53.7174 95.2069 53.7174 95.3438 53.7357C95.7 53.7905 95.9375 54.0005 95.9466 54.3567C95.9649 54.8498 95.9649 55.343 95.9283 55.8361C95.9009 56.2197 95.6452 56.4298 95.216 56.4572C94.9055 56.4754 94.6041 56.4389 94.2936 56.448C92.9603 56.4663 91.6269 56.4937 90.2936 56.5211C90.1474 56.5211 90.0013 56.5576 89.8369 56.5759V56.8864C89.8369 61.8727 89.8278 66.85 89.8278 71.8272C89.8278 72.7313 89.9556 73.6263 90.3118 74.4574C90.7776 75.5624 91.8826 76.1103 92.942 75.7816C93.6543 75.5533 94.1201 75.051 94.3484 74.3569C94.6772 73.3432 94.9603 72.3112 95.216 71.2792C95.3439 70.7587 95.3986 70.2107 95.4626 69.6811C95.5082 69.3523 96.1384 68.8409 96.522 68.8591C96.8599 68.8774 97.1795 69.3066 97.1612 69.7267C97.1156 71.2519 96.9694 72.7678 96.4763 74.2199C96.184 75.0784 95.7639 75.8638 95.2617 76.6126C94.4397 77.8181 93.2982 78.4665 91.8735 78.6675C89.5721 78.9962 87.4351 77.7634 86.7136 75.5989C86.4488 74.8227 86.257 73.9825 86.2296 73.1697C86.1474 71.0875 86.1657 69.0052 86.1657 66.9139C86.1657 64.4755 86.2022 62.028 86.2296 59.5896C86.2387 58.996 86.2479 58.4024 86.2661 57.8179C86.2661 57.7448 86.2661 57.6809 86.2661 57.6079C86.2479 56.6489 85.9099 56.3658 84.951 56.448C84.4853 56.4846 84.0104 56.4663 83.5264 56.4572C83.2432 56.4572 83.0606 56.2928 83.0241 56.0097C82.9875 55.69 82.9693 55.3613 82.9784 55.0416C82.9875 54.6124 83.2433 54.3567 83.6268 54.2014C83.9008 54.0918 84.1839 53.9914 84.4488 53.8635C85.5447 53.3156 86.2935 52.4297 86.8049 51.3247C87.4625 49.9183 87.7821 48.4114 87.9922 46.8771C88.1018 46.0826 88.1839 45.2881 88.2935 44.4935C88.3392 44.1739 88.4579 43.8999 88.805 43.8086C89.5173 43.5986 89.91 43.8817 89.91 44.6031C89.91 46.4114 89.8917 48.2196 89.8917 50.0279C89.8917 51.2425 89.8917 52.4571 89.8917 53.7265" fill="#858585"/>
<path d="M68.6584 64.5761C68.7497 64.5852 68.8137 64.5852 68.8685 64.5852C71.3982 64.5669 73.9279 64.5487 76.4485 64.5395C76.8229 64.5395 77.0786 64.3843 77.2978 64.1012C77.7544 63.5258 77.9462 62.9048 77.8731 62.1468C77.727 60.6673 77.1334 59.4345 76.001 58.4664C75.2886 57.8454 74.4393 57.5349 73.4987 57.5349C71.9553 57.5349 70.8137 58.2929 69.9552 59.5166C68.905 61.0326 68.6584 62.7496 68.6584 64.5761ZM81.9371 66.2108H81.5353C77.4439 66.2108 73.3525 66.2108 69.2612 66.2017C68.9689 66.2017 68.8593 66.293 68.8228 66.5578C68.5214 68.4939 69.0603 70.2382 70.1288 71.8273C70.7589 72.7588 71.6448 73.3616 72.7224 73.6447C74.9964 74.2383 76.9964 73.736 78.6311 72.0191C79.1974 71.4255 79.6814 70.7588 80.1928 70.1195C80.7225 69.4528 80.8869 69.4163 81.5718 69.9186C82.0102 70.2382 82.0102 70.1013 81.7727 70.6401C80.8686 72.6766 79.3161 74.083 77.3435 75.0237C72.4849 77.3433 66.9141 74.905 65.1881 69.7085C64.1104 66.4756 64.7132 62.1559 66.6767 59.5714C68.2566 57.4801 70.3571 56.1924 73.0238 56.0463C76.6311 55.8454 79.8275 57.9732 81.1426 61.3431C81.5992 62.5121 81.7453 63.7267 81.8549 64.9688C81.8641 65.3523 81.9006 65.7542 81.9371 66.2108Z" fill="#858585"/>
<path d="M75.1062 81.1879V82.229C75.3985 82.229 75.6725 82.2473 75.9464 82.2199C76.2752 82.1834 76.4122 81.9916 76.3939 81.672C76.3757 81.3888 76.2113 81.2062 75.9008 81.1879C75.645 81.1788 75.3893 81.1879 75.1062 81.1879ZM75.1062 83.9825C75.3437 83.9825 75.5629 83.9825 75.7821 83.9825C75.846 83.9825 75.9008 83.9825 75.9555 83.9733C76.3026 83.9094 76.4944 83.6902 76.5035 83.3432C76.5126 82.9962 76.33 82.7405 75.9921 82.6948C75.709 82.6583 75.4167 82.6856 75.1062 82.6856V83.9825ZM74.6313 80.777C75.1154 80.777 75.5903 80.7587 76.0652 80.7861C76.4944 80.8044 76.7775 81.0509 76.8779 81.4071C76.9784 81.8181 76.878 82.1651 76.5492 82.3751C76.6953 82.5943 76.9054 82.7861 76.9784 83.0236C77.1976 83.7176 76.7501 84.3204 75.9921 84.3752C75.5537 84.4117 75.1062 84.3843 74.6405 84.3843V80.777H74.6313Z" fill="#858585"/>
<path d="M45.7086 84.3751C45.3341 84.4117 45.0602 84.2655 44.8958 83.955C44.4757 83.1422 44.0556 82.3386 43.6355 81.5349C43.6172 81.4984 43.599 81.471 43.535 81.3888V84.3751H43.0967V80.8134C43.6081 80.6856 43.6994 80.713 43.9369 81.1605C44.3387 81.9185 44.7497 82.6765 45.1424 83.4345C45.1789 83.4893 45.2063 83.5441 45.2702 83.6537V80.7952H45.6995L45.7086 84.3751Z" fill="#858585"/>
<path d="M61.7635 82.375C62.074 82.3568 62.3663 82.3568 62.6676 82.3111C62.9508 82.2655 63.0695 82.0554 63.0786 81.7814C63.0878 81.4983 62.9782 81.2791 62.695 81.2335C62.3845 81.1878 62.0649 81.197 61.7361 81.1878C61.7361 81.5714 61.7361 81.891 61.7361 82.2198C61.7453 82.2655 61.7544 82.302 61.7635 82.375ZM61.2704 80.786C61.7635 80.786 62.2567 80.7677 62.7316 80.7951C63.1151 80.8134 63.4348 81.0143 63.5535 81.4161C63.6905 81.8636 63.5535 82.2198 63.1151 82.576C63.7818 83.0508 63.4348 83.7632 63.59 84.3933H63.0238C63.0238 84.0828 63.0238 83.7906 63.0238 83.4892C63.0238 82.9778 62.8503 82.8134 62.348 82.8043C62.1471 82.8043 61.9645 82.8043 61.7361 82.8043V84.3842H61.2612L61.2704 80.786Z" fill="#858585"/>
<path d="M70.0468 82.5944C69.9555 82.2748 69.9281 81.9186 69.7819 81.6172C69.4714 80.9962 68.5947 80.9871 68.2659 81.599C67.9189 82.2474 67.9372 82.9414 68.2842 83.5898C68.6312 84.2109 69.4897 84.1743 69.7911 83.5351C69.9281 83.2519 69.9646 82.9323 70.0468 82.5944ZM70.5582 82.6309C70.476 82.9414 70.4212 83.3067 70.2842 83.6355C70.0468 84.2017 69.581 84.4483 68.9874 84.4483C68.3847 84.4483 67.9463 84.1652 67.718 83.599C67.4531 82.9414 67.4349 82.2747 67.7088 81.6081C67.9554 81.0053 68.4577 80.704 69.1153 80.7222C69.7089 80.7405 70.1838 81.0875 70.3756 81.7085C70.4578 81.9917 70.4852 82.2839 70.5582 82.6309Z" fill="#858585"/>
<path d="M50.5761 82.8775H51.5807C51.4071 82.3387 51.2427 81.8273 51.0692 81.2519C50.8866 81.8273 50.7313 82.3478 50.5761 82.8775ZM52.5304 84.3661C52.2199 84.4209 52.019 84.3022 51.9277 84.0191C51.7815 83.5625 51.4619 83.3341 50.9779 83.3341C50.6309 83.3341 50.4117 83.4985 50.3021 83.8273C50.2838 83.8912 50.2656 83.9551 50.2382 84.0282C50.156 84.3022 49.955 84.4118 49.6445 84.357C49.9002 83.5259 50.156 82.6949 50.4117 81.8729C50.5121 81.5624 50.5943 81.2428 50.713 80.9414C50.7404 80.8684 50.8866 80.777 50.9688 80.7862C51.124 80.7953 51.3523 80.6583 51.4345 80.9049C51.809 82.0464 52.1743 83.1972 52.5396 84.3387C52.5304 84.3479 52.5304 84.3479 52.5304 84.3661Z" fill="#858585"/>
<path d="M56.9415 80.7771H56.4849V84.3662H56.9415V80.7771Z" fill="#858585"/>
<path d="M81.5354 80.7861H81.0879V84.3752H81.5354V80.7861Z" fill="#858585"/>
<path d="M148.139 76.4116C148.267 76.2655 148.404 76.1286 148.513 75.9733C148.833 75.4984 148.961 75.0418 148.659 74.4573C148.157 73.4984 147.783 72.4755 147.335 71.4892C147.262 71.334 147.098 71.2244 146.988 71.0783C146.933 71.0143 146.897 70.9321 146.851 70.8591C146.924 70.8134 146.997 70.7312 147.07 70.7312C147.536 70.7221 148.002 70.7221 148.477 70.7312C148.577 70.7312 148.687 70.8043 148.787 70.8499C148.714 70.9413 148.641 71.0326 148.559 71.1239C148.531 71.1513 148.495 71.1696 148.44 71.197C148.787 72.0189 149.143 72.8408 149.518 73.7358C149.874 72.8408 150.203 72.0189 150.504 71.2518C150.367 71.0965 150.267 70.9687 150.157 70.8499C150.184 70.8134 150.212 70.7769 150.239 70.7495C150.568 70.7495 150.897 70.7403 151.226 70.7586C151.299 70.7586 151.372 70.8408 151.436 70.8865C151.39 70.9595 151.353 71.0417 151.289 71.0965C151.207 71.1787 151.061 71.2244 151.025 71.3066C150.303 73.0144 149.6 74.7221 148.888 76.4299L148.139 76.4116Z" fill="#858585"/>
<path d="M157.354 74.6401V72.3113H154.797V74.5488C154.97 74.6949 155.089 74.8045 155.217 74.9049C155.198 74.9415 155.171 74.978 155.144 75.0054H153.217C153.189 74.978 153.162 74.9506 153.144 74.9141C153.253 74.8045 153.354 74.6858 153.545 74.5031V69.4163C153.509 69.398 153.436 69.3798 153.39 69.3432C153.317 69.2793 153.244 69.1971 153.18 69.1149C153.271 69.0693 153.354 68.9962 153.436 68.9871C153.902 68.9779 154.367 68.9688 154.842 68.9871C154.961 68.9871 155.07 69.0784 155.18 69.1149C155.089 69.188 155.007 69.2702 154.915 69.3432C154.879 69.3706 154.842 69.3798 154.797 69.4072V71.5716H157.344V69.3889C157.308 69.3706 157.253 69.3615 157.208 69.325C157.116 69.2519 157.025 69.1697 156.943 69.0967C157.043 69.051 157.144 68.9688 157.244 68.9688C157.71 68.9597 158.176 68.9505 158.65 68.9688C158.76 68.9688 158.87 69.0601 158.979 69.1058C158.888 69.1788 158.806 69.261 158.714 69.3341C158.678 69.3615 158.641 69.3706 158.596 69.398V74.6036C158.696 74.6218 158.797 74.631 158.879 74.6766C158.934 74.7132 158.988 74.8045 158.979 74.8593C158.97 74.905 158.879 74.9871 158.824 74.9871C158.258 74.9963 157.692 74.9963 157.134 74.9871C157.071 74.9871 156.961 74.8958 156.97 74.8684C156.988 74.7953 157.043 74.704 157.107 74.6584C157.171 74.6127 157.262 74.6218 157.381 74.6127" fill="#858585"/>
<path d="M143.673 72.9959C143.673 73.3704 143.673 73.7356 143.673 74.1009C143.673 74.2014 143.691 74.3293 143.755 74.4023C144.194 74.9046 145.07 74.7859 145.344 74.174C145.637 73.5073 145.664 72.8133 145.408 72.1283C145.171 71.5073 144.65 71.279 144.011 71.4617C143.774 71.5347 143.637 71.6352 143.655 71.9183C143.691 72.2836 143.673 72.6398 143.673 72.9959ZM143.664 71.1694C143.874 71.0416 144.029 70.9411 144.175 70.8681C145.125 70.3749 146.157 70.7219 146.559 71.7174C146.879 72.4845 146.851 73.279 146.532 74.0462C146.175 74.8863 145.216 75.2882 144.239 75.069C143.974 75.0051 143.746 74.8772 143.426 75.0051C143.134 75.1238 142.751 75.0416 142.404 75.0233C142.331 75.0233 142.248 74.9594 142.166 74.9229C142.212 74.8589 142.267 74.795 142.312 74.722C142.385 74.6124 142.504 74.4937 142.504 74.3932C142.513 72.7585 142.522 71.1238 142.504 69.489C142.504 69.3703 142.367 69.2516 142.294 69.142C142.248 69.0689 142.184 68.9959 142.084 68.8589H143.655V71.1694H143.664Z" fill="#858585"/>
<path d="M174.915 74.5852C175.08 74.7039 175.208 74.7952 175.336 74.8957C175.317 74.9413 175.299 74.987 175.272 75.0236C174.705 75.0236 174.148 75.0236 173.591 75.0236C173.527 75.0236 173.463 74.9505 173.409 74.9231C173.463 74.8592 173.509 74.777 173.564 74.7313C173.609 74.6948 173.692 74.6857 173.792 74.6583V71.1605C173.701 71.124 173.637 71.1148 173.582 71.0783C173.509 71.0144 173.463 70.9322 173.399 70.8683C173.472 70.8226 173.546 70.7404 173.609 70.7404C174.02 70.7313 174.431 70.7313 174.87 70.7313C174.888 70.9139 174.915 71.06 174.943 71.261C175.08 71.1696 175.189 71.0874 175.308 71.0326C175.61 70.9048 175.902 70.7404 176.221 70.6765C177.016 70.5212 177.573 70.9048 177.637 71.7176C177.71 72.5395 177.673 73.3706 177.683 74.1833C177.683 74.4117 177.582 74.7039 177.966 74.7587C178.002 74.7587 178.048 74.8774 178.03 74.9231C178.02 74.9687 177.938 75.0236 177.883 75.0236C177.372 75.0327 176.87 75.0327 176.358 75.0236C176.294 75.0236 176.24 74.9505 176.185 74.9048C176.285 74.8135 176.386 74.7222 176.532 74.5852C176.532 73.7907 176.541 72.9231 176.532 72.0555C176.532 71.7176 176.395 71.3523 176.039 71.3431C175.683 71.3431 175.326 71.5258 174.97 71.6354C174.934 71.6445 174.925 71.7541 174.925 71.818C174.925 72.7495 174.925 73.6902 174.925 74.5761" fill="#858585"/>
<path d="M169.363 72.8956C169.455 73.334 169.509 73.7998 169.646 74.2381C169.765 74.6034 170.057 74.8226 170.468 74.8135C170.861 74.8043 171.153 74.6034 171.281 74.229C171.582 73.3432 171.582 72.4482 171.272 71.5714C171.135 71.197 170.861 70.9596 170.423 70.9687C170.012 70.9778 169.747 71.2244 169.637 71.5806C169.509 71.9915 169.464 72.4299 169.363 72.8956ZM168.185 72.9687C168.185 71.5349 169.062 70.6308 170.468 70.6217C171.893 70.6125 172.733 71.471 172.733 72.9139C172.733 74.2838 171.811 75.1697 170.395 75.1697C168.916 75.1605 168.194 74.4391 168.185 72.9687Z" fill="#858585"/>
<path d="M165.554 71.1603C165.271 71.142 165.043 71.1329 164.787 71.1238C164.742 70.4389 165.308 70.8681 165.545 70.6398C165.573 70.4115 165.509 70.0188 165.673 69.8635C165.901 69.6535 166.294 69.626 166.687 69.5073V70.7128H167.655V71.1421H166.687C166.687 71.4891 166.687 71.7996 166.687 72.101C166.687 72.6672 166.687 73.2243 166.696 73.7905C166.714 74.4206 166.86 74.5485 167.5 74.5485C167.646 74.5485 167.801 74.5485 168.093 74.5485C167.965 74.7037 167.892 74.859 167.801 74.8773C167.427 74.9686 167.052 75.0599 166.669 75.0782C165.856 75.1147 165.564 74.8133 165.554 74.0097C165.545 73.1969 165.554 72.3841 165.554 71.5804V71.1603Z" fill="#858585"/>
<path d="M162.888 69.1879C162.806 69.1696 162.714 69.1696 162.66 69.124C162.596 69.0874 162.568 69.0144 162.514 68.9505C162.577 68.9048 162.641 68.8226 162.714 68.8226C163.125 68.8135 163.536 68.8135 163.993 68.8135V74.567C164.176 74.7039 164.313 74.8044 164.431 74.8957C164.413 74.9414 164.395 74.9871 164.367 75.0236C163.81 75.0236 163.244 75.0236 162.687 75.0236C162.623 75.0236 162.559 74.9505 162.504 74.914C162.55 74.8501 162.577 74.777 162.632 74.7405C162.696 74.6948 162.788 74.6857 162.87 74.6583V69.197V69.1879H162.888Z" fill="#858585"/>
<path d="M161.335 70.7222V74.6309C161.418 74.6674 161.5 74.6765 161.564 74.7222C161.628 74.7679 161.664 74.85 161.719 74.9231C161.655 74.9596 161.591 75.0236 161.518 75.0236C161.025 75.0327 160.532 75.0327 160.039 75.0236C159.975 75.0236 159.92 74.9505 159.856 74.914C159.902 74.8501 159.929 74.7496 159.984 74.7405C160.24 74.7039 160.23 74.5304 160.23 74.3478C160.23 73.3706 160.23 72.3934 160.23 71.4254C160.23 71.2427 160.258 71.06 159.984 71.0418C159.938 71.0418 159.902 70.9322 159.856 70.8683C159.929 70.8226 159.993 70.7404 160.066 70.7404C160.477 70.7313 160.888 70.7313 161.345 70.7313" fill="#858585"/>
<path d="M160.824 68.7222C161.198 68.7222 161.491 69.0235 161.481 69.4071C161.472 69.7998 161.189 70.1012 160.824 70.1012C160.44 70.1012 160.176 69.8089 160.176 69.4071C160.166 69.0053 160.44 68.7222 160.824 68.7222Z" fill="#858585"/>
<path d="M179.482 70.2836H179.271V69.0416C179.874 68.859 179.737 69.4982 180.011 69.7083C180.285 69.5256 180.148 68.8681 180.724 69.0325V70.2928C180.632 70.2928 180.495 70.3019 180.358 70.311C180.377 70.0371 180.395 69.7722 180.422 69.5165C180.395 69.5074 180.367 69.4982 180.349 69.48C180.221 69.7448 180.084 70.0097 179.929 70.3476C179.783 70.0279 179.655 69.7631 179.536 69.4983C179.509 69.4983 179.482 69.5074 179.463 69.5165C179.463 69.7631 179.472 70.0188 179.482 70.2836Z" fill="#858585"/>
<path d="M179.089 69.2336C178.97 69.2062 178.852 69.1788 178.715 69.1514V70.2838H178.331V69.1423C178.203 69.1788 178.094 69.2153 177.966 69.2427C177.948 69.2244 177.929 69.1971 177.911 69.1788C177.984 69.124 178.066 69.0235 178.149 69.0235C178.468 69.0327 178.815 68.9505 179.107 69.0875C179.107 69.1423 179.098 69.1788 179.089 69.2336Z" fill="#858585"/>
<path d="M132.111 49.1145H131.591V76.0646H132.111V49.1145Z" fill="#858585"/>
</svg>
