<svg width="211" height="111" viewBox="0 0 211 111" fill="none" xmlns="http://www.w3.org/2000/svg">
<path d="M140.173 37.7681C140.33 37.2986 140.257 36.9125 140.017 36.5265C139.547 35.8274 139.547 35.1284 139.704 34.3458C139.787 34.0328 140.09 33.8763 140.403 33.8763C140.716 33.8763 140.789 34.1059 140.789 34.3458C140.872 34.6589 141.018 34.8884 141.102 35.1284H141.185C141.258 34.5858 141.342 34.0328 141.415 33.4903C141.644 31.7792 142.114 30.1411 142.74 28.503C142.97 27.9605 142.896 27.804 142.51 27.4075C142.437 27.3344 142.354 27.251 142.197 27.1779C141.811 26.7919 141.728 26.4789 142.124 26.0094C142.354 25.7798 142.281 25.6233 141.968 25.4668C141.738 25.3103 141.425 25.2373 141.185 25.0808C140.872 24.9243 140.559 24.7678 140.246 24.5382C139.777 24.1522 139.704 23.6827 140.09 23.2132C140.403 22.7436 140.403 22.7436 140.09 22.2741C139.464 21.2621 138.921 20.1665 138.608 19.0814C138.452 18.6954 138.295 18.2989 138.066 17.9129C138.066 17.8398 137.993 17.7564 137.993 17.7564C137.523 16.9008 137.607 16.6608 138.462 16.2748C138.848 16.1183 138.848 16.0452 138.848 15.6488C138.848 15.4923 138.848 15.3358 138.932 15.1062C139.005 14.7932 138.932 14.7202 138.619 14.6367C137.92 14.5637 137.763 14.4072 137.607 13.6977C137.45 13.0717 137.221 12.9986 136.751 13.3847C135.812 14.0107 134.883 14.0107 133.871 13.7707C133.245 13.6142 132.619 13.3847 132.004 13.1447C131.691 13.0717 131.378 12.9152 131.065 12.8317C130.522 12.6021 130.209 12.0492 130.366 11.4336C130.522 10.8076 130.522 10.8076 129.98 10.4215C129.281 9.95201 129.354 9.02341 130.209 8.62693C130.366 8.5539 130.595 8.47043 130.752 8.39739C130.835 8.32436 130.981 8.08438 130.981 8.01135C130.752 7.38533 130.439 6.76975 129.729 6.45674C129.416 6.3837 129.187 6.3837 128.874 6.52977C128.717 6.60281 128.404 6.68628 128.404 6.60281C128.175 6.4463 128.175 6.21676 128.175 6.06026C128.258 5.51771 128.717 5.12123 129.343 5.2047C129.5 5.2047 129.656 5.2047 129.813 5.2047C129.813 5.13167 129.813 5.13167 129.813 5.0482C129.656 4.97516 129.5 4.89169 129.343 4.81866C128.488 4.50565 128.248 3.87963 128.717 3.10754C129.03 2.63803 129.573 2.25198 130.042 1.78247C130.126 1.70943 130.428 1.78247 130.512 1.8555C130.668 1.92854 130.825 2.08504 130.981 2.24155C131.367 2.47109 131.68 2.47109 131.92 2.01201C132.233 1.46946 132.619 1.31296 133.329 1.46946C133.715 1.5425 134.028 1.8555 133.955 2.32502C133.882 3.42055 134.424 4.1196 135.363 4.50565C136.375 4.97516 137.075 5.74725 137.314 6.91582C137.398 7.22883 137.398 7.54184 137.398 7.85485C137.398 8.5539 137.627 9.09645 138.18 9.49293C139.036 10.0355 139.662 10.818 139.975 11.7466C139.975 11.8196 140.132 11.9031 140.205 11.9031C140.288 11.9031 140.434 11.8301 140.518 11.6736C140.747 11.3605 140.831 10.9745 141.06 10.6615C141.217 10.432 141.373 10.192 141.603 10.0355C141.832 9.87897 142.072 9.80593 142.302 9.96244C142.531 10.1189 142.771 10.2754 142.771 10.5885C142.771 10.818 142.688 11.131 142.615 11.371C142.229 12.07 141.916 12.8526 141.519 13.6246C142.302 13.7811 142.771 14.2507 142.917 15.1062C143.147 14.9497 143.303 14.7932 143.543 14.6367C143.929 14.4072 144.326 14.2507 144.712 14.4072C145.338 14.6367 145.494 15.2627 145.025 15.7322C144.555 16.2018 144.482 16.9008 144.795 17.5268C145.494 18.8519 145.421 20.177 144.566 21.4186C144.253 21.8046 144.18 22.2741 144.409 22.8167C144.639 22.6602 144.795 22.5037 145.035 22.4306C145.348 22.2011 145.661 22.1176 146.047 22.1176C146.517 22.1176 146.673 22.3472 146.433 22.7436C146.12 23.2132 145.807 23.7557 145.494 24.2252C144.712 25.2373 144.482 26.5624 145.025 27.6475C145.025 27.7205 145.098 27.7205 145.098 27.804C145.484 27.6474 145.881 27.4179 146.35 27.3344C146.976 27.1049 147.675 27.1779 148.218 27.564C148.687 27.877 148.76 28.1065 148.531 28.6595C148.447 28.8891 148.301 29.0456 148.218 29.3586C148.687 29.4316 149.157 29.5151 149.616 29.5151C150.002 29.5881 150.242 29.7446 150.242 30.1411C150.242 30.4541 150.085 30.6106 149.772 30.6836C148.531 30.9132 147.665 31.6227 147.352 32.8643C147.039 34.3458 146.1 35.3579 144.701 35.9005C144.472 35.9735 144.315 36.057 144.075 36.13C143.846 36.2865 143.689 36.443 143.533 36.5995L143.616 36.6725C144.242 36.5995 144.785 36.5995 145.411 36.516C145.567 36.516 145.641 36.516 145.797 36.516C146.183 36.5891 146.34 37.0586 146.11 37.3716C145.797 37.7576 145.411 37.9976 144.868 37.9976C143.23 37.8411 142.135 38.6967 141.279 39.9487C141.279 39.9487 141.279 40.0217 141.279 40.1052C141.509 40.1052 141.665 40.1052 141.822 40.0322C143.147 39.3331 144.472 39.2496 145.954 39.4896H146.037C147.049 39.7192 147.206 40.3452 146.507 41.1277C146.35 41.2842 146.277 41.3572 146.12 41.5138C145.807 41.8998 145.891 42.0563 146.277 42.3693C146.59 42.5989 146.82 42.8388 147.06 43.0684C147.289 43.2979 147.289 43.6109 147.06 43.7674C146.83 43.997 146.673 43.9239 146.433 43.8405C145.964 43.6109 145.494 43.5274 144.952 43.6839C144.253 43.8405 143.543 43.757 143.001 43.2979C142.531 42.9849 142.145 42.5154 141.749 42.1293C141.592 41.9728 141.519 41.8163 141.363 41.6598C141.279 42.1293 141.279 42.5989 141.206 42.9849C140.977 43.9239 140.507 44.696 139.881 45.4785C139.412 46.1045 138.869 46.6471 138.4 47.1896C138.327 47.3462 138.17 47.4192 138.014 47.5757C138.556 47.7322 138.869 48.0452 138.796 48.5878C138.713 48.9738 138.64 49.1303 138.254 49.2138C137.867 49.2868 137.554 49.4433 137.158 49.5268C137.001 49.5998 136.928 49.5998 136.772 49.6833C136.688 49.7563 136.615 49.8398 136.542 49.9963C136.542 50.0693 136.699 50.1528 136.772 50.2258C136.845 50.2989 136.928 50.2989 137.085 50.2989C137.471 50.4554 137.554 50.7684 137.241 51.0814C137.158 51.1544 137.012 51.2379 136.855 51.3109C136.073 51.4674 135.374 51.4674 134.591 51.2379C133.496 50.9249 132.64 51.1649 131.858 51.937C131.785 52.01 131.701 52.0935 131.545 52.25C131.315 52.4065 131.232 52.636 131.315 52.949C131.388 53.1786 131.232 53.4185 131.159 53.6481C131.002 53.9611 130.773 54.3471 130.616 54.6601C130.46 54.8897 130.303 54.9731 130.074 55.0462C129.448 55.1192 128.822 55.2757 128.206 55.3592C128.133 55.3592 127.976 55.3592 127.976 55.4322C127.893 55.5053 127.747 55.6618 127.747 55.8183C127.747 55.8913 127.976 56.0478 128.06 56.0478C128.999 56.2043 129.927 56.0478 130.793 55.6618C130.877 55.5887 131.023 55.5887 131.106 55.5887C131.493 55.5157 131.732 55.6618 131.732 56.0582C131.732 56.2147 131.732 56.2878 131.732 56.4443C131.732 56.9138 131.816 56.9138 132.202 56.9138C132.432 56.9138 132.672 56.9138 132.901 56.9138C133.444 56.9138 133.684 57.1433 133.757 57.6963C133.913 58.6353 133.371 59.4074 132.432 59.5639C132.119 59.637 131.733 59.7204 131.42 59.7935C131.033 59.8665 130.95 59.95 131.033 60.336C131.106 60.649 131.106 61.0351 131.106 61.3481C131.106 61.8906 130.48 62.2036 130.011 61.8906C129.927 61.8176 129.854 61.6611 129.854 61.5046C129.854 61.1916 129.698 61.0351 129.385 61.0351C127.59 60.8786 125.879 60.5656 124.158 60.023C123.772 59.8665 123.375 59.7935 122.989 59.637C122.76 59.5639 122.676 59.637 122.676 59.8665C122.676 60.023 122.749 60.2526 122.749 60.4091C122.749 60.7221 122.676 60.9516 122.436 61.1081C122.123 61.2646 121.894 61.1081 121.737 60.9516C121.268 60.5656 120.798 60.0961 120.329 59.71C119.786 59.2405 119.16 58.9275 118.461 59.011C118.388 59.011 118.231 58.8545 118.148 58.7814C118.075 58.7084 118.075 58.5519 117.918 58.4684C117.845 58.6249 117.762 58.7814 117.762 58.9379C117.689 59.4805 117.532 59.95 116.823 60.0335C116.896 60.19 116.896 60.263 116.979 60.3465C117.209 60.9725 117.209 61.5881 116.666 62.141C116.353 62.5271 115.967 62.4541 115.811 61.9845C115.498 61.3585 115.341 61.202 114.559 61.2855C113.86 61.3585 113.077 61.442 112.378 61.515C111.523 61.5881 110.823 61.2855 110.271 60.576C109.957 60.1065 109.488 60.0335 108.945 60.3465C109.018 60.4195 109.102 60.503 109.102 60.576C109.331 60.889 109.644 61.2751 109.884 61.5881C110.197 61.9741 110.197 62.2871 109.958 62.5271C109.644 62.8401 109.102 62.8401 108.789 62.5271C108.476 62.2141 108.246 61.9011 108.006 61.515C107.85 61.2855 107.62 61.0455 107.464 60.816C106.921 60.2734 106.295 60.2734 105.753 60.816C105.283 61.2855 104.897 61.828 104.501 62.3706C104.188 62.7566 103.645 62.8401 103.332 62.6001C102.946 62.3706 102.863 61.9011 103.176 61.5881C103.405 61.3585 103.645 61.202 103.958 60.962C104.271 60.7325 104.271 60.4925 103.885 60.336C103.656 60.1795 103.259 60.263 103.103 60.4925C102.56 61.1916 101.778 61.4316 100.922 61.4316C100.066 61.4316 99.2839 61.3585 98.4283 61.1185C97.9588 60.962 97.7293 61.0455 97.4893 61.5046C97.2598 61.8906 97.1032 61.9741 96.6337 61.8176C96.0912 61.5881 95.7782 61.0351 95.9347 60.4195C95.9347 60.263 96.0077 60.1065 96.0912 59.95C96.1642 59.5639 96.0912 59.324 95.6217 59.2509C95.1522 59.0944 95.0791 58.9379 95.1522 58.5519C95.2252 58.1658 95.1522 57.8528 94.8391 57.5398C94.4531 57.1538 94.6096 56.7573 95.1522 56.6843C95.3087 56.6843 95.4652 56.6112 95.6217 56.6112C96.0912 56.6112 96.1642 56.3817 96.1642 55.9852C96.1642 55.7557 96.1642 55.5992 96.1642 55.3592C96.2373 54.8897 96.3938 54.7332 96.8633 54.6601C97.3328 54.5871 97.6458 54.8166 97.8023 55.2027C97.8754 55.3592 97.8753 55.5157 97.8753 55.6722C97.8753 55.9017 98.0319 56.1417 98.3449 56.1417C99.6699 56.0687 100.765 56.6112 101.851 57.3103C102.237 57.6233 102.706 57.9363 103.103 58.1658C103.489 58.3954 103.958 58.6353 104.355 58.8649L104.428 58.7918C104.271 58.2493 104.198 57.6233 104.042 57.0807C103.969 56.6947 104.115 56.3817 104.428 56.2982C104.897 56.2252 105.127 56.3712 105.283 56.8408C105.513 57.5398 105.669 58.2389 105.909 59.0214C105.982 59.4074 106.295 59.4909 106.608 59.3344C106.765 59.2614 106.921 59.1049 107.078 58.9484C107.391 58.4058 107.547 57.8528 107.62 57.2372C107.62 57.0807 107.62 57.0077 107.693 56.8512C107.85 56.3817 108.319 56.2252 108.705 56.4651C108.778 56.5382 108.935 56.6947 108.862 56.8512C108.862 57.1642 108.789 57.3937 108.705 57.7067C108.632 57.8633 108.549 58.0198 108.549 58.1763C108.549 58.3328 108.549 58.5623 108.705 58.7188C108.862 58.8753 109.092 58.9484 109.331 58.8753C109.488 58.8023 109.718 58.6458 109.874 58.5623C110.813 58.0198 111.669 57.4668 112.608 56.9242C113.234 56.5382 113.933 56.3817 114.715 56.3817C114.945 56.3817 115.101 56.2252 115.185 56.0687C115.185 55.9956 115.258 55.9122 115.258 55.8391C115.414 55.2131 115.884 54.9836 116.583 55.2131C116.896 55.2861 117.125 55.6826 117.052 56.0687C116.979 56.7677 117.052 57.0077 117.678 57.3103L117.751 57.3833C118.294 57.6129 118.294 57.6128 118.69 57.1538C119.16 56.5277 119.629 55.9122 120.172 55.3592C120.798 54.6601 121.111 53.8776 121.184 53.022C121.268 52.2395 121.57 51.697 122.196 51.2275C122.822 50.6849 123.448 50.0589 124.064 49.5163C124.22 49.4433 124.293 49.2033 124.293 49.0468C124.21 48.8903 123.98 48.8173 123.824 48.8173C123.438 48.7443 123.281 48.5878 123.281 48.3478C123.281 48.0348 123.511 47.8052 123.907 47.8052C124.763 47.7322 125.462 48.0348 126.015 48.6608C126.171 48.8903 126.401 48.8903 126.641 48.7338C126.87 48.5773 127.11 48.5043 127.267 48.3478C127.496 48.1913 127.809 48.2747 127.966 48.5043C128.435 49.0468 128.822 49.5998 129.061 50.2989C129.135 50.5284 129.135 50.6849 128.905 50.8414C128.592 51.1544 128.592 51.2275 128.978 51.4674C129.761 52.01 130.46 51.7804 130.689 50.9249C130.689 50.8519 130.689 50.6953 130.689 50.6119C130.606 49.8294 130.846 49.2138 131.472 48.8173C132.411 48.1182 132.953 47.1792 133.11 46.0941C133.193 45.3951 133.579 44.8525 134.122 44.383C134.278 44.2265 134.591 44.1535 134.435 43.8405C134.362 43.6109 133.892 43.5274 133.652 43.6109C133.423 43.6839 133.266 43.8405 133.11 43.5379C133.037 43.2249 133.193 42.9119 133.496 42.8388C133.652 42.7658 133.882 42.7658 134.038 42.7658C134.821 42.6093 135.29 42.0667 135.676 41.4407C135.76 41.2112 135.833 40.9712 135.989 40.8147C136.146 40.4287 136.459 40.2721 136.845 40.3452C137.388 40.4182 137.857 40.8147 138.014 41.3572C138.087 41.5868 138.17 41.7433 138.4 41.5868C138.483 41.5138 138.629 41.5138 138.786 41.5138C139.255 41.4407 139.328 41.3572 139.328 40.8877C139.328 40.1887 139.328 39.4896 139.412 38.7071C139.485 38.5506 139.568 38.3211 139.641 38.1646C139.798 38.2376 139.954 38.3211 140.184 38.3941C140.1 37.6846 140.1 37.7681 140.173 37.7681ZM129.573 52.6464C128.717 52.5734 127.862 52.9594 127.309 53.502C127.152 53.6585 126.996 53.815 126.766 53.9715C125.598 54.9105 124.189 55.2966 122.707 55.2966C122.008 55.2966 121.382 55.8391 121.226 56.4651C121.142 56.7782 121.299 56.9347 121.612 56.9347C121.768 56.9347 121.841 56.9347 121.998 56.9347C122.853 56.8616 123.709 56.6217 124.419 56.2356C125.201 55.8496 125.973 55.4531 126.839 55.3801C127.309 55.307 127.538 55.067 127.538 54.5975C127.538 54.368 127.622 54.2115 127.851 54.128C128.79 54.1176 129.187 53.4185 129.573 52.6464ZM133.162 9.49293C133.162 9.56596 133.162 9.56596 133.162 9.64943C134.174 9.96244 135.186 10.3485 136.282 10.6615C135.426 9.80593 134.247 9.72247 133.162 9.49293Z" fill="#858585"/>
<path d="M64.7063 28.4926C64.6333 28.2631 64.5498 28.1066 64.4768 27.8666C64.3203 27.3971 64.4038 27.0841 64.8628 26.7711C65.5619 26.3016 66.2609 26.3016 66.9704 26.6146C67.0435 26.6146 67.1269 26.6876 67.1269 26.6876C67.7529 27.0737 67.9825 27.0006 68.139 26.3016C68.3685 25.519 68.212 24.747 67.753 24.0375C67.3669 23.4114 66.9704 22.7959 66.5844 22.2429C66.4279 22.0133 66.2714 21.8568 66.5113 21.6169C66.6679 21.3873 67.0539 21.3873 67.2939 21.4604C67.6799 21.6169 67.9929 21.8464 68.3894 22.0029C68.619 21.6899 68.619 21.3769 68.3164 20.9908C67.7738 20.2918 67.5338 19.5093 67.6904 18.6537C67.7634 18.1112 67.9199 17.6416 68.0764 17.1721C68.1494 16.7861 68.2329 16.5461 68.2329 16.2331C68.3059 15.7636 68.1599 15.3775 67.8468 14.9915C67.4608 14.522 67.5338 13.9794 68.0764 13.7499C68.4624 13.5204 68.932 13.5204 69.3284 13.7499C69.558 13.9064 69.798 14.1359 70.111 14.2924C70.184 14.1359 70.184 14.0629 70.2675 13.9064C70.424 13.5204 70.6535 13.2804 71.05 13.2074C71.5195 13.0508 71.5195 12.9778 71.2795 12.5813C70.81 11.8823 70.424 11.1832 70.2675 10.3172C70.1944 10.0042 70.2675 9.69122 70.497 9.53471C70.7265 9.37821 70.9665 9.37821 71.1961 9.53471C71.5091 9.76425 71.7386 10.0773 71.8951 10.4737C71.9681 10.7033 72.1246 10.9433 72.2811 11.1728C72.5107 11.4858 72.7507 11.4023 72.9802 11.0998C73.0532 10.9433 73.1367 10.8702 73.2098 10.7137C73.3663 10.3277 73.6793 10.0147 73.9923 9.70165C75.0043 8.84609 75.6304 7.67753 75.7869 6.35245C75.8599 5.4969 76.3294 4.79784 77.0389 4.32833C77.4249 4.01532 77.8945 3.85882 78.364 3.62928C79.063 3.31627 79.1465 3.24323 79.1465 2.46071C79.1465 1.9912 79.2195 1.52168 79.4595 1.13564C79.3656 1.07304 79.5221 1 79.5951 1C79.9812 1 80.3776 1 80.7637 1.1565C81.2332 1.38604 81.8592 1.38604 82.4018 1.46951C83.1008 1.54255 83.7999 1.78252 84.2694 2.32507C84.812 2.79458 84.4989 3.87968 83.8833 4.11966C83.6538 4.19269 83.4139 4.3492 83.2573 4.5057C83.4869 4.5057 83.6434 4.57874 83.8833 4.57874C84.3529 4.65177 84.7389 4.89175 84.8954 5.43429C85.0519 5.90381 84.9684 6.06031 84.5094 5.97684C84.1964 5.97684 83.9668 5.90381 83.6538 5.97684C82.8713 6.04988 82.3288 6.44636 81.8592 7.14541C81.6297 7.45842 81.7027 7.61492 82.0157 7.84446C82.2453 8.00097 82.4853 8.074 82.6418 8.23051C83.0278 8.54352 83.1113 9.01303 82.7983 9.39907C82.7252 9.55558 82.5687 9.71208 82.4122 9.86859C82.1827 10.0981 82.0992 10.3381 82.2557 10.7241C82.4852 11.3502 82.3288 11.8197 81.7862 12.1223C80.5342 12.9048 79.1361 13.3639 77.6545 13.3639C77.1119 13.3639 76.5589 13.2074 76.1729 12.8943C76.0164 12.8213 75.9434 12.7378 75.7869 12.6648C75.4739 12.5083 75.2443 12.5918 75.0878 12.8943C75.0878 12.9674 75.0148 13.1239 75.0148 13.2074C74.9417 13.5934 74.7852 13.8334 74.3157 13.8334C73.6897 13.9064 73.3036 14.7724 73.6897 15.3149C73.7627 15.4714 74.0027 15.5445 74.1592 15.5445C74.9417 15.4714 75.0982 16.014 74.7018 16.5565C74.3157 17.1826 74.0757 17.7982 73.7627 18.5076C73.5332 19.1337 73.2932 19.7492 72.9802 20.3022C72.6672 20.8448 72.2811 21.3978 71.8847 21.9403C71.9577 21.9403 72.1142 22.0133 72.1977 22.0968C72.5837 22.2533 72.6672 22.4829 72.5107 22.8793C72.3542 23.3488 72.0412 23.6619 71.6552 23.8914C71.3421 24.1209 70.9561 24.2774 70.6431 24.4339C70.1736 24.6635 70.1736 24.9035 70.4135 25.2895C70.7266 25.759 70.7265 25.832 70.3405 26.2285C70.2675 26.3016 70.184 26.385 70.0275 26.4581C69.558 26.8441 69.4015 27.3136 69.6414 27.9396C70.184 29.1812 70.497 30.5063 70.737 31.8314C70.81 32.6139 70.8935 33.386 70.9665 34.085C70.9665 34.2416 70.9665 34.3146 70.9665 34.5546C71.2795 34.3981 71.436 34.2416 71.5091 33.9285C71.5091 33.772 71.5821 33.699 71.5821 33.5425C71.6551 33.313 71.7386 33.073 72.0516 33.073C72.3646 33.073 72.5942 33.2295 72.6776 33.5425C72.8341 34.325 72.7507 35.0971 72.4481 35.7962C72.2916 36.1092 72.2186 36.4952 72.062 36.8082L72.1351 36.8813C72.2916 36.8082 72.3646 36.7248 72.5211 36.6517C72.7507 36.4222 72.9906 36.4952 73.0637 36.8082C73.0637 36.8813 73.1367 37.0378 73.1367 37.1212C73.1367 37.8203 73.1367 38.6028 73.1367 39.3019C73.1367 39.6149 73.2097 39.8444 73.5227 39.9279C73.9923 40.0844 74.2218 40.0844 74.3783 39.5418C74.5348 39.2288 74.6913 38.9993 75.0774 38.9993C75.3904 38.9993 75.7764 38.9993 76.0894 39.0723C76.4755 39.1454 76.7154 39.5418 76.7154 40.0114C76.7154 40.3974 76.7885 40.7939 77.1015 40.9504C77.331 41.1069 77.644 41.1799 77.884 41.1799C78.3535 41.1799 78.7396 41.253 78.9796 41.6494C79.0526 41.8059 79.136 42.0355 79.136 42.192C79.063 42.4215 78.9065 42.3485 78.6665 42.3485C78.437 42.3485 78.2805 42.2755 78.0405 42.3485C77.884 42.3485 77.7275 42.505 77.7275 42.6615C77.7275 42.7345 77.8005 42.891 77.957 42.9745C78.6561 43.2875 79.0526 43.8301 79.1256 44.6126C79.1986 45.5516 79.6682 46.3237 80.3777 47.0228C80.6072 47.2523 80.8472 47.4923 81.1602 47.7218C81.5462 48.1079 81.7862 48.5043 81.7862 49.0469C81.7862 49.3599 81.8592 49.7459 81.9427 50.0589C82.0992 50.445 82.3287 50.6015 82.7252 50.445C83.1113 50.372 83.4243 50.132 83.8207 49.9755C83.6642 49.7459 83.5912 49.5894 83.4347 49.4329C83.1217 48.9634 83.2052 48.5774 83.7477 48.4209C84.1338 48.2644 84.2172 48.0348 84.2172 47.6383C84.2172 47.0958 84.4468 46.9393 84.9997 47.0958C85.3128 47.1688 85.5423 47.3253 85.8553 47.4088C86.2414 47.5653 86.3979 47.4818 86.6378 47.1793C87.1073 46.5532 87.8899 46.3237 88.662 46.5532C88.975 46.6263 89.048 46.9393 89.048 47.1793C89.048 47.4088 88.8915 47.4923 88.662 47.5653C88.5889 47.5653 88.5889 47.5653 88.5055 47.5653C88.1925 47.6383 88.1194 47.8783 88.349 48.1079C88.662 48.4939 89.048 48.8904 89.4445 49.2034C89.7575 49.4329 90.0705 49.7459 90.3835 49.9859C91.0095 50.5285 91.3956 51.1545 91.3956 51.937C91.4686 53.0325 91.8651 53.8881 92.7206 54.5871C93.4197 55.1297 93.8162 55.8287 93.9727 56.6947C94.0457 57.2373 93.8162 57.4773 93.2736 57.5503C92.8041 57.6233 92.3346 57.7798 91.9486 58.0928C91.406 58.5624 90.853 58.9484 90.3939 59.4179C90.1644 59.6475 89.9244 59.804 89.6114 59.6475C89.2984 59.4909 89.2254 59.1779 89.2254 58.8649C89.2254 58.6354 89.2254 58.3954 89.2254 58.1659C89.1524 58.1659 89.0689 58.1659 88.9958 58.2389C86.8883 59.0214 84.7807 59.4805 82.6 59.7205C82.214 59.7205 82.1305 59.7935 82.1305 60.19C82.1305 60.3465 82.0575 60.576 81.901 60.6595C81.5879 60.816 81.275 60.7326 81.0454 60.5865C80.8889 60.43 80.8159 60.2735 80.8889 60.0439C81.2019 58.8754 80.9619 58.4893 79.7934 58.2493C79.6369 58.1763 79.4804 58.1763 79.2508 58.1763C78.5518 57.9468 77.9988 57.0077 78.2388 56.3087C78.3953 55.7661 78.8648 55.6827 79.3343 55.6096C79.5638 55.6096 79.7203 55.6096 79.9603 55.5366C80.2733 55.4636 80.3463 55.3071 80.2733 55.0671C80.2733 54.9941 80.2733 54.9106 80.2003 54.8375C80.1272 54.4515 80.2003 54.295 80.5133 54.295C81.0558 54.222 81.6088 54.295 82.0679 54.608C82.767 55.0775 83.5495 55.1506 84.332 55.234C84.405 55.234 84.645 55.161 84.645 55.0775C84.645 54.921 84.572 54.7645 84.4885 54.608C84.4885 54.535 84.332 54.535 84.259 54.535C83.7164 54.4619 83.2469 54.3054 82.7044 54.222C82.1618 54.222 81.7653 53.9924 81.6088 53.4394C81.4523 53.1264 81.2228 52.8134 81.0663 52.5004C81.2958 51.9579 81.2228 51.8014 80.7533 51.4049C80.5967 51.2484 80.4403 51.0919 80.2838 51.0188C79.8142 50.5493 79.2717 50.3928 78.5726 50.4763C77.5606 50.5493 76.6215 50.6328 75.6095 50.6328C75.453 50.6328 75.2234 50.4763 75.0669 50.3198C74.8374 50.0902 74.9104 49.7772 75.2234 49.6938C75.3799 49.6207 75.453 49.6207 75.6095 49.5373C75.839 49.4642 75.839 49.3077 75.6825 49.1512C75.453 48.9947 75.14 48.9217 74.827 48.7652C74.5974 48.6921 74.3574 48.6087 74.2009 48.5356C73.6584 48.3061 73.5749 47.8366 73.8879 47.294C73.961 47.1375 74.1175 46.981 74.2009 46.8245C74.2844 46.668 74.274 46.5115 74.1279 46.4385C73.3454 46.1255 73.0324 45.4994 72.8028 44.8004C72.5733 44.1013 72.1038 43.5588 71.4778 43.2458C71.1648 43.0893 71.0917 42.8597 71.1648 42.5467C71.2378 42.3172 71.2378 42.0042 71.3213 41.7642C71.3213 41.6077 71.3943 41.4512 71.3213 41.2947C71.3213 41.1382 71.1648 40.9817 71.0917 40.9817C71.0187 40.9817 70.8622 41.0547 70.7787 41.1382C70.3927 41.8372 69.7667 42.3798 69.0676 42.8493C68.525 43.1623 67.9721 43.2353 67.4295 43.0058C66.96 42.8493 66.4905 42.8493 66.021 43.1623C65.7914 43.3188 65.6349 43.3919 65.395 43.1623C65.1654 42.9328 65.1654 42.6928 65.3219 42.4633C65.395 42.3068 65.5514 42.0772 65.7914 41.9937C66.5739 41.5242 66.647 41.0547 66.021 40.3557L65.948 40.2826C65.4054 39.8966 65.4054 39.1871 66.1775 38.8845C66.8035 38.655 67.5026 38.655 68.1286 38.655C69.2241 38.728 70.2362 39.041 71.1648 39.594C71.1648 39.594 71.2378 39.594 71.3213 39.667C71.2482 39.4375 71.2482 39.281 71.1648 39.1975C70.6222 37.9559 69.1406 37.1734 67.972 37.3299C67.346 37.4029 66.8765 37.1734 66.4905 36.6309C66.4175 36.4744 66.334 36.2448 66.4174 36.0883C66.4905 35.9318 66.7305 35.8588 66.96 35.8588C67.5026 35.8588 68.0555 35.9318 68.5981 35.9318C68.7546 35.9318 68.9111 35.9318 68.9841 36.0048L69.0572 35.9318C68.9007 35.7753 68.6711 35.5458 68.5146 35.3893C68.2016 35.2327 67.8886 35.0762 67.5756 35.0032C66.3236 34.4607 65.5515 33.6051 65.3115 32.28C65.0819 31.1845 64.4559 30.4124 63.3604 30.0994C62.9744 29.8699 62.7344 29.7864 62.7344 29.4003C62.7344 29.0873 62.9639 28.8578 63.2769 28.7743C63.663 28.7013 64.0595 28.6178 64.4455 28.6178C64.4768 28.5761 64.5498 28.4926 64.7063 28.4926ZM90.7487 56.6947C91.0617 56.6217 91.2912 56.5382 91.6043 56.4652C91.7608 56.3922 91.8338 56.3087 91.6773 56.1522C91.5208 55.9957 91.3643 55.7661 91.2078 55.5262C90.9782 55.1401 90.5817 54.9836 90.1122 54.9836C88.7871 55.1401 87.6186 54.6706 86.6065 53.8881C85.9075 53.3455 85.1249 52.7926 84.3424 52.3335C84.1859 52.2604 84.0294 52.177 83.7999 52.177C83.4869 52.177 83.4139 52.3335 83.4869 52.563C83.6434 52.876 83.8729 53.1056 84.1129 53.3455C84.3424 53.5751 84.6554 53.7316 84.9684 53.9716C85.2815 54.2011 85.511 54.5141 85.511 54.9106C85.511 55.1401 85.6675 55.2236 85.8971 55.2236C86.5231 55.1506 87.1491 55.2966 87.6916 55.5366C88.0777 55.7661 88.4741 55.9226 88.9437 56.1626C89.3401 56.3817 90.0496 56.6113 90.7487 56.6947ZM79.7516 9.0965C78.4996 9.02346 76.872 9.63905 76.632 10.3381C77.6545 9.87902 78.823 9.87902 79.7516 9.0965Z" fill="#858585"/>
<path d="M113.432 14.7828C113.588 14.5532 113.818 14.4697 114.058 14.5532C115.383 14.6262 116.708 14.5532 118.033 14.3967C118.189 14.3967 118.419 14.3237 118.419 14.6262C118.419 14.8558 118.262 14.9393 118.033 14.9393C117.96 14.9393 117.96 14.9393 117.876 14.9393C117.021 14.9393 116.551 15.3253 116.551 16.2643C116.551 17.8189 116.551 19.384 116.551 20.9386C116.551 23.5053 116.551 26.0824 116.551 28.6491C116.551 28.8056 116.551 29.0351 116.551 29.1916C116.624 29.8907 117.021 30.2037 117.72 30.3602C118.189 30.4332 118.575 30.5897 118.815 31.1427C118.732 31.1427 118.586 31.1427 118.502 31.1427C117.334 31.0697 116.165 31.0697 114.997 30.9862C114.527 30.9862 114.058 31.0592 113.599 31.1427C113.526 31.1427 113.369 31.1427 113.286 31.1427C113.129 31.1427 112.973 31.0697 112.973 30.9132C112.973 30.7566 113.046 30.6001 113.202 30.5271C113.432 30.3706 113.745 30.3706 114.058 30.2976C114.757 30.1411 115.07 29.6715 115.07 28.9725C115.07 27.2614 115.07 25.6233 115.07 23.9122C115.07 23.2862 114.913 23.0566 114.287 23.0566C112.806 23.0566 111.408 23.0566 109.926 23.0566C109.227 23.0566 108.528 23.0566 107.818 23.0566C107.036 23.0566 106.806 23.2862 106.806 24.0687C106.806 25.7068 106.806 27.3448 106.806 29.056C106.806 30.2976 106.963 30.5375 108.131 30.8505C108.288 30.9236 108.444 30.9236 108.601 31.0071C108.674 31.0071 108.674 31.0801 108.83 31.2366C108.674 31.2366 108.517 31.2366 108.444 31.2366C106.89 31.2366 105.325 31.2366 103.77 31.2366C103.697 31.2366 103.697 31.2366 103.614 31.2366C103.384 31.2366 103.228 31.1636 103.228 30.9236C103.228 30.694 103.384 30.6106 103.541 30.5375C103.854 30.381 104.167 30.308 104.48 30.1515C105.179 29.922 105.492 29.4524 105.492 28.6699C105.492 25.9467 105.492 23.2131 105.492 20.5734C105.492 19.0188 105.492 17.4538 105.565 15.8992C105.565 15.7426 105.565 15.6696 105.565 15.5131C105.492 14.7306 105.179 14.4176 104.396 14.4176C104.323 14.4176 104.167 14.4176 104.083 14.4176C104.01 14.3445 103.927 14.2611 103.927 14.188C103.927 14.115 104 13.9585 104.156 13.9585C104.313 13.9585 104.469 13.9585 104.626 13.9585C106.107 13.9585 107.589 13.9585 108.987 13.9585C109.143 13.9585 109.3 13.9585 109.3 14.188C109.3 14.4176 109.143 14.4176 108.987 14.501C108.601 14.5741 108.288 14.6575 107.891 14.7306C107.578 14.8036 107.349 15.0436 107.265 15.4296C107.265 15.8157 107.192 16.2122 107.192 16.6712C107.192 18.2259 107.192 19.7909 107.192 21.3455C107.192 21.8881 107.349 22.0446 107.818 22.128C109.143 22.2011 110.468 22.2011 111.794 22.2845C112.649 22.2845 113.588 22.2845 114.444 22.2845C114.83 22.2845 114.986 22.2115 114.986 21.742C114.986 21.1994 114.986 20.6465 114.986 20.1039C114.986 18.7788 114.986 17.3807 114.986 16.0557C114.986 15.3566 114.757 15.1166 114.047 15.1166C113.901 15.0958 113.588 15.0958 113.432 14.7828Z" fill="#858585"/>
<path d="M98.3861 23.5055C98.3861 20.9389 98.3861 18.2887 98.3861 15.7116C98.3861 15.6386 98.3861 15.5551 98.3861 15.3986C98.3861 14.6161 97.9166 14.23 97.1341 14.3031C97.061 14.3031 96.9045 14.3761 96.8211 14.3031C96.748 14.23 96.5915 14.1466 96.5915 14.0735C96.5915 14.0005 96.748 13.844 96.8211 13.844C96.9776 13.844 97.1341 13.844 97.3636 13.844C98.6887 13.844 100.097 13.844 101.422 13.844C101.579 13.844 101.735 13.844 101.735 14.0735C101.735 14.3031 101.662 14.3865 101.506 14.3865C101.433 14.3865 101.349 14.3865 101.276 14.3865C100.494 14.3865 100.181 14.6996 100.181 15.4821C100.181 16.2646 100.181 16.9637 100.181 17.7357C100.181 18.5183 100.254 19.2904 100.254 20.0729C100.327 22.8795 100.327 25.6862 100.327 28.4824C100.327 30.8926 99.7842 33.2297 98.7721 35.4103C98.6991 35.6399 98.5426 35.7964 98.3861 36.0363C97.7601 37.1319 96.748 37.5179 95.5795 37.5179C95.3499 37.5179 95.0369 37.5179 94.7969 37.4449C94.0144 37.2153 93.8579 36.5058 93.8579 35.8903C93.8579 35.5773 94.3274 35.3477 94.6404 35.4208C94.7969 35.4938 94.9534 35.5773 95.0265 35.6503C95.3395 35.8068 95.569 36.0363 95.882 36.1198C96.508 36.4328 97.0506 36.2763 97.3636 35.6503C97.6766 35.1077 97.8331 34.5548 97.9896 33.9392C98.3026 32.6141 98.3026 31.3725 98.3026 30.0474C98.3861 27.7938 98.3861 25.6131 98.3861 23.5055Z" fill="#858585"/>
<path d="M107.401 95.4243C141.342 95.4243 168.855 95.3409 168.855 95.2469C168.855 95.153 141.342 95.0696 107.401 95.0696C73.4608 95.0696 45.9473 95.153 45.9473 95.2469C45.9577 95.3513 73.4712 95.4243 107.401 95.4243Z" fill="#858585"/>
<path d="M98.4487 87.1192C100.003 86.9418 99.9512 85.7628 100.003 84.7612C100.076 83.3109 100.149 81.8293 99.9825 80.3999C99.9094 79.7009 99.2521 79.0748 98.8243 78.3132C98.8974 78.2923 99.1999 78.188 99.5025 78.188C101.109 78.2402 102.716 78.3654 104.323 78.4175C106.451 78.4697 108.434 80.2747 108.538 82.3301C108.684 85.5437 107.286 87.0774 104.824 87.3696C102.789 87.62 100.682 87.4218 98.6052 87.4218C98.5426 87.3174 98.5009 87.2235 98.4487 87.1192ZM101.255 82.5284C101.255 83.457 101.235 84.3647 101.255 85.2933C101.276 86.0445 101.506 86.5766 102.382 86.7957C103.686 87.1192 105.596 86.4201 106.295 85.1681C108.048 82.0589 105.919 79.0957 102.56 78.9183C101.61 78.8662 101.13 79.1166 101.234 80.1704C101.308 80.9216 101.255 81.725 101.255 82.5284Z" fill="#858585"/>
<path d="M70.8732 82.8519C72.3026 85.8673 72.3026 85.8673 74.358 87.1715C72.699 87.8496 71.7705 87.5471 70.9984 86.1177C70.6019 85.3665 70.2158 84.5839 69.715 83.8849C69.4646 83.5301 69.016 83.311 68.5152 82.9041C68.4421 83.4049 68.39 83.5823 68.39 83.7284C68.39 84.657 68.39 85.5647 68.39 86.4933C68.8177 86.7228 69.2142 86.9211 69.6211 87.1506C69.6002 87.2236 69.569 87.2758 69.569 87.3488C68.2126 87.3488 66.8353 87.3488 65.479 87.3488C67.4405 87.0776 66.8875 85.596 66.9084 84.417C66.9292 83.5927 66.9292 82.7372 66.9084 81.9129C66.8875 80.6296 67.4092 79.1063 65.1973 78.7724C65.2703 78.6681 65.3746 78.5742 65.4477 78.4698C67.2005 78.4698 68.9847 78.3237 70.7166 78.5429C71.3427 78.6472 72.0417 79.6175 72.3443 80.3479C72.699 81.2452 72.1461 82.0068 70.8732 82.8519ZM68.463 78.9706C68.463 80.1288 68.463 81.2556 68.463 82.3824C69.8193 82.4346 70.8001 81.8294 70.894 80.9322C71.0192 80.0244 69.9132 79.1376 68.463 78.9706Z" fill="#858585"/>
<path d="M133.172 83.1859C131.712 83.1859 130.46 83.165 129.208 83.2067C128.957 83.2067 128.602 83.3319 128.456 83.5093C127.882 84.3127 128.508 86.775 129.635 87.328C128.227 87.328 127.027 87.328 125.691 87.328C125.942 87.182 126.098 86.9733 126.265 86.9733C127.048 86.9733 127.121 86.4933 127.121 85.8986C127.1 84.0206 127.173 82.1321 127.1 80.254C127.079 79.6802 126.703 79.1272 126.474 78.5429C127.382 78.5429 128.582 78.5429 129.99 78.5429C128.362 79.242 127.903 80.4523 128.665 82.0799C128.79 82.3512 129.27 82.6329 129.614 82.6538C130.741 82.7268 131.899 82.6746 133.329 82.6746C132.797 81.12 134.028 79.5341 131.972 78.5325C133.329 78.5325 134.435 78.5325 135.562 78.5325C134.31 78.9602 134.654 80.0349 134.654 80.9426C134.633 82.779 134.654 84.6049 134.654 86.462C135.082 86.6916 135.478 86.8898 136.229 87.2863C134.55 87.2863 133.266 87.2863 131.993 87.2863C131.972 87.2341 131.92 87.1611 131.889 87.1089C132.285 86.9107 132.692 86.7333 133.214 86.4829C133.172 85.4708 133.172 84.3336 133.172 83.1859Z" fill="#858585"/>
<path d="M95.0583 85.5437C94.954 83.3317 94.8809 81.3807 94.787 79.367C94.2549 79.1687 93.7541 78.9914 93.2533 78.7931C93.2742 78.7201 93.2742 78.6157 93.3055 78.5427C94.3384 78.5427 95.3609 78.5427 96.8216 78.5427C95.267 78.9914 95.4652 79.9512 95.4652 80.8485C95.4861 83.0813 95.4652 85.3141 95.4652 87.7765C92.8047 85.815 90.9788 83.0292 88.5164 80.6712C88.5164 82.7057 88.5164 84.6151 88.5164 86.5975C89.0485 86.7435 89.5911 86.9209 90.1754 87.0983C90.1754 87.1713 90.1754 87.2235 90.1545 87.2965C88.9546 87.2965 87.7443 87.2965 86.5445 87.2965C87.9217 87.0983 87.7444 86.0967 87.7235 85.1681C87.7026 83.6656 87.7026 82.1527 87.7235 80.6503C87.7444 79.7947 87.7757 79.0227 86.5445 79.1166C86.4401 79.1166 86.2941 78.814 86.1167 78.5636C87.6713 78.2923 88.7251 78.3653 89.758 79.7426C91.25 81.7563 93.1281 83.457 95.0583 85.5437Z" fill="#858585"/>
<path d="M142.907 87.4531C140.017 87.7766 138.013 85.2934 138.086 82.9145C138.191 80.2539 140.121 78.3446 143.23 78.3759C145.609 78.3967 147.873 80.3061 147.925 82.9145C147.977 85.6168 145.473 87.7766 142.907 87.4531ZM139.651 82.8102C139.651 85.4916 141.081 87.1505 143.418 86.9523C145.223 86.7749 145.797 86.2011 146.35 83.8953C146.903 81.5373 145.317 78.6784 142.708 78.8975C141.081 78.9915 139.453 80.7965 139.651 82.8102Z" fill="#858585"/>
<path d="M166.873 84.5838C166.143 82.1006 164.234 83.4256 162.731 83.1544C162.731 84.229 162.679 85.1889 162.752 86.1384C162.773 86.4409 163.18 86.8374 163.503 86.9209C165.413 87.453 166.842 86.8687 168.021 85.2411C168.125 85.095 168.376 85.0428 168.553 84.9698C168.626 85.095 168.678 85.1159 168.678 85.168C168.177 87.4739 168.177 87.4739 165.663 87.4739C164.108 87.4739 162.575 87.4739 161.02 87.4739C160.697 87.4739 160.342 87.4217 159.862 87.2235C161.865 87.3278 161.437 85.9714 161.469 84.9176C161.489 83.6134 161.416 82.3301 161.489 81.0259C161.562 79.8678 161.385 78.9705 160.029 78.6157C162.533 78.6157 165.068 78.6157 167.656 78.6157C167.656 79.2417 167.656 79.9199 167.656 80.7755C166.905 80.2016 166.873 78.9183 165.6 79.1165C164.693 79.2626 163.764 79.1374 162.867 79.1374C162.794 79.4087 162.721 79.5339 162.721 79.6382C162.721 80.5146 162.721 81.3911 162.721 82.2466C164.296 82.6953 164.849 82.5701 166.863 81.172C166.873 82.351 166.873 83.4882 166.873 84.5838Z" fill="#858585"/>
<path d="M118.92 87.2756C117.939 87.2756 116.667 87.2756 115.404 87.2756C115.404 87.1713 115.383 87.0461 115.383 86.9522C115.759 86.8478 116.114 86.7226 116.687 86.5557C116.364 85.6271 116.207 84.5524 115.634 83.7908C115.31 83.3943 114.277 83.4673 113.547 83.4882C113.276 83.4882 112.973 83.916 112.764 84.2186C112.587 84.469 112.535 84.8237 112.441 85.1471C112.138 86.0549 111.262 87.1504 113.223 87.3591C112.024 87.3591 110.845 87.3591 109.634 87.3591C112.097 86.4513 111.846 83.9264 112.775 82.0901C113.328 81.0154 113.63 79.8051 114.058 78.6574C114.162 78.3549 114.413 78.1253 114.788 77.5828C115.717 80.1181 116.447 82.3509 117.324 84.5316C117.773 85.4915 118.419 86.3992 118.92 87.2756ZM114.204 79.8156C113.776 81.0154 113.453 81.9232 113.15 82.8517C113.954 82.8517 114.632 82.8517 115.456 82.8517C115.039 81.8292 114.653 80.9528 114.204 79.8156Z" fill="#858585"/>
<path d="M77.4668 86.6496C77.9468 86.827 78.3954 86.973 78.8441 87.1296C78.8441 87.1817 78.8441 87.2548 78.8441 87.3069C77.6442 87.3069 76.4652 87.3069 75.2549 87.3069C77.5607 86.5766 77.3416 84.2499 78.145 82.5909C78.844 81.1406 79.2718 79.5339 79.9292 77.6245C80.3256 78.1775 80.7117 78.5322 80.8786 78.9287C81.7551 81.1615 82.5063 83.4673 83.4348 85.6793C83.6853 86.3053 84.3113 86.7539 84.7912 87.3382C83.5914 87.3382 82.308 87.3382 81.0247 87.3382C81.0038 87.2652 80.9516 87.1921 80.9203 87.14C81.3168 86.9417 81.7446 86.7122 82.1515 86.514C81.0456 82.7266 81.755 83.4569 78.5102 83.5299C78.1972 84.4898 77.8424 85.4915 77.4668 86.6496ZM81.0038 82.8831C80.6073 81.8501 80.2526 80.9215 79.804 79.7425C79.4075 80.9424 79.1049 81.9023 78.771 82.8831C79.5535 82.8831 80.2004 82.8831 81.0038 82.8831Z" fill="#858585"/>
<path d="M42.9419 87.3695C42.0133 87.3695 40.8343 87.3695 39.6344 87.3695C39.5823 87.2652 39.5301 87.14 39.4883 87.0461C39.8848 86.8687 40.3126 86.6913 40.7926 86.514C40.4378 85.5332 40.0622 84.5107 39.6866 83.4987C36.953 83.2691 36.5252 83.5717 36.1496 86.2323C36.0974 86.5348 36.7234 86.9313 37.0573 87.2861C36.0766 87.2861 34.9497 87.2861 33.4473 87.2861C36.1287 86.3783 35.8783 83.9786 36.7339 82.2675C37.4121 80.8589 37.8398 79.3356 38.3928 77.8749C38.518 77.8541 38.6641 77.8541 38.7893 77.8228C39.1858 78.6783 39.6448 79.5026 39.9683 80.3581C40.4482 81.6102 40.7717 82.9144 41.2934 84.1768C41.7629 85.2619 42.3889 86.2949 42.9419 87.3695ZM38.278 79.8156C37.8503 81.0468 37.5268 81.9232 37.1721 82.9039C38.0276 82.9039 38.6745 82.9039 39.4779 82.9039C39.1232 81.9545 38.7789 81.0468 38.278 79.8156Z" fill="#858585"/>
<path d="M54.4297 87.2968C56.0886 86.9212 56.1617 85.4605 56.5895 84.3336C57.3407 82.4243 57.9667 80.494 58.6762 78.5847C58.7805 78.3343 58.9474 78.136 59.3335 77.5518C59.9073 79.002 60.4081 80.1602 60.8672 81.3705C61.3993 82.8207 61.8167 84.3336 62.4219 85.7317C62.6723 86.3369 63.3505 86.7334 63.9243 87.3385C62.6201 87.3385 61.4098 87.3385 60.2099 87.3385C60.1578 87.2342 60.1369 87.1403 60.0847 87.0672C60.4812 86.9212 60.8672 86.7438 61.3889 86.5351C61.0342 85.5857 60.6899 84.5527 60.3351 83.5511C60.2621 83.5302 60.1577 83.4781 60.0847 83.4781C57.4241 83.3737 57.1216 83.5824 56.7773 86.2638C56.7251 86.5664 57.3824 86.9629 57.7058 87.3176C56.6729 87.2968 55.5357 87.2968 54.4297 87.2968ZM60.0325 82.8833C59.6569 81.9339 59.3022 81.0262 58.8535 79.8263C58.4049 81.0575 58.071 81.913 57.7267 82.8833C58.5718 82.8833 59.2813 82.8833 60.0325 82.8833Z" fill="#858585"/>
<path d="M158.14 78.4174C158.14 79.1478 158.14 80.0033 158.14 80.8276C157.639 79.4712 156.606 79.1999 155.406 79.419C155.177 79.4712 154.833 79.8677 154.833 80.0972C154.833 81.631 154.937 83.1543 154.958 84.688C154.979 85.794 154.603 87.1191 156.387 87.2964C154.906 87.2964 153.403 87.2964 151.901 87.2964C151.922 87.2234 151.953 87.0669 151.974 87.0669C153.278 86.9626 153.581 86.2113 153.508 84.9802C153.382 83.1438 153.487 81.318 153.487 79.2834C152.704 79.3877 151.984 79.3564 151.4 79.6068C150.847 79.8573 150.451 80.4624 149.971 80.911C149.866 80.8589 149.772 80.8067 149.668 80.765C149.866 79.8886 150.096 79.033 150.242 78.407C152.923 78.793 155.479 78.8452 158.14 78.4174Z" fill="#858585"/>
<path d="M185.09 80.7234C184.767 80.2226 184.485 79.7948 184.161 79.3983C183.504 78.595 182.68 78.6993 181.929 79.1688C181.021 79.7218 181.052 80.3687 181.929 80.9738C182.711 81.5059 183.535 81.9754 184.339 82.4241C185.716 83.2275 186.217 84.4587 185.716 85.8568C185.288 87.0149 183.504 87.9122 182.231 87.6096C182.033 87.5574 181.856 87.4322 181.657 87.4114C179.946 87.1088 179.904 87.0358 180.301 85.3559C180.353 85.1577 180.374 84.9282 180.426 84.6047C180.906 85.3038 181.209 85.9298 181.657 86.3889C182.586 87.2966 183.713 87.1192 184.516 86.0863C185.069 85.3559 184.84 84.6778 183.692 83.9265C182.962 83.4466 182.21 83.071 181.48 82.6223C180.426 81.965 180.051 80.9947 180.353 79.8366C180.656 78.7097 181.636 78.3028 182.711 78.1567C182.909 78.1359 183.139 78.1567 183.337 78.1567C185.267 78.2089 185.591 78.6367 185.09 80.7234Z" fill="#858585"/>
<path d="M52.4578 85.0637C52.656 87.0461 52.3326 87.4426 50.6006 87.4426C49.6929 87.4426 48.7434 87.547 47.867 87.3174C46.2602 86.9418 45.1021 85.961 44.81 84.2082C44.4552 82.1215 44.883 80.2434 46.6671 79.0122C48.0966 78.0315 49.7242 77.9063 51.4353 78.4071C52.51 78.7305 52.6143 79.4609 52.51 80.3164C52.3117 80.5147 52.0822 80.7129 51.884 80.8903C51.8318 80.5668 51.884 80.1391 51.6857 79.8887C50.4859 78.261 48.7747 78.4801 47.4497 79.6383C46.0411 80.8381 45.8637 84.3856 47.074 85.8358C48.3261 87.3383 50.3607 87.3696 51.6962 85.9402C51.9257 85.7211 52.1031 85.4707 52.4578 85.0637Z" fill="#858585"/>
<path d="M170.587 78.5115C172.048 78.5115 173.477 78.5115 174.927 78.5115C174.948 78.5845 174.98 78.6575 175 78.741C174.479 78.9184 173.926 79.0958 173.268 79.3149C173.268 80.4417 173.268 81.652 173.268 82.8519C173.268 84.0517 173.268 85.262 173.268 86.6184C175.324 87.1505 177.108 86.9418 178.287 84.6882C178.36 84.7925 178.412 84.9177 178.485 85.0116C178.339 85.7941 178.162 86.5662 178.005 87.3175C175.418 87.3175 172.882 87.3175 170.326 87.3175C172.256 87.0671 171.808 85.4811 171.985 84.3543C172.131 83.4257 172.037 82.445 172.006 81.4642C172.016 80.3165 172.465 78.8871 170.587 78.5115Z" fill="#858585"/>
<path d="M28.5856 78.4907C29.7646 78.4907 30.9645 78.4907 32.1539 78.4907C30.9227 78.9915 31.2775 80.0453 31.2462 80.9739C31.1731 83.2798 31.1731 85.6169 30.9749 87.9227C30.8288 89.759 29.4725 91.0111 27.9596 90.938C27.6361 90.9172 27.2605 90.7398 27.0519 90.4894C26.9267 90.3642 27.0519 89.7904 27.1771 89.7382C27.4483 89.6339 27.8761 89.6338 28.1265 89.7904C29.1595 90.3642 29.5768 89.686 29.7124 88.9348C29.9107 87.4532 29.9837 85.9716 29.9837 84.4901C29.9837 83.165 29.7542 81.8504 29.7855 80.5253C29.7959 79.5654 29.7228 78.7933 28.5856 78.4907Z" fill="#858585"/>
<path d="M91.8759 109.176C91.3751 109.176 90.5926 109.176 89.6953 109.176C90.8534 108.299 90.8535 104.282 89.7162 103.333C90.6239 103.333 91.4273 103.333 92.022 103.333C91.7925 104.084 91.5421 104.94 91.2917 105.764C91.396 105.816 91.5212 105.868 91.6151 105.941C92.3663 105.388 93.1176 104.867 93.8271 104.262C94.0044 104.116 93.9001 103.688 93.9314 103.333C94.5365 103.333 95.2356 103.333 96.1433 103.333C95.4129 103.813 94.86 104.157 94.3383 104.533C93.8062 104.908 93.3053 105.336 92.6585 105.858C93.3888 106.484 94.0148 107.037 94.6617 107.569C95.2669 108.07 95.9138 108.55 96.6963 109.145C95.6216 109.145 94.7661 109.145 93.9627 109.145C94.2131 107.465 92.3037 107.569 91.8759 106.432C91.7299 106.484 91.5734 106.557 91.396 106.609C91.5421 107.475 91.6986 108.299 91.8759 109.176Z" fill="#858585"/>
<path d="M109.989 109.53C108.507 107.955 107.078 106.473 105.669 104.961C105.242 107.569 105.398 108.268 106.671 109.155C105.722 109.155 104.939 109.155 103.938 109.155C105.471 108.602 105.116 107.402 105.012 106.4C104.908 105.42 105.763 104.063 104.063 103.615C105.096 103.114 105.544 103.135 106.222 103.865C107.381 105.096 108.507 106.369 109.916 107.934C109.791 106.432 109.686 105.253 109.593 103.969C109.269 103.865 108.967 103.771 108.643 103.646C108.643 103.573 108.643 103.469 108.643 103.395C109.3 103.375 109.926 103.322 110.625 103.291C109.311 105.211 110.918 107.245 109.989 109.53Z" fill="#858585"/>
<path d="M97.291 108.925C97.5936 108.852 97.8649 108.779 98.2196 108.675C98.2196 107.12 98.2196 105.535 98.2196 103.886C97.917 103.782 97.6145 103.688 97.291 103.615C97.3119 103.542 97.3119 103.469 97.3432 103.417C99.0022 103.417 100.682 103.417 102.435 103.417C102.435 103.813 102.435 104.272 102.435 104.721C101.704 103.26 100.452 103.865 99.3256 103.792C99.3256 104.491 99.3256 105.096 99.3256 105.973C100.275 105.722 101.11 105.524 101.882 105.326C101.882 105.806 101.882 106.505 101.882 107.006C101.151 106.734 100.327 106.401 99.5238 106.077C99.3778 106.202 99.2526 106.307 99.096 106.432C99.2943 107.214 99.2421 108.237 99.7534 108.717C100.452 109.364 101.913 108.665 102.863 107.486C103.134 108.967 103.113 108.988 101.663 109.04C100.233 109.092 98.7726 109.186 97.3432 109.238C97.3223 109.124 97.291 109.03 97.291 108.925Z" fill="#858585"/>
<path d="M114.329 103.385C113.327 104.637 115.028 105.013 115.08 105.994C116.51 104.491 116.666 104.116 116.082 103.312C116.259 103.312 116.405 103.292 116.583 103.292C117.011 103.292 117.407 103.292 118.012 103.292C117.282 104.168 116.478 104.867 116.051 105.723C115.623 106.547 115.571 107.58 115.352 108.613C115.884 108.759 116.207 108.842 116.531 108.915C116.531 108.988 116.531 109.061 116.531 109.145C115.581 109.145 114.653 109.145 113.567 109.145C114.893 108.321 114.924 107.288 114.068 106.161C113.39 105.232 112.712 104.324 112.034 103.406C112.67 103.385 113.505 103.385 114.329 103.385Z" fill="#858585"/>
<path d="M124.064 108.925C123.792 108.446 123.511 108.018 123.312 107.569C122.791 106.286 122.332 104.982 121.81 103.709C121.685 103.406 121.382 103.208 121.132 102.905C120.255 105.117 119.452 107.1 118.701 108.999C119.003 108.999 119.608 108.999 120.36 108.999C119.055 108.32 120.036 107.496 120.255 106.87C120.328 106.641 121.413 106.547 121.862 106.745C122.509 107.016 122.561 108.352 122.06 108.957C122.759 108.925 123.438 108.925 124.064 108.925ZM120.725 105.941L121.173 104.314L121.674 105.941H120.725Z" fill="#858585"/>
</svg>
