<svg width="211" height="111" viewBox="0 0 211 111" fill="none" xmlns="http://www.w3.org/2000/svg">
<path fill-rule="evenodd" clip-rule="evenodd" d="M70.1288 76.1896H68.1674L66.1168 76.1005L64.1554 75.9222L62.1049 75.7439L60.1434 75.5655L58.182 75.2981L56.2206 74.9415L54.2592 74.4957L52.2978 74.0499L50.3364 73.6041L48.375 73.0692L46.5027 72.4451L44.5413 71.821L42.6691 71.1078L40.7968 70.3946L39.0137 69.5922L38.4788 69.1464L38.033 68.7898L37.5872 68.344L37.2306 67.8091L36.7848 67.3633L36.5174 66.8284L36.2499 66.2043L35.9824 65.6693L35.8041 65.0453L35.6258 64.4212L35.5367 63.8862L35.4475 63.2622V62.9055L35.5367 62.5489L35.6258 62.2815L35.715 62.014L35.9824 61.7465L37.1415 60.6767L38.3896 59.6068L39.727 58.6261L40.9751 57.7345L42.3124 56.843L43.7389 55.9514L45.0762 55.1491L46.5027 54.3467L47.9292 53.5443L49.3557 52.831L50.8713 52.2069L51.4063 51.9395L51.9412 51.7612L52.4761 51.5829L53.1002 51.4937L53.6351 51.4045H54.2592H54.8833L55.4182 51.4937L56.0423 51.672L56.5772 51.8503L57.1122 52.1178L57.6471 52.3852L58.0929 52.7419L59.4302 53.99L60.7675 55.2382L62.0157 56.5755L63.2639 57.9129L64.512 59.3393L65.6711 60.7658L66.8301 62.1923L67.8999 63.6188L68.9698 65.1344L70.0396 66.7392L71.0203 68.2548L71.9119 69.8596L72.8034 71.4644L72.9818 71.821L73.1601 72.1777V72.6234L73.2492 72.98L73.1601 73.4258L73.0709 73.7824L72.9818 74.2282L72.8034 74.5848L72.536 74.8523L72.2685 75.2089L72.0011 75.4764L71.6444 75.7439L71.2878 75.9222L70.9312 76.0113L70.5746 76.1896H70.1288Z" fill="#858585"/>
<path fill-rule="evenodd" clip-rule="evenodd" d="M47.8403 48.6407L46.503 49.7106L45.1657 50.6913L43.7392 51.5828L42.3127 52.4744L40.8862 53.2768L39.3706 54.0792L37.855 54.8816L36.3393 55.5948L34.8237 56.2189L33.2189 56.843L31.6141 57.3779L30.0093 57.9128L28.4045 58.3586L26.7998 58.7152L26.1757 58.8044L25.5516 58.8935L24.9275 58.8044H24.3034L23.7685 58.6261L23.1444 58.5369L22.5203 58.2695L21.9854 58.002L21.4505 57.7345L20.9155 57.3779L20.4698 57.0213L20.024 56.5755L19.5782 56.1297L19.2216 55.5948L18.865 55.149L18.6867 54.7033L18.5975 54.3466L18.5083 53.9009L18.4192 53.4551V53.0093L18.5083 52.5635L18.6867 50.9587L19.0433 49.354L19.3999 47.7492L19.8457 46.2335L20.2914 44.6287L20.8264 43.1131L21.3613 41.5975L21.9854 40.0818L22.6986 38.5662L23.4119 37.1397L23.6793 36.6939L24.036 36.3373L24.3926 36.0699L24.7492 35.8024L25.195 35.5349L25.6407 35.3566L26.0865 35.1783L26.6214 35.0892L27.0672 35H27.6022H28.0479L28.4937 35.0892L30.0093 35.4458L31.4358 35.8915L32.8623 36.3373L34.2888 36.8723L35.6261 37.4963L37.0526 38.1204L38.3899 38.7445L39.7272 39.4577L40.9754 40.2601L42.2236 41.0625L43.4717 41.8649L44.7199 42.7565L45.8789 43.7372L47.0379 44.7179L47.3054 45.0745L47.5729 45.4311L47.7512 45.8769L47.9295 46.3227L48.0186 46.7685V47.3034V47.7492V48.1949L47.8403 48.6407Z" fill="#858585"/>
<path fill-rule="evenodd" clip-rule="evenodd" d="M15.3879 76.1898H14.9421L14.5855 76.1007L14.1397 76.0115L13.7831 75.9224L13.3373 75.6549L12.9807 75.4766L12.7132 75.12L12.4458 74.8525L12.1783 74.4959L12 74.0501V72.7128L12.0892 71.3755L12.2675 70.0381L12.4458 68.6117L12.6241 67.2743L12.9807 65.937L13.2482 64.6888L13.6939 63.3515L14.0506 62.0142L14.2289 61.7467L14.4072 61.4793L14.5855 61.1226L14.853 60.9443L15.0313 60.6769L15.5662 60.4094L16.1011 60.2311L16.7252 60.0528L17.2601 59.9636H17.8842H18.4192H19.0432L20.2023 60.2311L21.3613 60.4094L22.5203 60.766L23.6793 61.1226L24.8383 61.4793L25.9973 61.925L27.0672 62.46L28.1371 62.9057L29.2069 63.5298L30.1876 64.1539L31.2575 64.778L32.2382 65.4912L32.5948 65.8479L32.8623 66.2045L33.1297 66.6502L33.308 67.096L33.4864 67.5418L33.6647 68.0767L33.7538 68.5225L33.6647 68.79V68.9683L33.4864 69.1466L33.3972 69.2357L33.2189 69.4141L31.7924 70.2164L30.4551 70.9297L29.0286 71.6429L27.513 72.3562L26.0865 72.9802L24.5709 73.5152L23.0552 74.1393L21.5396 74.585L20.0239 75.0308L18.5083 75.4766L16.9927 75.8332L15.3879 76.1898Z" fill="#858585"/>
<path d="M188.438 66.4719C189.329 66.4719 190.132 66.2936 190.934 66.0261C191.736 65.7587 192.45 65.4021 193.074 64.9563C193.698 64.5105 194.144 63.8864 194.5 63.2623C194.857 62.6383 195.035 61.925 195.035 61.2118C195.035 60.4985 194.857 59.8744 194.5 59.2504C194.144 58.6263 193.698 58.0022 193.074 57.5564C192.45 57.1106 191.736 56.6649 190.934 56.3974C190.132 56.1299 189.329 55.9516 188.438 55.9516C187.546 55.9516 186.744 56.1299 185.941 56.3974C185.139 56.6649 184.515 57.0215 183.891 57.5564C183.267 58.0022 182.821 58.6263 182.464 59.2504C182.108 59.8744 181.929 60.5877 181.929 61.3009C181.929 62.0142 182.108 62.7274 182.464 63.3515C182.821 63.9756 183.356 64.5105 183.891 65.0454C184.515 65.4912 185.228 65.8478 186.031 66.2044C186.833 66.3828 187.635 66.4719 188.438 66.4719ZM189.775 52.3854C191.112 52.4746 192.45 52.8312 193.609 53.3661C194.857 53.9011 195.838 54.5251 196.729 55.3275C197.621 56.1299 198.334 57.0215 198.78 58.0022C199.315 58.9829 199.582 60.0528 199.582 61.2118V68.255C199.582 68.7008 199.315 69.1466 198.869 69.5032C198.423 69.8598 197.888 70.0381 197.353 70.0381C197.175 70.0381 196.907 70.0381 196.64 70.0381C196.373 70.0381 196.194 69.949 195.927 69.8598C195.659 69.7706 195.481 69.5923 195.214 69.414C195.035 69.2357 194.946 68.9683 194.857 68.6116C194.679 68.7008 194.411 68.7899 194.054 68.9683C193.698 69.1466 193.341 69.2357 193.163 69.3249C192.806 69.414 192.45 69.5923 192.093 69.6815C191.736 69.7706 191.38 69.8598 190.934 69.949C190.132 70.0381 189.329 70.1273 188.438 70.1273C186.12 70.1273 184.158 69.6815 182.286 68.7008C180.503 67.7201 179.166 66.3828 178.274 64.8671C178.007 64.3322 177.739 63.7973 177.561 63.1732C177.383 62.5491 177.293 61.925 177.293 61.3009C177.293 60.6768 177.383 60.0528 177.561 59.4287C177.739 58.8046 178.007 58.2697 178.274 57.7347C179.166 56.1299 180.503 54.8818 182.286 53.9011C184.069 52.9204 186.12 52.4746 188.438 52.4746C188.705 52.4746 188.884 52.4746 189.062 52.4746C189.24 52.4746 189.508 52.3854 189.775 52.3854ZM165.079 52.2963C166.506 52.2963 167.932 52.4746 169.269 52.9204C170.607 53.3661 171.766 53.9011 172.746 54.7035C173.727 55.4167 174.53 56.3974 175.154 57.3781C175.778 58.448 176.045 59.5178 176.045 60.766V68.1659C176.045 68.6116 175.778 69.0574 175.332 69.414C174.886 69.7706 174.351 69.949 173.816 69.949C173.192 69.949 172.657 69.7706 172.212 69.5032C171.766 69.1466 171.587 68.7899 171.587 68.255V61.1226C171.587 60.4094 171.409 59.6961 171.053 59.0721C170.696 58.448 170.25 57.913 169.626 57.4673C169.091 57.0215 168.378 56.5757 167.486 56.3082C166.684 56.0408 165.792 55.8625 164.901 55.8625C164.009 55.8625 163.207 56.0408 162.404 56.3082C161.602 56.5757 160.978 56.9323 160.354 57.3781C159.819 57.8239 159.284 58.3588 158.927 58.9829C158.571 59.607 158.393 60.2311 158.393 60.9443V68.255C158.393 68.7008 158.125 69.1466 157.679 69.5032C157.233 69.8598 156.699 70.0381 156.074 70.0381C155.45 70.0381 154.915 69.8598 154.47 69.5923C154.024 69.2357 153.756 68.8791 153.756 68.3442V61.2118C153.756 59.9636 154.113 58.8046 154.648 57.7347C155.183 56.6649 155.985 55.6842 156.966 54.8818C157.947 54.0794 159.106 53.4553 160.443 53.0095C162.048 52.4746 163.474 52.2963 165.079 52.2963ZM141.453 66.4719C142.345 66.4719 143.147 66.2936 143.949 66.0261C144.752 65.7587 145.465 65.4021 146.089 64.9563C146.713 64.5105 147.159 63.8864 147.516 63.2623C147.872 62.6383 148.051 61.925 148.051 61.2118C148.051 60.4985 147.872 59.8744 147.516 59.2504C147.159 58.6263 146.713 58.0022 146.089 57.5564C145.465 57.1106 144.752 56.6649 143.949 56.3974C143.147 56.1299 142.345 55.9516 141.453 55.9516C140.562 55.9516 139.759 56.1299 138.957 56.3974C138.154 56.6649 137.53 57.0215 136.906 57.5564C136.282 58.0022 135.836 58.6263 135.48 59.2504C135.123 59.8744 134.945 60.5877 134.945 61.3009C134.945 62.0142 135.123 62.7274 135.48 63.3515C135.836 63.9756 136.371 64.5105 136.906 65.0454C137.53 65.4912 138.243 65.8478 139.046 66.2044C139.848 66.3828 140.651 66.4719 141.453 66.4719ZM142.79 52.3854C144.128 52.4746 145.465 52.8312 146.624 53.3661C147.872 53.9011 148.853 54.5251 149.744 55.3275C150.636 56.1299 151.349 57.0215 151.795 58.0022C152.33 58.9829 152.597 60.0528 152.597 61.2118V68.255C152.597 68.7008 152.33 69.1466 151.884 69.5032C151.438 69.8598 150.903 70.0381 150.369 70.0381C150.19 70.0381 149.923 70.0381 149.655 70.0381C149.388 70.0381 149.21 69.949 148.942 69.8598C148.675 69.7706 148.496 69.5923 148.229 69.414C148.051 69.2357 147.961 68.9683 147.872 68.6116C147.694 68.7008 147.426 68.7899 147.07 68.9683C146.713 69.1466 146.357 69.2357 146.178 69.3249C145.822 69.414 145.465 69.5923 145.108 69.6815C144.752 69.7706 144.395 69.8598 143.949 69.949C143.147 70.0381 142.345 70.1273 141.453 70.1273C139.135 70.1273 137.174 69.6815 135.301 68.7008C133.518 67.7201 132.181 66.3828 131.289 64.8671C131.022 64.3322 130.754 63.7973 130.576 63.1732C130.398 62.5491 130.309 61.925 130.309 61.3009C130.309 60.6768 130.398 60.0528 130.576 59.4287C130.754 58.8046 131.022 58.2697 131.289 57.7347C132.181 56.1299 133.518 54.8818 135.301 53.9011C137.084 52.9204 139.135 52.4746 141.453 52.4746C141.721 52.4746 141.899 52.4746 142.077 52.4746C142.255 52.4746 142.612 52.3854 142.79 52.3854ZM124.603 61.2118C124.603 60.5877 124.424 59.8744 124.068 59.2504C123.711 58.6263 123.265 58.0913 122.641 57.5564C122.017 57.0215 121.304 56.6649 120.502 56.3082C119.699 56.0408 118.897 55.8625 118.005 55.8625C117.114 55.8625 116.311 56.0408 115.42 56.3082C114.617 56.5757 113.904 56.9323 113.28 57.4673C112.745 57.913 112.21 58.448 111.854 59.1612C111.497 59.7853 111.319 60.4985 111.319 61.2118C111.319 61.925 111.497 62.6383 111.854 63.2623C112.21 63.8864 112.656 64.4213 113.28 64.9563C113.904 65.4021 114.617 65.7587 115.42 66.1153C116.222 66.3828 117.114 66.5611 118.005 66.5611C118.897 66.5611 119.699 66.3828 120.502 66.1153C121.304 65.8478 122.017 65.4021 122.641 64.9563C123.265 64.5105 123.711 63.8864 124.068 63.2623C124.424 62.6383 124.603 62.0142 124.603 61.2118ZM127.01 46.7687C127.545 46.7687 127.991 46.947 128.436 47.3036C128.882 47.6602 129.15 48.0168 129.15 48.4626V61.3009C129.15 62.4599 128.882 63.619 128.258 64.6888C127.634 65.7587 126.832 66.7394 125.762 67.5418C124.692 68.3442 123.533 68.9683 122.196 69.5032C120.858 69.949 119.521 70.2164 118.005 70.2164C116.49 70.2164 115.063 69.949 113.726 69.5032C112.389 69.0574 111.23 68.4333 110.249 67.6309C109.268 66.8285 108.466 65.8478 107.842 64.778C107.307 63.7081 106.95 62.5491 106.95 61.3009C106.95 59.9636 107.218 58.8046 107.752 57.8239C108.287 56.8432 109.09 55.8625 110.16 54.9709C111.319 54.0794 112.478 53.4553 113.815 53.0095C115.152 52.5637 116.579 52.3854 118.005 52.3854C118.897 52.3854 119.878 52.4746 121.037 52.742C122.196 52.9204 123.355 53.3661 124.514 53.9902V48.5518C124.514 48.2843 124.603 48.106 124.692 47.8385C124.781 47.6602 124.959 47.3927 125.138 47.2144C125.316 47.0361 125.583 46.8578 125.851 46.7687C126.118 46.6795 126.386 46.5904 126.653 46.6795H127.01V46.7687ZM94.9141 66.4719C95.8057 66.4719 96.6081 66.2936 97.4105 66.0261C98.2129 65.7587 98.9261 65.4021 99.5502 64.9563C100.174 64.5105 100.62 63.8864 100.977 63.2623C101.333 62.6383 101.512 61.925 101.512 61.2118C101.512 60.4985 101.333 59.8744 100.977 59.2504C100.62 58.6263 100.174 58.0022 99.5502 57.5564C98.9261 57.1106 98.2129 56.6649 97.4105 56.3974C96.6081 56.1299 95.8057 55.9516 94.9141 55.9516C94.0226 55.9516 93.2202 56.1299 92.4178 56.3974C91.6154 56.6649 90.9913 57.0215 90.3672 57.5564C89.7432 58.0022 89.2974 58.6263 88.9408 59.2504C88.5841 59.8744 88.4058 60.5877 88.4058 61.3009C88.4058 62.0142 88.5841 62.7274 88.9408 63.3515C89.2974 63.9756 89.8323 64.5105 90.3672 65.0454C90.9913 65.4912 91.7046 65.8478 92.507 66.2044C93.3094 66.3828 94.1118 66.4719 94.9141 66.4719ZM96.2515 52.3854C97.5888 52.4746 98.9261 52.8312 100.085 53.3661C101.333 53.9011 102.314 54.5251 103.206 55.3275C104.097 56.1299 104.81 57.0215 105.256 58.0022C105.791 58.9829 106.059 60.0528 106.059 61.2118V68.255C106.059 68.7008 105.791 69.1466 105.345 69.5032C104.9 69.8598 104.365 70.0381 103.83 70.0381C103.651 70.0381 103.384 70.0381 103.116 70.0381C102.849 70.0381 102.671 69.949 102.403 69.8598C102.136 69.7706 101.957 69.5923 101.69 69.414C101.512 69.2357 101.422 68.9683 101.333 68.6116C101.155 68.7008 100.888 68.7899 100.531 68.9683C100.174 69.1466 99.8177 69.2357 99.6394 69.3249C99.2827 69.414 98.9261 69.5923 98.5695 69.6815C98.2129 69.7706 97.8563 69.8598 97.4105 69.949C96.6081 70.0381 95.8057 70.1273 94.9141 70.1273C92.5961 70.1273 90.6347 69.6815 88.7625 68.7008C86.9794 67.7201 85.642 66.3828 84.7505 64.8671C84.483 64.3322 84.2156 63.7973 84.0372 63.1732C83.8589 62.5491 83.7698 61.925 83.7698 61.3009C83.7698 60.6768 83.8589 60.0528 84.0372 59.4287C84.2156 58.8046 84.483 58.2697 84.7505 57.7347C85.642 56.1299 86.9794 54.8818 88.7625 53.9011C90.5456 52.9204 92.5961 52.4746 94.9141 52.4746C95.1816 52.4746 95.3599 52.4746 95.5382 52.4746C95.7165 52.4746 95.984 52.3854 96.2515 52.3854Z" fill="#858585"/>
</svg>
