<svg width="211" height="111" viewBox="0 0 211 111" fill="none" xmlns="http://www.w3.org/2000/svg">
<path d="M89.6347 34.8743C90.3105 36.7282 90.7488 38.6369 90.9771 40.5913C91.4886 45.0206 90.7397 49.2306 88.7123 53.2033C88.42 53.7695 88.1004 54.3175 87.7899 54.8654C87.3972 55.5595 87.4428 55.9431 88.0729 56.4453C89.6529 57.6965 91.1415 59.0481 92.4109 60.628C94.7305 63.5139 96.0365 66.7925 96.3927 70.482C96.8219 74.9113 95.9817 79.0301 93.4703 82.747C91.3241 85.9251 88.4474 88.2996 85.1597 90.19C82.219 91.8795 79.0318 92.8019 75.6801 93.1946C73.7623 93.4229 71.8444 93.4138 69.9266 93.359C68.9586 93.3316 68.5841 93.0302 68.5384 92.0713C68.4837 91.0759 68.5476 90.0804 68.5476 89.085C68.5476 86.7836 68.5567 84.4822 68.5476 82.1899C68.5476 81.6511 68.4654 81.1032 68.5567 80.5643C68.6389 80.0347 68.8764 79.8155 69.4152 79.852C69.9267 79.8885 70.4289 79.9981 70.9403 80.0529C74.4655 80.4182 77.6802 79.578 80.5021 77.441C82.2099 76.1533 83.2236 74.409 83.1688 72.2263C83.0774 68.3815 80.2647 65.3313 76.6208 64.8381C75.3514 64.6646 74.1641 64.966 72.9404 65.1669C65.4243 66.3907 58.7393 64.619 53.0497 59.4865C49.1227 55.9339 46.9127 51.4225 46.2277 46.2169C45.2506 38.847 47.4241 32.4542 52.6296 27.1665C56.3283 23.413 60.8946 21.349 66.1184 20.7189C69.8628 20.2623 73.4701 20.8194 76.9679 22.1892C76.9861 22.2988 77.0135 22.4175 77.0317 22.5271C75.7349 24.3902 75.2965 26.4541 75.6436 28.6825C76.3742 33.3583 81.0592 37.1483 86.3652 35.9154C87.4793 35.6414 88.5296 35.1848 89.6347 34.8743ZM68.5293 51.9339C73.47 51.9339 77.4335 48.0799 77.4427 43.258C77.4518 38.1712 73.5431 34.1802 68.5659 34.1802C63.6891 34.1802 59.6617 38.1803 59.6617 43.0114C59.6617 48.016 63.5612 51.9339 68.5293 51.9339Z" fill="#858585"/>
<path d="M78.7487 21.9426C78.7304 21.8421 78.7121 21.7417 78.6938 21.6321C80.5204 18.8284 83.6986 17.5316 87.0045 18.1526C89.4521 18.6092 91.4154 19.7691 92.6118 21.9609C94.6027 25.6047 94.0639 29.9244 90.7306 32.5637C90.6027 32.6642 90.4565 32.7464 90.3287 32.8377C90.2465 32.7829 90.1644 32.7373 90.0913 32.6825C89.6073 32.2989 89.4429 31.7235 89.1689 31.203C87.3881 27.8148 84.9862 24.9929 81.598 23.1024C80.6939 22.6001 79.7533 22.1709 78.7487 21.9426Z" fill="#858585"/>
<path d="M77.7168 22.9563C78.7305 23.1846 79.662 23.6138 80.557 24.1161C83.9452 26.0066 86.3471 28.8285 88.1279 32.2167C88.4019 32.7372 88.5663 33.3126 89.0503 33.6961C89.1234 33.7509 89.2056 33.8057 89.2877 33.8514C89.2421 33.9519 89.1964 34.0523 89.1507 34.1528C88.1553 34.4359 87.1964 34.856 86.1827 35.0843C81.379 36.1985 77.1323 32.7646 76.4656 28.5271C76.146 26.5089 76.5387 24.6367 77.7168 22.9563Z" fill="#858585"/>
<path d="M110.886 73.0756C110.886 73.0026 110.886 72.9204 110.886 72.8473C110.914 71.6692 111.288 71.3405 112.457 71.4501C112.621 71.4683 112.786 71.4683 112.959 71.4683C113.708 71.4409 114.101 71.0939 114.092 70.4637C114.083 69.7788 113.717 69.4135 112.959 69.4044C112.137 69.3952 111.325 69.3861 110.521 69.1943C108.567 68.7377 107.142 67.6966 106.658 65.6418C105.991 62.765 107.745 59.9339 110.484 59.4864C113.589 58.975 116.293 60.9842 116.585 64.0162C116.649 64.692 116.567 65.3587 116.256 65.9614C115.827 66.7925 116.028 67.4774 116.658 68.0893C117.206 68.619 117.58 69.2309 117.717 69.9889C117.955 71.3131 117.361 72.6555 116.201 73.377C114.959 74.1533 113.608 74.4912 112.165 74.5551C111.224 74.6008 110.877 74.2629 110.877 73.304C110.886 73.2309 110.886 73.1578 110.886 73.0756ZM111.526 66.4911C112.841 66.5002 113.69 65.6692 113.699 64.3632C113.708 63.2125 112.758 62.2445 111.608 62.2262C110.375 62.1988 109.425 63.1669 109.425 64.4545C109.416 65.6692 110.256 66.4911 111.526 66.4911Z" fill="#858585"/>
<path d="M151.133 92.254C149.553 92.2723 149.334 92.044 149.416 90.528C149.462 89.633 149.763 89.3499 150.658 89.3682C151.024 89.3773 151.38 89.4047 151.736 89.286C152.293 89.1033 152.558 88.7654 152.54 88.2266C152.521 87.6878 152.247 87.3225 151.681 87.222C151.069 87.1124 150.448 87.0759 149.836 87.0211C149.288 86.9663 148.759 86.8658 148.238 86.7106C146.384 86.1718 145.297 84.7654 145.151 82.7288C145.005 80.6922 145.827 79.1306 147.581 78.1077C149.288 77.1123 150.987 77.2036 152.686 78.2173C154.622 79.368 155.288 81.569 154.722 83.3681C154.403 84.3909 154.658 85.3772 155.407 86.1444C156.613 87.3864 156.567 89.0394 155.535 90.3362C154.567 91.56 153.252 92.1353 151.718 92.2266C151.498 92.2358 151.279 92.2449 151.133 92.254ZM150.01 80.3543C148.759 80.4 147.937 81.2402 147.992 82.4183C148.046 83.5964 148.868 84.2905 150.165 84.2448C151.279 84.2083 151.992 83.3316 151.946 82.0713C151.909 81.0667 151.069 80.3087 150.01 80.3543Z" fill="#858585"/>
<path d="M109.343 83.0209C110.238 84.2812 112.11 84.82 113.69 84.3268C113.991 84.2355 114.274 84.0894 114.576 83.9981C114.923 83.8885 115.169 83.9981 115.251 84.3816C115.288 84.5278 115.315 84.6739 115.343 84.8291C115.58 86.2903 115.206 86.8566 113.726 87.0483C112 87.2675 110.311 87.0209 108.758 86.1899C107.187 85.3497 106.265 83.3223 106.539 81.4684C106.813 79.6053 108.283 78.0254 110.137 77.5779C112.868 76.9295 115.781 78.9935 116.055 81.7789C116.146 82.7104 115.863 83.03 114.932 83.03C113.096 83.0209 111.26 83.0209 109.343 83.0209ZM112.822 80.8839C112.155 79.9067 111.151 79.5505 109.936 80.8839C110.886 80.8839 111.827 80.8839 112.822 80.8839Z" fill="#858585"/>
<path d="M130.631 83.021C131.334 84.1808 132.978 84.7744 134.384 84.4091C134.731 84.3178 135.078 84.2082 135.434 84.126C136.01 84.0073 136.375 84.2448 136.512 84.811C136.813 86.0439 136.348 86.7745 135.096 86.9936C133.37 87.3041 131.681 87.2585 130.128 86.3544C128.238 85.2585 127.535 83.368 127.827 81.3223C128.11 79.3315 129.672 77.8337 131.672 77.4867C134.32 77.0209 137.06 79.1579 137.243 81.8338C137.307 82.7288 137.032 83.0119 136.138 83.0119C134.311 83.021 132.494 83.021 130.631 83.021ZM131.16 80.8748C132.183 80.8748 133.169 80.8748 134.174 80.8748C133.16 79.8063 132.064 79.8063 131.16 80.8748Z" fill="#858585"/>
<path d="M127.352 63.9613C127.297 65.3129 127.416 66.5275 127.251 67.733C127.142 68.5184 126.868 68.902 126.092 69.0389C124.557 69.3129 123.005 69.5138 121.471 69.0389C119.306 68.3631 118.165 66.8289 118.146 64.5731C118.137 63.4224 118.119 62.2717 118.11 61.1302C118.101 60.2078 118.457 59.8334 119.37 59.7786C119.525 59.7694 119.671 59.7694 119.827 59.7786C120.63 59.8242 120.977 60.1713 120.987 60.9749C120.996 61.943 120.977 62.911 120.977 63.8791C120.977 64.0617 120.977 64.2444 120.987 64.427C121.06 65.4864 121.626 66.0891 122.676 66.217C122.749 66.2261 122.822 66.2353 122.904 66.2444C124.073 66.3448 124.338 66.0343 124.311 64.8654C124.274 63.5868 124.329 62.2991 124.283 61.0206C124.256 60.2078 124.676 59.8608 125.489 59.7786C125.635 59.7603 125.79 59.7603 125.945 59.7694C126.987 59.7968 127.361 60.1804 127.361 61.2215C127.352 62.1804 127.352 63.1393 127.352 63.9613Z" fill="#858585"/>
<path d="M126.603 83.9343C126.603 84.5827 126.612 85.2311 126.603 85.8796C126.594 86.5554 126.284 86.875 125.608 86.9207C125.398 86.9298 125.188 86.9298 124.978 86.9207C124.001 86.9024 123.672 86.5462 123.745 85.569C123.818 84.5279 123.8 83.4777 123.727 82.4457C123.626 80.9754 122.448 80.263 121.069 80.327C120.503 80.3544 120.229 80.7197 120.238 81.3681C120.247 82.7562 120.174 84.1444 120.229 85.5416C120.274 86.6102 119.873 87.0029 118.804 86.9663C118.621 86.9572 118.439 86.9389 118.265 86.9207C117.69 86.8385 117.352 86.5371 117.37 85.9709C117.462 83.633 117.279 81.2859 117.452 78.948C117.526 77.9982 117.9 77.6603 118.868 77.569C120.302 77.432 121.736 77.368 123.151 77.7425C125.316 78.3178 126.503 79.7608 126.603 81.9982C126.631 82.6466 126.603 83.295 126.603 83.9526C126.594 83.9343 126.603 83.9343 126.603 83.9343Z" fill="#858585"/>
<path d="M160.074 81.6328C160.458 80.9205 160.777 80.2081 160.96 79.441C161.243 78.2264 161.855 77.7515 163.124 77.7606C163.426 77.7606 163.727 77.788 164.028 77.8337C164.659 77.925 164.85 78.2264 164.595 78.82C163.965 80.2721 163.362 81.7424 162.649 83.1579C161.764 84.884 161.325 86.6831 161.48 88.6192C161.544 89.3772 161.234 89.7151 160.467 89.7425C160.092 89.7516 159.709 89.7516 159.334 89.706C158.859 89.6512 158.64 89.4046 158.695 88.9388C158.951 86.6374 158.147 84.6009 157.179 82.6009C156.503 81.2219 155.791 79.852 155.298 78.3908C155.17 78.0255 155.261 77.9433 155.608 77.9341C156.001 77.925 156.394 77.8702 156.786 77.852C157.572 77.8063 158.156 78.1442 158.576 78.7926C159.106 79.6054 159.49 80.4912 159.919 81.3588C159.955 81.4319 160.019 81.5232 160.074 81.6328Z" fill="#858585"/>
<path d="M134.165 64.1166C134.165 62.5915 134.156 61.3951 134.165 60.2079C134.174 58.354 135.087 57.1028 136.859 56.5092C137.745 56.217 138.631 56.153 139.507 56.5457C140.028 56.7832 140.32 57.1576 140.256 57.7604C140.229 58.0435 140.22 58.3357 140.192 58.6188C140.147 59.1302 139.955 59.2764 139.434 59.185C138.941 59.0937 138.448 59.0754 137.946 59.1302C137.626 59.1668 137.37 59.3037 137.197 59.5777C136.886 60.0891 137.133 60.5549 137.727 60.5914C137.754 60.5914 137.79 60.5914 137.818 60.5914C138.987 60.628 139.444 61.3312 139.014 62.4362C138.832 62.9111 138.43 63.0116 137.982 63.0298C137.206 63.0481 137.032 63.1759 137.023 63.9431C137.005 65.0572 136.932 66.1805 137.014 67.2947C137.033 67.5048 137.042 67.7148 137.023 67.9249C136.969 68.5915 136.631 68.9294 135.955 69.0025C135.791 69.0208 135.626 69.0208 135.453 69.0116C134.53 69.0025 134.119 68.6281 134.138 67.7239C134.174 66.418 134.201 65.1029 134.165 64.1166Z" fill="#858585"/>
<path d="M132.165 62.8928C132.165 64.4454 132.165 66.007 132.165 67.5596C132.165 68.0984 132.156 68.6829 131.544 68.8929C130.841 69.1395 130.101 69.1669 129.462 68.7102C129.087 68.4454 129.078 67.9705 129.078 67.5504C129.087 65.9796 129.133 64.4088 129.133 62.838C129.133 61.2946 129.087 59.7604 129.078 58.217C129.078 57.6873 129.069 57.1028 129.663 56.8562C130.338 56.5731 131.06 56.5549 131.717 56.9293C132.165 57.185 132.165 57.6782 132.165 58.1439C132.165 59.7238 132.165 61.3038 132.165 62.8928Z" fill="#858585"/>
<path d="M138.731 83.6053C138.704 82.8473 138.676 81.7788 138.868 80.7103C138.987 80.0619 139.233 79.4957 139.699 79.039C140.822 77.934 142.128 77.313 143.745 77.5596C143.891 77.5778 144.037 77.6235 144.183 77.6783C144.804 77.9249 145.078 78.2719 145.042 78.7559C144.996 79.3313 144.53 79.8975 143.982 80.0254C142.685 80.3267 141.727 80.9934 141.544 82.4089C141.48 82.9112 141.507 83.4318 141.507 83.9523C141.498 84.5825 141.599 85.2126 141.526 85.8519C141.443 86.5551 141.151 86.8565 140.439 86.9387C140.147 86.9752 139.864 86.9387 139.58 86.893C139.014 86.7834 138.758 86.4455 138.74 85.8245C138.722 85.1852 138.731 84.546 138.731 83.6053Z" fill="#858585"/>
</svg>
