<svg width="1317" height="258" viewBox="0 0 1317 258" fill="none" xmlns="http://www.w3.org/2000/svg">
<path d="M0.943863 201.216V168.575H26.8316V36.8855H0.943863V4.24448H81.9837C108.434 4.24448 128.507 10.9978 142.201 24.5044C156.083 37.8235 163.024 57.7083 163.024 84.1588V121.302C163.024 147.753 156.083 167.731 142.201 181.238C128.507 194.557 108.434 201.216 81.9837 201.216H0.943863ZM63.9748 167.45H82.5465C97.5539 167.45 108.528 163.51 115.469 155.631C122.41 147.753 125.88 136.685 125.88 122.428V83.0332C125.88 68.5886 122.41 57.5207 115.469 49.8294C108.528 41.9505 97.5539 38.0111 82.5465 38.0111H63.9748V167.45ZM258.7 205.156C244.818 205.156 232.531 202.248 221.838 196.433C211.333 190.43 203.079 182.082 197.076 171.389C191.261 160.509 188.353 147.753 188.353 133.12V129.744C188.353 115.111 191.261 102.449 197.076 91.7562C202.891 80.8759 211.052 72.5281 221.557 66.7127C232.062 60.7097 244.255 57.7083 258.137 57.7083C271.831 57.7083 283.744 60.8035 293.873 66.9941C304.003 72.997 311.882 81.4387 317.51 92.319C323.138 103.012 325.952 115.487 325.952 129.744V141.843H224.371C224.746 151.411 228.31 159.196 235.063 165.199C241.817 171.202 250.071 174.203 259.826 174.203C269.768 174.203 277.084 172.046 281.774 167.731C286.464 163.416 290.028 158.633 292.467 153.38L321.45 168.575C318.823 173.453 314.978 178.799 309.913 184.614C305.035 190.242 298.47 195.12 290.215 199.247C281.961 203.186 271.456 205.156 258.7 205.156ZM224.652 115.393H289.934C289.184 107.326 285.901 100.854 280.085 95.9771C274.458 91.0997 267.048 88.661 257.856 88.661C248.289 88.661 240.691 91.0997 235.063 95.9771C229.436 100.854 225.965 107.326 224.652 115.393ZM415.475 205.156C397.279 205.156 382.365 201.216 370.734 193.337C359.104 185.459 352.069 174.203 349.63 159.571L382.271 151.129C383.584 157.695 385.742 162.854 388.743 166.606C391.932 170.357 395.778 173.077 400.28 174.766C404.97 176.267 410.035 177.017 415.475 177.017C423.729 177.017 429.826 175.61 433.765 172.796C437.705 169.795 439.674 166.137 439.674 161.822C439.674 157.507 437.798 154.224 434.047 151.973C430.295 149.535 424.292 147.565 416.038 146.064L408.159 144.657C398.404 142.781 389.493 140.249 381.427 137.06C373.361 133.683 366.889 129.087 362.011 123.272C357.134 117.456 354.695 109.953 354.695 100.761C354.695 86.8789 359.76 76.2799 369.89 68.9638C380.02 61.4601 393.339 57.7083 409.847 57.7083C425.417 57.7083 438.361 61.1787 448.679 68.1196C458.996 75.0605 465.75 84.1588 468.939 95.4143L436.016 105.544C434.516 98.4158 431.42 93.3508 426.731 90.3493C422.228 87.3478 416.601 85.8471 409.847 85.8471C403.094 85.8471 397.935 87.0664 394.371 89.5051C390.807 91.7563 389.025 94.9453 389.025 99.0724C389.025 103.575 390.9 106.951 394.652 109.202C398.404 111.266 403.469 112.86 409.847 113.986L417.726 115.393C428.231 117.269 437.705 119.801 446.146 122.99C454.776 125.992 461.529 130.4 466.406 136.216C471.471 141.843 474.004 149.535 474.004 159.289C474.004 173.922 468.657 185.271 457.965 193.337C447.459 201.216 433.296 205.156 415.475 205.156ZM505.073 201.216V61.6477H540.528V201.216H505.073ZM522.8 45.3272C516.422 45.3272 510.982 43.2637 506.48 39.1366C502.165 35.0096 500.008 29.5694 500.008 22.8161C500.008 16.0628 502.165 10.6226 506.48 6.49559C510.982 2.36856 516.422 0.305045 522.8 0.305045C529.366 0.305045 534.806 2.36856 539.121 6.49559C543.436 10.6226 545.593 16.0628 545.593 22.8161C545.593 29.5694 543.436 35.0096 539.121 39.1366C534.806 43.2637 529.366 45.3272 522.8 45.3272ZM573.063 131.995V127.493C573.063 112.86 575.971 100.385 581.786 90.0679C587.602 79.5628 595.293 71.5901 604.86 66.1499C614.615 60.5221 625.214 57.7083 636.657 57.7083C649.413 57.7083 659.074 59.9594 665.64 64.4616C672.206 68.9638 676.99 73.6536 679.991 78.531H685.056V61.6477H719.948V225.978C719.948 235.546 717.134 243.143 711.506 248.771C705.879 254.586 698.375 257.494 688.995 257.494H595.574V226.541H676.614C681.867 226.541 684.493 223.727 684.493 218.1V181.801H679.428C677.552 184.802 674.926 187.897 671.549 191.086C668.173 194.088 663.67 196.62 658.043 198.684C652.415 200.747 645.286 201.779 636.657 201.779C625.214 201.779 614.615 199.059 604.86 193.619C595.293 187.991 587.602 180.018 581.786 169.701C575.971 159.196 573.063 146.627 573.063 131.995ZM646.787 170.826C657.668 170.826 666.766 167.356 674.082 160.415C681.398 153.474 685.056 143.719 685.056 131.151V128.337C685.056 115.58 681.398 105.826 674.082 99.0724C666.953 92.1314 657.855 88.661 646.787 88.661C635.907 88.661 626.809 92.1314 619.493 99.0724C612.176 105.826 608.518 115.58 608.518 128.337V131.151C608.518 143.719 612.176 153.474 619.493 160.415C626.809 167.356 635.907 170.826 646.787 170.826ZM759.257 201.216V61.6477H794.149V79.9379H799.214C801.465 75.0605 805.686 70.4645 811.876 66.1499C818.067 61.6477 827.447 59.3966 840.015 59.3966C850.896 59.3966 860.369 61.9291 868.435 66.9941C876.689 71.8715 883.068 78.7186 887.57 87.5354C892.072 96.1647 894.323 106.295 894.323 117.925V201.216H858.868V120.739C858.868 110.234 856.242 102.355 850.989 97.1026C845.924 91.85 838.608 89.2238 829.041 89.2238C818.161 89.2238 809.719 92.8818 803.716 100.198C797.713 107.326 794.712 117.363 794.712 130.306V201.216H759.257ZM932.651 201.216V4.24448H968.106V201.216H932.651ZM1050.73 205.156C1040.79 205.156 1031.88 203.467 1024 200.091C1016.12 196.527 1009.83 191.462 1005.14 184.896C1000.64 178.142 998.391 169.982 998.391 160.415C998.391 150.848 1000.64 142.875 1005.14 136.497C1009.83 129.931 1016.21 125.054 1024.28 121.865C1032.53 118.488 1041.91 116.8 1052.42 116.8H1090.69V108.921C1090.69 102.355 1088.62 97.0088 1084.5 92.8818C1080.37 88.5672 1073.8 86.4099 1064.8 86.4099C1055.98 86.4099 1049.42 88.4734 1045.1 92.6004C1040.79 96.5399 1037.97 101.699 1036.66 108.077L1004.02 97.1026C1006.27 89.9741 1009.83 83.5022 1014.71 77.6868C1019.78 71.6839 1026.44 66.9003 1034.69 63.336C1043.13 59.5842 1053.36 57.7083 1065.36 57.7083C1083.75 57.7083 1098.28 62.3043 1108.98 71.4963C1119.67 80.6883 1125.02 94.0074 1125.02 111.453V163.51C1125.02 169.138 1127.64 171.952 1132.89 171.952H1144.15V201.216H1120.51C1113.57 201.216 1107.85 199.528 1103.35 196.151C1098.85 192.775 1096.6 188.272 1096.6 182.645V182.363H1091.25C1090.5 184.614 1088.81 187.616 1086.18 191.368C1083.56 194.932 1079.43 198.121 1073.8 200.935C1068.17 203.749 1060.48 205.156 1050.73 205.156ZM1056.92 176.454C1066.86 176.454 1074.93 173.734 1081.12 168.294C1087.5 162.666 1090.69 155.256 1090.69 146.064V143.25H1054.95C1048.38 143.25 1043.23 144.657 1039.47 147.471C1035.72 150.285 1033.85 154.224 1033.85 159.289C1033.85 164.354 1035.82 168.481 1039.75 171.671C1043.69 174.86 1049.42 176.454 1056.92 176.454ZM1253.93 205.156C1241.36 205.156 1231.7 202.998 1224.94 198.684C1218.19 194.369 1213.22 189.586 1210.03 184.333H1204.96V201.216H1170.07V4.24448H1205.53V77.6868H1210.59C1212.66 74.3102 1215.38 71.1211 1218.75 68.1196C1222.32 65.1182 1226.91 62.6795 1232.54 60.8035C1238.36 58.74 1245.48 57.7083 1253.93 57.7083C1265.18 57.7083 1275.59 60.5221 1285.16 66.1499C1294.73 71.5901 1302.42 79.6566 1308.23 90.3493C1314.05 101.042 1316.96 113.986 1316.96 129.181V133.683C1316.96 148.878 1314.05 161.822 1308.23 172.515C1302.42 183.207 1294.73 191.368 1285.16 196.995C1275.59 202.436 1265.18 205.156 1253.93 205.156ZM1243.23 174.203C1254.11 174.203 1263.21 170.733 1270.53 163.792C1277.84 156.663 1281.5 146.346 1281.5 132.839V130.025C1281.5 116.518 1277.84 106.295 1270.53 99.3537C1263.4 92.2252 1254.3 88.661 1243.23 88.661C1232.35 88.661 1223.26 92.2252 1215.94 99.3537C1208.62 106.295 1204.96 116.518 1204.96 130.025V132.839C1204.96 146.346 1208.62 156.663 1215.94 163.792C1223.26 170.733 1232.35 174.203 1243.23 174.203Z" fill="white"/>
</svg>
