<svg width="168" height="197" viewBox="0 0 168 197" fill="none" xmlns="http://www.w3.org/2000/svg">
<path d="M59.466 93.5516C59.466 89.1707 55.9233 85.6199 51.5755 85.6199C47.2047 85.6199 43.6621 89.1707 43.6621 93.5516C43.6621 97.9324 47.2047 101.483 51.5755 101.483C55.9233 101.483 59.466 97.9324 59.466 93.5516ZM106.487 125.601V140.288L106.878 140.081V125.624H106.487V125.601ZM84.2185 145.269V195.118H70.9681L69.5188 191.59C65.4471 194.888 60.2941 196.801 54.5201 196.801C39.3143 196.801 28.4563 185.688 28.4563 170.193C28.4563 158.711 34.4604 149.719 43.8001 145.845C48.93 147.136 55.4172 147.482 63.1697 145.338C65.5621 146.237 67.7705 147.528 69.7259 149.142L70.0939 148.335C70.9451 146.491 72.7854 145.292 74.8098 145.292H84.2185V145.269ZM56.7975 181.584C63.2157 181.584 67.9315 176.719 67.9315 170.217C67.9315 163.761 63.2387 158.919 56.8435 158.895C50.7934 158.872 45.7324 163.991 45.6634 170.055C45.5944 176.649 50.3333 181.584 56.7975 181.584ZM159.304 138.882C159.304 134.27 155.578 130.535 150.977 130.535C146.376 130.535 142.649 134.27 142.649 138.882C142.649 143.493 146.376 147.229 150.977 147.229C155.578 147.229 159.304 143.493 159.304 138.882ZM106.372 40.7507C106.372 25.0488 94.4554 12.7363 77.2253 12.7363C60.4552 12.7363 48.1939 24.8183 48.1939 41.2349C48.1939 57.6055 60.5472 69.8027 77.2253 69.8027C90.6367 69.8027 101.449 62.1708 105.198 49.9505H86.887C85.1157 53.0863 81.527 54.977 77.2253 54.977C71.4052 54.977 67.5175 51.7951 66.3212 45.6619H106.004C106.234 43.9787 106.372 42.3647 106.372 40.7507ZM66.6433 35.4245C68.1386 30.0983 71.8653 27.1931 77.2253 27.1931C82.7923 27.1931 86.634 30.0753 88.2443 35.4245H66.6433ZM132.988 31.4818C127.904 30.5825 123.832 29.8678 123.832 26.8242C123.832 24.3341 125.81 22.8815 128.755 22.8815C132.09 22.8815 134.391 24.4724 134.391 27.8849H151.621C151.414 17.025 142.603 9.78502 128.985 9.78502C115.826 9.78502 106.924 16.1949 106.234 26.2247C107.614 29.4527 108.534 32.9574 108.856 36.6696C112.629 41.8575 119.691 43.3562 125.442 44.3015C130.572 45.1547 134.621 46.0308 134.621 49.1205C134.621 51.8873 132.067 53.2708 129.376 53.2708C125.879 53.2708 123.165 51.4723 123.165 47.5526H108.074C107.637 49.4663 107.016 51.2878 106.257 53.0402C108.741 61.5252 116.885 66.8745 129.008 66.8745C143.201 66.8745 152.633 59.5423 152.633 48.3596C152.656 34.7328 141.43 32.9805 132.988 31.4818ZM10.3749 53.1555C4.64686 53.1555 0 57.813 0 63.5542C0 69.2955 4.64686 73.953 10.3749 73.953C16.103 73.953 20.7498 69.2955 20.7498 63.5542C20.7498 57.813 16.103 53.1555 10.3749 53.1555ZM45.2263 39.8515C45.2263 42.6875 45.5944 45.3852 46.2385 47.9446C42.3508 55.3228 34.9895 60.234 25.6957 61.2716C24.5915 53.755 18.1504 47.9907 10.3519 47.9907C6.74024 47.9907 3.45064 49.2358 0.805149 51.2878L0.828153 16.3563C0.828153 12.206 4.18677 8.83967 8.32754 8.83967H22.1071C34.9434 8.83967 44.7203 15.9182 48.0329 26.732C46.2385 30.6287 45.2263 35.0556 45.2263 39.8515ZM34.4144 34.4331C34.1383 27.539 28.3412 22.1206 21.44 22.1436H15.3898V48.2674H21.44C29.4684 48.2443 34.7364 42.5953 34.4144 34.4331ZM81.9641 75.5209V116.839C81.9641 134.386 70.508 145.246 52.1046 145.246C36.3007 145.246 25.2357 137.268 22.6822 124.033H41.2006C42.5349 127.768 47.2737 129.774 51.9436 129.774C58.3618 129.774 63.5377 125.67 63.5377 119.053V117.393C59.351 120.044 54.382 121.589 48.999 121.589C33.0341 121.589 21.1639 109.692 21.1639 93.5285C21.1639 77.6191 33.0341 65.468 48.999 65.468C49.5972 65.468 50.1723 65.5141 50.7474 65.5602C57.0275 71.8087 66.6433 75.7976 77.4323 75.7976C78.9736 75.7976 80.4919 75.6823 81.9641 75.5209ZM64.0208 93.5285C64.0208 86.473 59.0749 81.3543 52.1736 81.3543C45.2954 81.3543 40.2804 86.473 40.2804 93.5285C40.2804 100.63 45.2263 105.749 52.1736 105.749C59.0749 105.749 64.0208 100.63 64.0208 93.5285ZM151.736 166.573C151.736 184.235 139.015 196.801 121.025 196.801C114.193 196.801 108.143 194.565 103.381 190.737L101.472 194.957H86.565V122.327H106.855V125.624H106.464V140.311L106.855 140.104C110.972 137.729 115.757 136.392 121.002 136.392C122.199 136.392 123.372 136.461 124.499 136.553V92.3987C124.499 85.5277 121.923 82.1152 116.816 82.1152C110.489 82.1152 106.855 86.5653 106.855 94.0588V117.992H86.565V74.7831C92.293 73.5149 97.423 71.117 101.541 67.8429L103.611 72.6387C106.027 69.918 109.155 67.8429 112.721 66.5055C114.124 67.105 115.642 67.5892 117.23 67.9812C120.634 69.2032 124.591 69.8719 129.031 69.8719C131.515 69.8719 133.862 69.6413 136.07 69.2494C141.591 73.5149 144.812 80.5935 144.812 89.6088V128.506C141.269 130.627 138.9 134.478 138.9 138.882C138.9 144.346 142.511 148.958 147.48 150.457C150.195 155.022 151.736 160.486 151.736 166.573ZM131.4 166.573C131.4 159.149 125.856 153.615 118.334 153.615C110.788 153.615 105.244 159.149 105.244 166.573C105.244 173.929 110.788 179.462 118.334 179.462C125.81 179.462 131.4 173.929 131.4 166.573ZM25.2817 178.771H22.7052L22.7512 178.748C20.2897 177.895 19.0475 175.52 19.0475 175.52V76.4662C16.5631 78.1494 13.5955 79.1178 10.3749 79.1178C6.76325 79.1178 3.45064 77.8727 0.828153 75.7976V185.042C0.828153 191.36 5.91209 196.502 12.1692 196.502H37.3589C28.6633 191.775 26.0638 183.474 25.2817 178.771ZM159.741 8.49382V0.216309H157.188V8.49382H148.929V11.0532H157.188V19.3307H159.741V11.0532H168V8.49382H159.741Z" fill="white"/>
</svg>
