<svg width="1701" height="194" viewBox="0 0 1701 194" fill="none" xmlns="http://www.w3.org/2000/svg">
<path d="M69.2957 152.159H71.6896V154H31.3612V152.159H33.7551C36.947 152.159 39.7092 151.054 42.0418 148.844C44.3743 146.511 45.5406 143.749 45.5406 140.557V30.0683L25.8367 31.1731C13.4374 31.9097 7.23778 36.3907 7.23778 44.616C7.23778 47.9306 8.28128 50.7542 10.3683 53.0868C12.5781 55.4193 16.0155 56.7084 20.6806 56.9539V58.0588C18.9619 58.4271 17.2432 58.6112 15.5244 58.6112C10.1228 58.6112 6.07151 56.4628 3.37066 52.166C1.77471 49.7107 0.976738 47.0099 0.976738 44.0635C0.976738 33.6285 8.89511 27.5516 24.7319 25.8329C24.8546 25.8329 30.9315 25.4646 42.9625 24.728C55.1163 23.8686 64.692 22.7637 71.6896 21.4133L72.0579 23.2548C66.779 24.1141 63.0347 25.8942 60.8249 28.5951C58.6151 31.2959 57.5102 35.0403 57.5102 39.8281V140.557C57.633 143.749 58.7993 146.511 61.0091 148.844C63.3416 151.054 66.1038 152.159 69.2957 152.159ZM284.856 183.832C285.592 183.832 286.329 183.832 287.065 183.832V185.673C283.628 186.165 279.761 186.41 275.464 186.41C271.29 186.41 266.072 185.489 259.811 183.648C253.673 181.806 248.087 178.369 243.054 173.336C232.742 163.023 226.481 149.642 224.271 133.191L213.038 51.2453L174.735 137.795C171.298 145.284 169.211 151.545 168.474 156.578H166.632L118.938 52.9026L110.836 144.424C110.59 146.511 111.204 148.353 112.677 149.949C114.273 151.545 115.992 152.343 117.833 152.343H120.78V154H85.0548V152.159H88.0011C91.3158 152.159 94.2008 151.176 96.6561 149.212C99.2342 147.125 100.83 144.424 101.444 141.11L113.045 40.5647C102.242 19.3263 89.2902 8.70707 74.19 8.70707C72.8396 8.70707 71.4278 8.76845 69.9546 8.89121V7.04973C73.2693 6.19037 75.9701 5.76069 78.0571 5.76069C80.1442 5.76069 82.4153 5.88346 84.8706 6.12899C87.3259 6.25176 90.2109 6.8042 93.5256 7.78633C96.8403 8.76845 99.9708 10.2416 102.917 12.2059C105.864 14.0474 108.442 16.0116 110.651 18.0986C112.861 20.0629 114.948 22.2727 116.912 24.728C120.227 29.1475 122.867 33.3829 124.831 37.4342L169.211 133.56L218.746 22.5182H220.404L237.529 131.534C240.108 148.721 245.632 161.734 254.103 170.573C262.696 179.412 272.947 183.832 284.856 183.832ZM275.586 18.8352C283.566 15.5206 291.239 13.8632 298.605 13.8632C304.743 13.8632 311.066 16.1344 317.572 20.6767C321.132 23.132 325.122 27.9199 329.542 35.0403C332.488 39.9509 336.232 48.8514 340.775 61.7417L363.241 125.457C368.397 139.698 373.615 150.992 378.893 159.34C384.295 167.811 389.206 174.134 393.625 178.308C398.045 182.604 402.649 185.612 407.436 187.331C412.224 189.05 416.153 189.909 419.222 189.909C422.414 189.909 425.237 189.663 427.693 189.172L427.877 191.014C421.984 192.978 416.214 193.96 410.567 193.96C404.92 193.96 399.273 192.487 393.625 189.541C387.978 186.717 382.699 182.727 377.789 177.571C367.231 166.89 358.269 150.624 350.903 128.772L343.721 107.779H293.265L280.558 140.557C279.944 142.03 279.638 143.504 279.638 144.977C279.638 146.45 280.251 148.046 281.479 149.765C282.829 151.361 284.855 152.159 287.556 152.159H289.029V154H252.015V152.159H253.673C256.619 152.159 259.504 151.299 262.328 149.58C265.151 147.739 267.484 145.038 269.325 141.478L314.994 32.0939C308.365 22.6409 300.139 17.9145 290.318 17.9145C285.899 17.9145 281.172 18.8352 276.139 20.6767L275.586 18.8352ZM295.29 102.254H341.88L327.332 59.3478C324.508 51.1225 321.93 44.6774 319.598 40.0123L295.29 102.254ZM556.736 186.042C541.145 186.042 528.377 181.07 518.433 171.126C511.067 163.76 506.218 154.491 503.885 143.319C492.223 152.159 477.921 156.578 460.979 156.578C447.597 156.578 435.382 153.693 424.333 147.923C413.407 142.03 404.814 133.989 398.553 123.8C392.414 113.61 389.345 102.132 389.345 89.364C389.345 76.5964 392.414 65.1178 398.553 54.9283C404.814 44.616 413.407 36.6362 424.333 30.989C435.26 25.3418 447.475 22.5182 460.979 22.5182C477.921 22.5182 492.837 26.6922 505.727 35.0403L509.41 61.0052H507.753C504.07 46.7644 495.722 37.0659 482.708 31.9097C476.325 29.3317 469.081 28.0426 460.979 28.0426C444.406 28.0426 430.594 33.8126 419.546 45.3526C408.619 56.8925 403.156 71.563 403.156 89.364C403.156 107.042 408.681 121.713 419.73 133.375C430.779 145.038 444.528 150.931 460.979 151.054C468.959 151.054 476.57 149.642 483.813 146.818C491.056 143.995 497.256 140.066 502.412 135.033V102.439C502.412 99.7377 501.614 97.712 500.018 96.3616C498.422 94.8884 496.151 94.1518 493.205 94.1518H490.258V92.3104H526.352V94.1518H523.589C520.52 94.1518 518.188 94.8884 516.592 96.3616C514.996 97.712 514.259 99.7377 514.382 102.439V130.797C515.119 150.194 521.441 164.067 533.349 172.415C541.697 178.308 552.501 181.254 565.759 181.254C571.284 181.254 577.299 180.701 583.806 179.597L583.99 181.438C574.169 184.507 565.084 186.042 556.736 186.042ZM593.327 152.159H595.721V154H555.392V152.159H557.786C560.978 152.159 563.74 151.054 566.073 148.844C568.405 146.511 569.572 143.749 569.572 140.557V30.0683L549.868 31.1731C537.468 31.9097 531.269 36.3907 531.269 44.616C531.269 47.9306 532.312 50.7542 534.399 53.0868C536.609 55.4193 540.047 56.7084 544.712 56.9539V58.0588C542.993 58.4271 541.274 58.6112 539.556 58.6112C534.154 58.6112 530.103 56.4628 527.402 52.166C525.806 49.7107 525.008 47.0099 525.008 44.0635C525.008 33.6285 532.926 27.5516 548.763 25.8329C548.886 25.8329 554.963 25.4646 566.994 24.728C579.147 23.8686 588.723 22.7637 595.721 21.4133L596.089 23.2548C590.81 24.1141 587.066 25.8942 584.856 28.5951C582.646 31.2959 581.541 35.0403 581.541 39.8281V140.557C581.664 143.749 582.83 146.511 585.04 148.844C587.373 151.054 590.135 152.159 593.327 152.159ZM797.003 181.991C787.182 185.06 778.343 185.612 770.486 183.648C762.261 181.438 755.14 178.001 749.125 173.336C743.355 168.67 737.462 163.085 731.447 156.578L634.4 49.0355V141.11C634.523 145.406 636.426 148.598 640.109 150.685C641.828 151.667 643.669 152.159 645.634 152.159H649.132V154H611.198V152.159H614.697C617.766 152.159 620.405 151.115 622.615 149.028C624.825 146.818 625.93 144.117 625.93 140.925V39.8281C625.316 38.9688 624.088 37.3728 622.247 35.0403C620.405 32.585 618.871 30.6207 617.643 29.1475C616.415 27.6743 614.758 25.7715 612.671 23.4389C610.584 20.9836 608.62 19.0194 606.778 17.5462C605.06 16.073 603.034 14.3543 600.701 12.39C597.018 9.56642 593.09 7.54079 588.916 6.31314C584.742 5.08549 581.243 4.47166 578.419 4.47166C575.473 4.47166 572.343 4.96272 569.028 5.94485L568.291 4.10337C574.184 1.64805 579.893 0.420397 585.417 0.420397C590.819 0.420397 595.484 1.09561 599.412 2.44603C603.341 3.67369 607.576 5.94485 612.119 9.25952C616.661 12.5742 620.344 15.6433 623.167 18.4669C626.114 21.2905 629.613 24.9735 633.664 29.5158L726.475 132.639V38.1708C726.352 34.9789 725.186 32.3394 722.976 30.2524C720.766 28.0426 718.127 26.9377 715.057 26.9377H711.559V25.0963H749.493V26.9377H746.178C743.109 26.9377 740.47 28.0426 738.26 30.2524C736.05 32.3394 734.884 34.9175 734.761 37.9866V142.03C735.989 143.381 737.708 145.406 739.917 148.107C742.25 150.808 743.846 152.711 744.705 153.816C745.687 154.921 747.099 156.517 748.941 158.604C750.782 160.691 752.317 162.287 753.544 163.392C754.895 164.619 756.491 166.092 758.332 167.811C760.296 169.653 762.077 171.064 763.673 172.047C765.391 173.151 767.294 174.379 769.381 175.729C772.327 177.448 775.642 178.737 779.325 179.597C783.131 180.456 786.2 180.886 788.533 180.886C790.988 180.886 793.566 180.64 796.267 180.149L797.003 181.991ZM771.005 152.159C774.197 152.159 776.898 151.054 779.108 148.844C781.44 146.511 782.668 143.749 782.791 140.557V37.4342C782.791 34.4878 781.625 32.0325 779.292 30.0683C776.959 27.9812 774.197 26.9377 771.005 26.9377H768.796L768.611 25.0963H805.993C809.799 25.0963 813.912 24.728 818.331 23.9914C822.874 23.2548 826.066 22.5182 827.907 21.7816V44.9843H826.066V41.6696C826.066 38.7232 825.022 36.2065 822.935 34.1195C820.971 32.0325 818.577 30.9276 815.753 30.8049H794.76V87.7066H829.749C832.204 87.5839 834.291 86.6631 836.01 84.9444C837.728 83.2257 838.588 81.0773 838.588 78.4992V75.9212H840.429V105.017H838.588V102.254C838.588 99.799 837.728 97.712 836.01 95.9933C834.414 94.2746 832.388 93.3539 829.933 93.2311H794.76V148.291H833.984C843.069 148.291 850.005 146.266 854.793 142.215C859.581 138.163 863.57 132.148 866.762 124.168H868.604L857.923 154H768.611V152.159H771.005ZM937.921 152.343C936.325 153.939 934.361 154.737 932.029 154.737C929.696 154.737 927.732 153.939 926.136 152.343C924.54 150.747 923.742 148.782 923.742 146.45C923.742 144.117 924.54 142.153 926.136 140.557C927.732 138.961 929.696 138.163 932.029 138.163C934.361 138.163 936.325 138.961 937.921 140.557C939.517 142.153 940.315 144.117 940.315 146.45C940.315 148.782 939.517 150.747 937.921 152.343ZM1095.13 89.364C1095.13 110.48 1089.42 126.992 1078 138.9C1066.71 150.685 1050.69 156.578 1029.94 156.578C1015.95 156.578 1003.3 153.632 992.008 147.739C980.836 141.846 972.12 133.805 965.859 123.616C959.72 113.426 956.651 102.07 956.651 89.5481C956.651 76.9033 959.72 65.4861 965.859 55.2966C971.997 45.107 980.468 37.1273 991.271 31.3573C1002.07 25.4646 1014.11 22.5182 1027.36 22.5182C1035.71 22.5182 1044.18 23.6845 1052.78 26.017C1061.49 28.2268 1068.74 31.2345 1074.51 35.0403L1078.19 61.0052H1076.53C1073.95 50.6929 1068 42.6517 1058.67 36.8817C1049.34 30.989 1038.97 28.0426 1027.55 28.0426C1011.22 28.0426 997.593 33.874 986.667 45.5367C975.864 57.0767 970.462 71.6244 970.462 89.1798C970.462 106.735 976.048 121.467 987.22 133.375C998.514 145.161 1013.25 151.054 1031.42 151.054C1049.58 151.054 1064.38 145.161 1075.8 133.375C1087.34 121.59 1093.1 105.446 1093.1 84.9444H1094.95C1095.07 86.4176 1095.13 87.8908 1095.13 89.364ZM1272.38 185.305C1267.22 186.656 1262.62 187.331 1258.57 187.331C1254.64 187.331 1251.14 187.085 1248.07 186.594C1245 186.103 1241.69 185.121 1238.13 183.648C1234.69 182.297 1231.44 180.701 1228.37 178.86C1225.3 177.019 1222.23 174.747 1219.16 172.047C1213.51 167.504 1208.36 162.594 1203.69 157.315C1199.15 152.036 1190.31 142.153 1177.17 127.667C1164.04 113.058 1155.32 103.359 1151.02 98.5714C1146.73 93.7835 1143.41 91.2668 1141.08 91.0213V89.1798C1148.2 89.1798 1152.93 89.0571 1155.26 88.8115C1157.71 88.4432 1160.29 87.8908 1162.99 87.1542C1165.69 86.2948 1167.97 85.19 1169.81 83.8395C1177.05 79.1744 1180.67 71.4402 1180.67 60.6369C1180.67 51.675 1178.65 44.4932 1174.59 39.0915C1170.67 33.6898 1165.08 30.9276 1157.84 30.8049H1135V140.557C1135 143.626 1136.11 146.327 1138.32 148.66C1140.65 150.992 1143.47 152.159 1146.79 152.159H1149L1149.18 154H1108.85V152.159H1111.25C1114.32 152.159 1117.02 151.054 1119.35 148.844C1121.68 146.634 1122.91 143.933 1123.03 140.741V38.5391C1122.91 35.3472 1121.68 32.6463 1119.35 30.4366C1117.14 28.104 1114.44 26.9377 1111.25 26.9377H1108.85V25.0963H1158.57C1169.38 25.0963 1178.03 28.1654 1184.54 34.3037C1191.17 40.3192 1194.48 48.3603 1194.48 58.4271C1194.48 68.3711 1191.48 76.9647 1185.46 84.2078C1179.44 91.3282 1172.08 94.8884 1163.36 94.8884C1163.36 94.8884 1163.3 94.8884 1163.18 94.8884C1167.35 99.308 1172.08 104.464 1177.36 110.357C1198.6 133.805 1212.22 148.537 1218.24 154.552C1224.25 160.568 1229.53 165.479 1234.07 169.284C1238.74 173.213 1242.85 176.098 1246.41 177.939C1253.66 181.868 1260.84 183.832 1267.96 183.832C1269.43 183.832 1270.9 183.709 1272.38 183.464V185.305ZM1231.38 152.159C1234.57 152.159 1237.27 151.054 1239.48 148.844C1241.81 146.511 1243.04 143.749 1243.16 140.557V37.4342C1243.16 34.4878 1242 32.0325 1239.66 30.0683C1237.33 27.9812 1234.57 26.9377 1231.38 26.9377H1229.17L1228.98 25.0963H1266.36C1270.17 25.0963 1274.28 24.728 1278.7 23.9914C1283.24 23.2548 1286.44 22.5182 1288.28 21.7816V44.9843H1286.44V41.6696C1286.44 38.7232 1285.39 36.2065 1283.31 34.1195C1281.34 32.0325 1278.95 30.9276 1276.12 30.8049H1255.13V87.7066H1290.12C1292.57 87.5839 1294.66 86.6631 1296.38 84.9444C1298.1 83.2257 1298.96 81.0773 1298.96 78.4992V75.9212H1300.8V105.017H1298.96V102.254C1298.96 99.799 1298.1 97.712 1296.38 95.9933C1294.78 94.2746 1292.76 93.3539 1290.3 93.2311H1255.13V148.291H1294.35C1303.44 148.291 1310.38 146.266 1315.16 142.215C1319.95 138.163 1323.94 132.148 1327.13 124.168H1328.97L1318.29 154H1228.98V152.159H1231.38ZM1351.7 18.8352C1359.68 15.5206 1367.35 13.8632 1374.72 13.8632C1380.86 13.8632 1387.18 16.1344 1393.69 20.6767C1397.25 23.132 1401.24 27.9199 1405.66 35.0403C1408.6 39.9509 1412.35 48.8514 1416.89 61.7417L1439.36 125.457C1444.51 139.698 1449.73 150.992 1455.01 159.34C1460.41 167.811 1465.32 174.134 1469.74 178.308C1474.16 182.604 1478.76 185.612 1483.55 187.331C1488.34 189.05 1492.27 189.909 1495.34 189.909C1498.53 189.909 1501.35 189.663 1503.81 189.172L1503.99 191.014C1498.1 192.978 1492.33 193.96 1486.68 193.96C1481.04 193.96 1475.39 192.487 1469.74 189.541C1464.09 186.717 1458.82 182.727 1453.9 177.571C1443.35 166.89 1434.38 150.624 1427.02 128.772L1419.84 107.779H1369.38L1356.67 140.557C1356.06 142.03 1355.75 143.504 1355.75 144.977C1355.75 146.45 1356.37 148.046 1357.6 149.765C1358.95 151.361 1360.97 152.159 1363.67 152.159H1365.15V154H1328.13V152.159H1329.79C1332.74 152.159 1335.62 151.299 1338.44 149.58C1341.27 147.739 1343.6 145.038 1345.44 141.478L1391.11 32.0939C1384.48 22.6409 1376.26 17.9145 1366.43 17.9145C1362.01 17.9145 1357.29 18.8352 1352.25 20.6767L1351.7 18.8352ZM1371.41 102.254H1418L1403.45 59.3478C1400.62 51.1225 1398.05 44.6774 1395.71 40.0123L1371.41 102.254ZM1439.24 61.7417C1435.43 57.1994 1433.53 52.7185 1433.53 48.2989C1433.53 43.7566 1434.57 39.8895 1436.66 36.6976C1438.74 33.3829 1442.12 30.6207 1446.79 28.4109C1451.45 26.0784 1456.73 24.9121 1462.62 24.9121H1538.12C1541.93 24.9121 1546.1 24.5438 1550.65 23.8072C1555.31 23.0706 1558.56 22.334 1560.41 21.5974V44.8001L1558.56 44.616V41.4855C1558.56 38.5391 1557.52 36.0224 1555.43 33.9354C1553.35 31.7256 1550.89 30.5593 1548.07 30.4366H1513.08V140.741C1513.2 145.161 1515.17 148.476 1518.97 150.685C1520.81 151.667 1522.78 152.159 1524.86 152.159H1527.26V154H1486.93V152.159H1489.32C1492.52 152.159 1495.22 151.054 1497.43 148.844C1499.76 146.634 1500.99 143.995 1501.11 140.925V30.4366H1462.62C1452.8 30.4366 1445.68 33.5671 1441.26 39.8281C1438.93 43.02 1437.76 46.3961 1437.76 49.9563C1437.76 53.3937 1438.74 57.0153 1440.71 60.821L1439.24 61.7417ZM1577.19 152.159C1580.39 152.159 1583.09 151.054 1585.3 148.844C1587.63 146.511 1588.86 143.749 1588.98 140.557V37.4342C1588.98 34.4878 1587.81 32.0325 1585.48 30.0683C1583.15 27.9812 1580.39 26.9377 1577.19 26.9377H1574.98L1574.8 25.0963H1612.18C1615.99 25.0963 1620.1 24.728 1624.52 23.9914C1629.06 23.2548 1632.25 22.5182 1634.09 21.7816V44.9843H1632.25V41.6696C1632.25 38.7232 1631.21 36.2065 1629.12 34.1195C1627.16 32.0325 1624.76 30.9276 1621.94 30.8049H1600.95V87.7066H1635.94C1638.39 87.5839 1640.48 86.6631 1642.2 84.9444C1643.92 83.2257 1644.78 81.0773 1644.78 78.4992V75.9212H1646.62V105.017H1644.78V102.254C1644.78 99.799 1643.92 97.712 1642.2 95.9933C1640.6 94.2746 1638.58 93.3539 1636.12 93.2311H1600.95V148.291H1640.17C1649.26 148.291 1656.19 146.266 1660.98 142.215C1665.77 138.163 1669.76 132.148 1672.95 124.168H1674.79L1664.11 154H1574.8V152.159H1577.19ZM1698.07 152.343C1696.48 153.939 1694.51 154.737 1692.18 154.737C1689.85 154.737 1687.88 153.939 1686.29 152.343C1684.69 150.747 1683.89 148.782 1683.89 146.45C1683.89 144.117 1684.69 142.153 1686.29 140.557C1687.88 138.961 1689.85 138.163 1692.18 138.163C1694.51 138.163 1696.48 138.961 1698.07 140.557C1699.67 142.153 1700.47 144.117 1700.47 146.45C1700.47 148.782 1699.67 150.747 1698.07 152.343Z" fill="#1E1E1E"/>
</svg>
