<svg width="490" height="119" viewBox="0 0 490 119" fill="none" xmlns="http://www.w3.org/2000/svg">
<path d="M485.929 47.2276C488.177 47.2276 490 45.4051 490 43.1569C490 40.9088 488.177 39.0863 485.929 39.0863C483.681 39.0863 481.858 40.9088 481.858 43.1569C481.858 45.4051 483.681 47.2276 485.929 47.2276Z" fill="#1E1E1E"/>
<path d="M29.0069 118.456C27.7832 118.456 26.6286 118.111 25.5826 117.405C23.7619 116.181 21.1419 113.033 24.0579 105.706C24.7092 104.063 25.3704 102.425 26.0415 100.782C25.3753 101.67 24.7092 102.558 24.0333 103.442C20.91 107.532 15.2851 112.431 9.69969 112.767C7.00567 112.93 4.58796 112.002 2.71794 110.083C-1.72769 105.519 0.201542 98.6752 2.04196 93.9286C9.43325 74.8435 17.8311 55.8916 27.0085 37.5959C32.7272 26.1932 37.2961 15.871 35.209 6.28407C25.0842 12.8464 16.1831 20.9828 8.70794 30.4957C7.86421 31.5664 6.3149 31.7539 5.2442 30.9102C4.1735 30.0665 3.986 28.5171 4.82973 27.4464C13.3361 16.621 23.6089 7.50773 35.3718 0.358211C35.9985 -0.0217148 36.7682 -0.105595 37.4639 0.136177C38.1596 0.377948 38.7122 0.915765 38.9688 1.60654C43.9227 14.8891 36.6991 29.2918 31.4246 39.8113C22.3211 57.9639 13.9825 76.7727 6.65042 95.7098C4.53862 101.167 4.41033 104.739 6.26062 106.639C7.13396 107.537 8.13558 107.922 9.40858 107.843C13.0549 107.621 17.5153 103.856 20.1156 100.447C25.9378 92.8135 31.4048 84.9189 36.4919 76.7924C43.6463 61.324 51.4965 46.1566 59.9585 31.448C60.6098 30.3181 62.021 29.8888 63.1903 30.4661C64.3597 31.0434 64.8778 32.4299 64.3745 33.6289C57.7727 49.418 49.8979 64.6447 40.8438 79.1411C36.5166 88.506 32.4459 97.9745 28.6516 107.522C27.7832 109.703 27.1862 112.52 28.3457 113.3C29.4707 114.055 31.7848 112.535 33.5758 110.69C44.3026 99.6472 54.1017 87.5142 62.766 74.6066C69.0817 57.9787 77.4746 42.2389 87.8461 27.5994C88.5714 26.578 89.948 26.2573 91.0434 26.8642C92.1437 27.4662 92.6124 28.7984 92.1437 29.9579C85.4876 46.2849 77.07 62.074 67.182 76.8763C64.4189 84.2084 62.0703 91.7181 60.146 99.3857C59.5194 101.887 59.5539 103.471 60.2545 104.093C60.9305 104.69 62.5094 104.557 64.7051 103.723C66.1015 103.19 67.4781 102.613 68.8399 101.986C67.8136 98.4926 67.7445 94.6884 68.4994 91.3431C70.1228 84.164 74.6868 78.2529 78.718 73.0326C81.4071 69.5541 84.7474 65.222 89.726 63.2927C92.795 62.0987 96.5301 62.227 99.4757 63.6282C101.864 64.7631 103.591 66.6627 104.336 68.9719C105.801 73.4964 103.31 77.9174 101.306 80.8483C94.6798 90.5487 85.6504 98.6456 75.3085 104.261C76.1522 105.469 77.2377 106.486 78.5749 107.196C86.9184 111.607 96.9939 101.616 100.936 97.116C103.354 94.3529 105.678 91.6096 107.893 88.881C110.888 63.8009 121.852 39.8853 138.944 21.2689C139.412 20.7558 140.064 20.4499 140.774 20.4696C141.47 20.4746 142.131 20.7706 142.595 21.2837C146.251 25.3445 146.478 31.3395 143.291 39.609C136.743 56.5774 126.673 73.4323 112.64 90.8645C112.596 91.2691 112.556 91.6786 112.517 92.0882C112.255 94.8365 112.966 97.866 114.14 98.986C114.48 99.3117 114.796 99.4153 115.255 99.3462C116.084 99.2278 116.997 98.3101 117.934 97.2986L132.125 82.0275C136.131 76.2398 140.977 71.0294 146.458 66.643C147.47 65.8338 148.93 65.9423 149.809 66.8897C150.687 67.837 150.687 69.3025 149.809 70.2498L135.983 85.1311C133.995 88.0373 132.233 91.0915 130.723 94.2641C129.401 97.0469 127.541 102.149 129.959 105.001C132.031 107.448 136.403 107.098 138.184 106.836C147.795 105.415 155.547 99.4745 162.188 91.3727C165.553 83.1476 170.468 75.4356 176.502 68.9423C177.252 68.1331 178.436 67.9308 179.398 68.4045C180.898 67.9308 182.467 67.7729 184.007 67.9851C189.03 68.6758 192.79 72.2432 194.837 76.5704C194.921 76.4914 195.005 76.4076 195.084 76.3286C199.441 72.0952 203.946 67.7186 210.34 67.1857C211.075 67.1265 211.791 67.393 212.304 67.916C212.817 68.439 213.074 69.1643 213 69.8945C212.876 71.0787 212.728 72.2679 212.551 73.4471C214.796 70.6939 217.83 68.1726 221.097 67.6347C223.327 67.2647 225.409 67.8617 227.116 69.3567C228.409 70.4916 229.267 72.0162 229.707 73.9701C232.899 70.0327 237.118 66.9637 242.678 66.3963C245.017 66.1594 246.931 66.5838 248.362 67.6545C250.035 68.9077 251.777 71.5574 250.563 77.0539C249.073 83.7989 246.423 90.1638 242.693 95.9762L242.353 96.5042C241.223 98.2459 240.157 99.889 240.113 101.497C240.073 102.854 240.853 103.886 241.514 104.507C242.89 105.81 244.992 106.55 246.872 106.387C250.691 106.062 254.19 103.323 257.111 100.688C255.068 96.8841 254.343 92.3447 255.255 88.2741C257.219 79.5358 264.191 73.1757 271.429 67.6002C276.906 63.3815 280.281 64.8272 281.801 66.0657C284.48 68.2466 284.623 72.2234 282.186 76.7036C277.237 85.812 271.005 94.0717 263.638 101.315C265.025 102.692 267.147 104.063 269.934 103.723C273.122 103.338 276.053 100.886 278.638 98.7245C301.217 79.8664 331.729 56.4096 367.575 42.2833C403.658 28.0632 440.733 25.6554 471.981 35.5038C473.279 35.9134 474.004 37.2999 473.594 38.5975C473.185 39.8952 471.798 40.6205 470.501 40.211C440.329 30.698 404.418 33.0664 369.386 46.872C334.196 60.7418 304.098 83.8926 281.806 102.514C278.85 104.986 275.169 108.06 270.536 108.622C266.702 109.091 262.997 107.695 260.041 104.69C256.583 107.774 252.384 110.872 247.292 111.306C244.03 111.588 240.517 110.354 238.129 108.094C236.16 106.234 235.114 103.841 235.183 101.359C235.267 98.3693 236.836 95.9565 238.213 93.825L238.544 93.3118C241.958 87.9929 244.381 82.1607 245.747 75.9882C246.236 73.7728 246.107 72.1297 245.407 71.6018C245.007 71.3057 244.218 71.1972 243.182 71.3008C237.601 71.8682 233.042 76.0573 229.371 84.0308C228.626 87.8794 227.294 91.6145 225.424 95.0536C224.822 96.1539 223.494 96.6325 222.33 96.1588C221.166 95.6851 220.544 94.417 220.879 93.2082C221.536 90.8645 222.69 86.7198 224.654 82.3778C224.901 80.9371 225.049 79.4865 225.103 78.026C225.192 75.5342 224.772 73.8616 223.855 73.0524C223.268 72.5343 222.666 72.3616 221.901 72.4899C219.7 72.855 216.547 75.7217 214.574 79.1608L207.661 91.1951C204.947 97.8808 201.326 104.201 196.924 109.831C196.125 110.853 194.679 111.08 193.604 110.359C192.528 109.634 192.197 108.208 192.844 107.083L203.225 89.0142C205.312 83.8038 206.812 78.3565 207.656 72.8451C204.395 74.1626 201.528 76.9454 198.533 79.8565C197.847 80.5226 197.146 81.2035 196.436 81.8696C196.53 82.5505 196.584 83.2265 196.594 83.8975C196.688 89.6606 194.364 95.7197 189.494 102.425C186.918 105.973 182.823 110.917 176.995 112.91C171.425 114.815 163.861 113.295 160.851 107.453C159.84 105.484 159.514 103.387 159.583 101.345C153.682 106.733 146.922 110.517 138.919 111.701C133.343 112.525 128.829 111.272 126.204 108.173C123.964 105.529 123.322 101.971 124.28 97.718L121.561 100.644C120.377 101.917 118.595 103.836 115.97 104.216C114.002 104.502 112.191 103.92 110.745 102.544C109.235 101.103 108.313 98.917 107.869 96.6374C106.818 97.8709 105.752 99.1094 104.661 100.353C97.2801 108.775 89.6964 113.196 82.981 113.196C80.6225 113.196 78.3775 112.654 76.2805 111.543C73.9763 110.325 72.1852 108.553 70.8678 106.476C69.4221 107.137 67.9616 107.754 66.4764 108.316C64.9419 108.899 60.2792 110.68 56.998 107.774C53.6971 104.853 54.9158 99.9975 55.3747 98.1719C56.0211 95.6012 56.7119 93.0503 57.452 90.5142C51.1314 98.8035 44.3371 106.703 37.1284 114.119C34.3307 116.986 31.5232 118.456 29.0069 118.456ZM166.451 93.9236C166.269 94.3825 166.096 94.8414 165.923 95.3003C164.872 98.1275 163.654 102.233 165.193 105.218C166.96 108.642 171.844 109.466 175.352 108.267C179.857 106.728 183.277 102.553 185.457 99.5535C189.168 94.4417 191.171 89.8875 191.551 85.6985C187.545 88.0619 182.823 89.1228 178.969 88.3925C176.433 87.909 174.371 86.6952 172.915 84.84C170.872 88.0323 168.731 91.0865 166.451 93.9236ZM94.1815 67.4176C93.2538 67.4176 92.3213 67.5755 91.4924 67.9012C87.7967 69.337 85.0386 72.9093 82.606 76.0573C78.8907 80.868 74.6769 86.3202 73.2954 92.4385C72.7822 94.6983 72.7724 97.2936 73.3299 99.7212C82.8182 94.4861 91.1075 87.011 97.211 78.0753C99.461 74.7793 100.226 72.3715 99.6238 70.4965C99.2044 69.2087 98.1534 68.4785 97.3393 68.0887C96.3969 67.6446 95.2867 67.4176 94.1815 67.4176ZM278.085 69.7367C277.252 69.7367 275.87 70.388 274.405 71.5179C268.346 76.1855 261.734 81.8005 260.032 89.3695C259.474 91.8414 259.8 94.6341 260.831 97.1259C267.551 90.3908 273.25 82.7528 277.814 74.3599C278.919 72.332 279.279 70.4126 278.653 69.9044C278.52 69.7909 278.327 69.7367 278.085 69.7367ZM175.92 79.9207C175.984 80.2808 176.107 80.646 176.3 81.0111C177.025 82.3877 178.199 83.2166 179.897 83.5374C183.129 84.1541 187.693 82.7331 190.934 80.1427C189.73 76.5803 187.017 73.3928 183.301 72.8846C182.023 72.707 180.617 73.0672 179.364 73.8172C178.239 75.8747 177.094 77.9125 175.92 79.9207ZM140.261 27.1899C127.072 42.4609 118.023 61.1266 114.125 80.8927C125.074 66.3025 133.161 52.0972 138.657 37.8426C140.399 33.3378 140.932 29.7704 140.261 27.1899Z" fill="#1E1E1E"/>
</svg>
